<svg xmlns="http://www.w3.org/2000/svg"><defs><font horiz-adv-x="512"><font-face units-per-em="512" ascent="480" descent="-32"/><glyph horiz-adv-x="256"/><glyph unicode="" d="M177.615 192c7.438 36.52 39.688 64 78.396 64 38.71 0 70.96-27.48 78.377-64h32c-7.834 54.125-54.084 96-110.376 96-56.27 0-102.54-41.875-110.374-96h31.98zm78.396 128c8.834 0 16 7.167 16 16v32c0 8.833-7.166 16-16 16-8.83 0-16-7.167-16-16v-32c0-8.833 7.17-16 16-16zm147.063 3.083c-6.25 6.25-16.374 6.25-22.625 0l-22.625-22.625c-6.25-6.25-6.25-16.375 0-22.625s16.376-6.25 22.625 0l22.625 22.625c6.25 6.25 6.25 16.375 0 22.625zm-248.896-22.625l-22.625 22.625c-6.25 6.25-16.373 6.25-22.625 0-6.25-6.25-6.25-16.375 0-22.625l22.625-22.625c6.252-6.25 16.376-6.25 22.625 0 6.252 6.25 6.252 16.375 0 22.625zM352.01 160h-192c-8.83 0-16-7.167-16-16s7.17-16 16-16h192c8.834 0 16 7.167 16 16s-7.166 16-16 16zm-32-64h-128c-8.83 0-16-7.167-16-16s7.17-16 16-16h128c8.834 0 16 7.167 16 16s-7.166 16-16 16z"/><glyph unicode="" d="M256 336c-61.75 0-112-50.25-112-112s50.25-112 112-112 112 50.25 112 112-50.25 112-112 112zm0-192c-44.188 0-80 35.812-80 80s35.812 80 80 80 80-35.812 80-80-35.812-80-80-80zm0 224c8.833 0 16 7.167 16 16v32c0 8.833-7.167 16-16 16s-16-7.167-16-16v-32c0-8.833 7.167-16 16-16zm0-288c-8.833 0-16-7.167-16-16V32c0-8.833 7.167-16 16-16s16 7.167 16 16v32c0 8.833-7.167 16-16 16zm124.438 245.833l22.625 22.625c6.25 6.25 6.25 16.375 0 22.625s-16.375 6.25-22.625 0l-22.625-22.625c-6.25-6.25-6.25-16.375 0-22.625s16.375-6.25 22.625 0zM131.562 122.166L108.937 99.54c-6.25-6.248-6.25-16.373 0-22.623s16.375-6.25 22.625 0l22.625 22.624c6.25 6.272 6.25 16.377 0 22.626-6.25 6.25-16.375 6.272-22.625 0zM112 224c0 8.833-7.167 16-16 16H64c-8.833 0-16-7.167-16-16s7.167-16 16-16h32c8.833 0 16 7.167 16 16zm336 16h-32c-8.833 0-16-7.167-16-16s7.167-16 16-16h32c8.833 0 16 7.167 16 16s-7.167 16-16 16zm-316.46 85.833c6.252-6.25 16.377-6.25 22.626 0 6.25 6.25 6.25 16.375 0 22.625l-22.625 22.625c-6.25 6.25-16.373 6.25-22.624 0-6.25-6.25-6.25-16.375 0-22.625l22.625-22.625zm248.92-203.645c-6.272 6.25-16.377 6.25-22.626 0-6.25-6.25-6.27-16.375 0-22.625l22.625-22.625c6.248-6.25 16.373-6.25 22.623 0s6.25 16.374 0 22.625l-22.624 22.625z"/><glyph unicode="" d="M349.852 136.85c-49.876-49.916-131.083-49.916-181 0-49.916 49.917-49.916 131.125 0 181.02 13.21 13.188 29.312 23.25 47.832 29.813 5.834 2.042 12.293.562 16.625-3.792 4.375-4.374 5.854-10.832 3.792-16.624-12.542-35.375-4-73.666 22.25-99.917 26.208-26.23 64.5-34.75 99.916-22.25 5.792 2.06 12.27.582 16.625-3.793 4.376-4.333 5.834-10.812 3.77-16.625-6.52-18.52-16.603-34.623-29.81-47.832zM191.477 295.246c-37.438-37.438-37.438-98.354 0-135.77 40-40.022 108.125-36.418 143 8.166-35.96-2.25-71.375 10.73-97.75 37.084-26.375 26.354-39.333 61.77-37.084 97.73-2.874-2.252-5.604-4.648-8.166-7.21z"/><glyph unicode="" d="M271 353c8.833 0 16 7.167 16 16v32c0 8.833-7.167 16-16 16s-16-7.167-16-16v-32c0-8.833 7.167-16 16-16zm0-288c-8.833 0-16-7.167-16-16V17c0-8.833 7.167-16 16-16s16 7.167 16 16v32c0 8.833-7.167 16-16 16zm-124.438 42.166L123.937 84.54c-6.25-6.248-6.25-16.373 0-22.623s16.375-6.25 22.625 0l22.625 22.624c6.25 6.272 6.25 16.377 0 22.626-6.25 6.25-16.375 6.272-22.625 0zM127 209c0 8.833-7.167 16-16 16H79c-8.833 0-16-7.167-16-16s7.167-16 16-16h32c8.833 0 16 7.167 16 16zm19.54 101.833c6.252-6.25 16.377-6.25 22.626 0 6.25 6.25 6.25 16.375 0 22.625l-22.625 22.625c-6.25 6.25-16.373 6.25-22.624 0-6.25-6.25-6.25-16.375 0-22.625l22.625-22.625zM335 321c-11.188 0-21.812-2.167-32-5.208-10.188 3.042-20.812 5.208-32 5.208-61.75 0-112-50.25-112-112S209.25 97 271 97c11.188 0 21.812 2.166 32 5.21 10.188-3.044 20.812-5.21 32-5.21 61.75 0 112 50.25 112 112s-50.25 112-112 112zm-79.77-190.417C218.582 137.916 191 170.21 191 209c0 38.792 27.583 71.083 64.23 78.417C235.333 267.187 223 239.542 223 209s12.334-58.188 32.23-78.417z"/><glyph unicode="" d="M495 257h-81.625C405.312 328.792 344.938 385 271 385c-49.812 0-93.75-25.458-119.625-64H47c-8.833 0-16-7.167-16-16s7.167-16 16-16h88.833c-3.624-10.208-5.98-20.896-7.208-32H79c-8.833 0-16-7.167-16-16s7.167-16 16-16h49.625c1.23-11.084 3.584-21.812 7.208-32H49.916C39.46 193 31 185.833 31 177s8.46-16 18.916-16h101.46C177.25 122.438 221.185 97 271 97c49.812 0 93.75 25.438 119.624 64h37.46C438.54 161 447 168.167 447 177s-8.46 16-18.916 16h-21.917c3.624 10.188 5.958 20.916 7.208 32H495c8.833 0 16 7.167 16 16s-7.167 16-16 16zm-324.77 32H271c8.833 0 16 7.167 16 16s-7.167 16-16 16h-78.146c20.21 19.73 47.73 32 78.146 32 56.29 0 102.542-41.875 110.375-96h-220.75c1.625 11.312 4.834 22.042 9.604 32zM271 129c-30.417 0-57.938 12.29-78.146 32h156.27c-20.186-19.71-47.707-32-78.124-32zm100.75 64H170.23c-4.77 9.958-7.98 20.688-9.605 32h220.75c-1.625-11.312-4.834-22.042-9.625-32z"/><glyph unicode="" d="M431 288c-26.5 0-48-21.5-48-48 0-5.646 1.167-10.958 2.938-16H79c-8.833 0-16-7.167-16-16s7.167-16 16-16h352c26.5 0 48 21.5 48 48s-21.5 48-48 48zM79 256h192c26.5 0 48 21.5 48 48s-21.5 48-48 48-48-21.5-48-48c0-5.646 1.167-10.958 2.938-16H79c-8.833 0-16-7.167-16-16s7.167-16 16-16zm256-96c-.938 0-1.834-.208-2.79-.29-.626.04-1.147.29-1.772.29H83.584C72.21 160 63 152.833 63 144s9.21-16 20.584-16h206.354c-1.77-5.042-2.938-10.376-2.938-16 0-26.5 21.5-48 48-48s48 21.5 48 48-21.5 48-48 48z"/><glyph unicode="" d="M382.872 187.75l-32.625 18.834c1.042 5.666 1.75 11.458 1.75 17.416 0 5.98-.708 11.792-1.792 17.458l32.625 18.854c15.333 8.875 20.542 28.438 11.73 43.688-8.855 15.312-28.376 20.562-43.69 11.75l-32.937-19.02c-8.812 7.5-18.854 13.416-29.938 17.353V352c0 17.667-14.312 32-32 32-17.666 0-32-14.333-32-32v-37.896c-11.083-3.938-21.125-9.855-29.937-17.354l-32.876 18.98c-15.312 8.832-34.896 3.603-43.75-11.71-8.812-15.29-3.56-34.853 11.75-43.687l32.563-18.813c-1.062-5.688-1.75-11.52-1.75-17.52 0-5.96.687-11.772 1.75-17.44l-32.584-18.81c-15.333-8.835-20.583-28.44-11.728-43.75 8.81-15.25 28.395-20.5 43.73-11.69l32.832 18.98c8.813-7.5 18.875-13.458 30-17.417V96c0-17.688 14.334-32 32-32 17.688 0 32 14.312 32 32v37.917c11.125 3.958 21.188 9.875 29.958 17.395l32.917-19c15.31-8.81 34.875-3.56 43.687 11.69 8.857 15.31 3.628 34.873-11.685 43.748zM223.997 224c0 17.667 14.312 32 32 32 17.667 0 32-14.333 32-32 0-17.666-14.333-32-32-32-17.687 0-32 14.334-32 32z"/><glyph unicode="" d="M208 416c8.833 0 16 7.167 16 16v32c0 8.833-7.167 16-16 16s-16-7.167-16-16v-32c0-8.833 7.167-16 16-16zm124.438-42.167l22.625 22.625c6.25 6.25 6.25 16.375 0 22.625s-16.375 6.25-22.625 0l-22.625-22.625c-6.25-6.25-6.25-16.375 0-22.625s16.375-6.25 22.625 0zM16 256h32c8.833 0 16 7.167 16 16s-7.167 16-16 16H16c-8.833 0-16-7.167-16-16s7.167-16 16-16zm336 16c0-8.833 7.167-16 16-16h32c8.833 0 16 7.167 16 16s-7.167 16-16 16h-32c-8.833 0-16-7.167-16-16zM83.54 373.833c6.252-6.25 16.377-6.25 22.626 0 6.25 6.25 6.25 16.375 0 22.625L83.54 419.083c-6.25 6.25-16.373 6.25-22.624 0-6.25-6.25-6.25-16.375 0-22.625l22.625-22.625zM400 224c-5.312 0-10.562-.375-15.792-1.125-16.77 22.875-39.124 40.333-64.458 51.5C318.46 335 268.938 384 208 384c-61.75 0-112-50.25-112-112 0-17.438 4.334-33.75 11.5-48.438C47.875 221.125 0 172.188 0 112 0 50.25 50.25 0 112 0c13.688 0 27.084 2.5 39.71 7.333C180.665-17.917 217.5-32 256-32c38.542 0 75.333 14.083 104.29 39.333C372.917 2.5 386.313 0 400 0c61.75 0 112 50.25 112 112s-50.25 112-112 112zM208 352c39.812 0 72.562-29.167 78.708-67.25-10.02 2-20.25 3.25-30.708 3.25-45.938 0-88.5-19.812-118.375-53.25C131.688 245.917 128 258.458 128 272c0 44.188 35.812 80 80 80zM400 32c-17.125 0-32.916 5.5-45.938 14.667C330.584 18.375 295.624 0 256 0c-39.625 0-74.584 18.375-98.062 46.667C144.938 37.5 129.125 32 112 32c-44.188 0-80 35.812-80 80s35.812 80 80 80c7.75 0 15.062-1.458 22.125-3.54 2.812-.793 5.667-1.418 8.312-2.522 4.375 8.562 9.875 16.396 15.98 23.75C181.79 237.812 216.56 256 256 256c10.125 0 19.834-1.458 29.25-3.71 10.562-2.498 20.542-6.29 29.834-11.29 23.29-12.375 42.416-31.542 54.457-55.063C378.94 189.812 389.21 192 400 192c44.188 0 80-35.812 80-80s-35.812-80-80-80z"/><glyph unicode="" d="M435.062 217.834c4.875 3.625 9.812 7.188 14.23 11.604 13.207 13.23 23.27 29.333 29.79 47.854 2.084 5.792.605 12.292-3.77 16.625-4.355 4.375-10.813 5.854-16.624 3.792-35.396-12.5-73.688-4-99.896 22.25-26.25 26.25-34.792 64.52-22.25 99.895 2.042 5.813.583 12.27-3.792 16.646-4.333 4.334-10.812 5.835-16.625 3.792-18.542-6.582-34.625-16.623-47.834-29.832-33.54-33.5-43.978-81-32.478-123.792-43.25-5.52-82.125-28.5-108.02-63.793-5.23.75-10.48 1.125-15.793 1.125C50.25 224 0 173.75 0 112S50.25 0 112 0c13.687 0 27.083 2.5 39.708 7.334C180.665-17.916 217.498-32 255.998-32c38.543 0 75.334 14.084 104.292 39.334C372.915 2.5 386.31 0 400 0c61.75 0 112 50.25 112 112 0 49.438-32.417 91.02-76.938 105.834zm-144.146 170c2.542 2.583 5.27 4.98 8.146 7.23-2.25-35.98 10.73-71.376 37.104-97.73 26.376-26.375 61.77-39.333 97.75-37.104-13.79-17.584-32.79-28.52-53.125-33.188-27.374 34.75-67.603 56.625-111.957 60.187-12.27 33.958-5.083 73.437 22.083 100.604zM400 32c-17.125 0-32.916 5.5-45.938 14.667C330.582 18.375 295.624 0 256 0c-39.625 0-74.584 18.375-98.062 46.667C144.938 37.5 129.126 32 112 32c-44.188 0-80 35.812-80 80 0 44.187 35.812 80 80 80 10.812 0 21.062-2.19 30.438-6.063 20.188 39.355 59.75 66.896 106.312 69.543 2.438.145 4.812.52 7.25.52 12.916 0 25.312-2.02 37-5.582 15.79-4.834 30.188-12.708 42.688-22.854 11.938-9.688 21.938-21.562 29.812-34.896 1.333-2.25 2.834-4.375 4.04-6.73 9.397 3.876 19.67 6.063 30.46 6.063 44.188 0 80-35.81 80-80s-35.812-80-80-80z"/><glyph unicode="" d="M256 385c8.833 0 16 7.167 16 16v32c0 8.833-7.167 16-16 16s-16-7.167-16-16v-32c0-8.833 7.167-16 16-16zm124.438-42.167l22.625 22.625c6.25 6.25 6.25 16.375 0 22.625s-16.375 6.25-22.625 0l-22.625-22.625c-6.25-6.25-6.25-16.375 0-22.625s16.375-6.25 22.625 0zM64 225h32c8.833 0 16 7.167 16 16s-7.167 16-16 16H64c-8.833 0-16-7.167-16-16s7.167-16 16-16zm336 16c0-8.833 7.167-16 16-16h32c8.833 0 16 7.167 16 16s-7.167 16-16 16h-32c-8.833 0-16-7.167-16-16zM131.54 342.833c6.252-6.25 16.377-6.25 22.626 0 6.25 6.25 6.25 16.375 0 22.625l-22.625 22.625c-6.25 6.25-16.373 6.25-22.624 0-6.25-6.25-6.25-16.375 0-22.625l22.625-22.625zM145.626 225h32c-1.062 5.167-1.625 10.52-1.625 16 0 44.188 35.812 80 80 80s80-35.812 80-80c0-5.48-.562-10.833-1.625-16h32c.792 5.27 1.625 10.52 1.625 16 0 61.75-50.25 112-112 112s-112-50.25-112-112c0-5.48.875-10.73 1.625-16zM448 193H64c-8.833 0-16-7.167-16-16s7.167-16 16-16h384c8.833 0 16 7.167 16 16s-7.167 16-16 16zm0-64H64c-8.833 0-16-7.167-16-16s7.167-16 16-16h384c8.833 0 16 7.167 16 16s-7.167 16-16 16zm0-64H64c-8.833 0-16-7.167-16-16s7.167-16 16-16h384c8.833 0 16 7.167 16 16s-7.167 16-16 16z"/><glyph unicode="" d="M64 161h384c8.833 0 16 7.166 16 16s-7.167 16-16 16H64c-8.833 0-16-7.168-16-16s7.167-16 16-16zm384-32H64c-8.833 0-16-7.168-16-16s7.167-16 16-16h384c8.833 0 16 7.166 16 16s-7.167 16-16 16zm0-64H64c-8.833 0-16-7.168-16-16s7.167-16 16-16h384c8.833 0 16 7.166 16 16s-7.167 16-16 16zM205.042 225c-.333.333-.75.542-1.083.875-37.44 37.438-37.44 98.334 0 135.792 2.56 2.542 5.27 4.958 8.145 7.208-2.25-35.958 10.73-71.375 37.104-97.73 26.373-26.395 61.79-39.332 97.748-37.082-2.667-3.396-5.874-6.125-8.896-9.062h41.52c5.043 8.043 9.25 16.75 12.584 26.064 2.02 5.854.542 12.333-3.833 16.667-4.29 4.355-10.792 5.855-16.624 3.792-35.377-12.5-73.647-3.98-99.876 22.25-26.25 26.25-34.792 64.52-22.25 99.896 2.082 5.812.582 12.27-3.792 16.646-4.334 4.354-10.813 5.833-16.625 3.77-18.52-6.54-34.625-16.603-47.833-29.79-43.21-43.21-48.855-109.773-17.272-159.294h40.98z"/><glyph unicode="" d="M33.604 224C32.562 229.167 32 234.52 32 240c0 44.188 35.812 80 80 80 10.812 0 21.062-2.208 30.438-6.083C163.668 355.333 206.29 384 256 384s92.334-28.667 113.54-70.083C378.94 317.792 389.21 320 400 320c44.188 0 80-35.812 80-80 0-5.48-.562-10.833-1.625-16h32c.792 5.27 1.625 10.52 1.625 16 0 61.75-50.25 112-112 112-5.312 0-10.562-.375-15.792-1.125C354.334 391.583 307.188 416 256 416s-98.312-24.417-128.208-65.125c-5.23.75-10.48 1.125-15.792 1.125C50.25 352 0 301.75 0 240c0-5.48.854-10.73 1.625-16h31.98zM496 192H16c-8.833 0-16-7.167-16-16s7.167-16 16-16h480c8.833 0 16 7.167 16 16s-7.167 16-16 16zm0-64H16c-8.833 0-16-7.167-16-16s7.167-16 16-16h480c8.833 0 16 7.167 16 16s-7.167 16-16 16zm0-64H16C7.167 64 0 56.833 0 48s7.167-16 16-16h480c8.833 0 16 7.167 16 16s-7.167 16-16 16z"/><glyph unicode="" d="M112 320h288c8.833 0 16 7.167 16 16s-7.167 16-16 16H112c-8.833 0-16-7.167-16-16s7.167-16 16-16zm288-32H112c-8.833 0-16-7.167-16-16s7.167-16 16-16h288c8.833 0 16 7.167 16 16s-7.167 16-16 16zm0-64H112c-8.833 0-16-7.167-16-16s7.167-16 16-16h288c8.833 0 16 7.167 16 16s-7.167 16-16 16zm0-64H112c-8.833 0-16-7.167-16-16s7.167-16 16-16h288c8.833 0 16 7.167 16 16s-7.167 16-16 16z"/><glyph unicode="" d="M400 320c-5.312 0-10.562-.375-15.792-1.125C354.334 359.583 307.188 384 256 384s-98.312-24.417-128.208-65.125c-5.23.75-10.48 1.125-15.792 1.125C50.25 320 0 269.75 0 208S50.25 96 112 96c13.688 0 27.084 2.5 39.71 7.333C180.665 78.083 217.5 64 256 64c38.542 0 75.333 14.083 104.29 39.333C372.917 98.5 386.313 96 400 96c61.75 0 112 50.25 112 112s-50.25 112-112 112zm0-192c-17.125 0-32.916 5.5-45.938 14.667C330.584 114.377 295.624 96 256 96c-39.625 0-74.584 18.376-98.062 46.667C144.938 133.5 129.125 128 112 128c-44.188 0-80 35.812-80 80s35.812 80 80 80c10.812 0 21.062-2.208 30.438-6.083C163.668 323.333 206.29 352 256 352s92.334-28.667 113.54-70.083C378.94 285.792 389.21 288 400 288c44.188 0 80-35.812 80-80s-35.812-80-80-80z"/><glyph unicode="" d="M400 416c-5.312 0-10.562-.375-15.792-1.125C354.334 455.583 307.188 480 256 480s-98.312-24.417-128.208-65.125c-5.23.75-10.48 1.125-15.792 1.125C50.25 416 0 365.75 0 304s50.25-112 112-112c13.688 0 27.084 2.5 39.71 7.333 21.54-18.77 47.415-31.29 75.103-36.52L192 128l32-32-32-96 96 96-32 32 11 33c34.458 2.437 67.125 15.542 93.29 38.333C372.917 194.5 386.313 192 400 192c61.75 0 112 50.25 112 112s-50.25 112-112 112zm0-192c-17.125 0-32.916 5.5-45.938 14.667-18.938-22.833-45.562-38.625-75.875-44.104L256 192c-39.625 0-74.584 18.375-98.062 46.667C144.938 229.5 129.125 224 112 224c-44.188 0-80 35.812-80 80s35.812 80 80 80c10.812 0 21.062-2.208 30.438-6.083C163.668 419.333 206.29 448 256 448s92.334-28.667 113.54-70.083C378.94 381.792 389.21 384 400 384c44.188 0 80-35.812 80-80s-35.812-80-80-80z"/><glyph unicode="" d="M400 416c-5.312 0-10.562-.375-15.792-1.125C354.334 455.583 307.188 480 256 480s-98.312-24.417-128.208-65.125c-5.23.75-10.48 1.125-15.792 1.125C50.25 416 0 365.75 0 304s50.25-112 112-112c13.688 0 27.084 2.5 39.71 7.333 12.29-10.708 26.25-18.958 40.915-25.416l24.916 24.874c-23.457 7.627-44.165 21.272-59.603 39.877C144.937 229.5 129.125 224 112 224c-44.188 0-80 35.812-80 80s35.812 80 80 80c10.812 0 21.062-2.208 30.438-6.083C163.668 419.333 206.29 448 256 448s92.334-28.667 113.54-70.083C378.94 381.792 389.21 384 400 384c44.188 0 80-35.812 80-80s-35.812-80-80-80c-17.125 0-32.916 5.5-45.938 14.667-10.375-12.52-23.312-22.667-37.625-30.584L303 167.75c20.875 6.562 40.5 16.938 57.29 31.583C372.917 194.5 386.313 192 400 192c61.75 0 112 50.25 112 112s-50.25 112-112 112zM192 128l32-32-32-96 96 96-32 32 32 96-96-96z"/><glyph unicode="" d="M400 384c-5.312 0-10.562-.375-15.792-1.125C354.334 423.583 307.188 448 256 448s-98.312-24.417-128.208-65.125c-5.23.75-10.48 1.125-15.792 1.125C50.25 384 0 333.75 0 272s50.25-112 112-112c13.688 0 27.084 2.5 39.71 7.333C180.665 142.083 217.5 128 256 128c38.542 0 75.333 14.083 104.29 39.333C372.917 162.5 386.313 160 400 160c61.75 0 112 50.25 112 112s-50.25 112-112 112zm0-192c-17.125 0-32.916 5.5-45.938 14.667C330.584 178.375 295.624 160 256 160c-39.625 0-74.584 18.375-98.062 46.667C144.938 197.5 129.125 192 112 192c-44.188 0-80 35.812-80 80s35.812 80 80 80c10.812 0 21.062-2.208 30.438-6.083C163.668 387.333 206.29 416 256 416s92.334-28.667 113.54-70.083C378.94 349.792 389.21 352 400 352c44.188 0 80-35.812 80-80s-35.812-80-80-80zM224 32c0-17.688 14.312-32 32-32s32 14.312 32 32-32 64-32 64-32-46.312-32-64z"/><glyph unicode="" d="M400 416c-5.312 0-10.562-.375-15.792-1.125C354.334 455.583 307.188 480 256 480s-98.312-24.417-128.208-65.125c-5.23.75-10.48 1.125-15.792 1.125C50.25 416 0 365.75 0 304s50.25-112 112-112c13.688 0 27.084 2.5 39.71 7.333C180.665 174.083 217.5 160 256 160c38.542 0 75.333 14.083 104.29 39.333C372.917 194.5 386.313 192 400 192c61.75 0 112 50.25 112 112s-50.25 112-112 112zm0-192c-17.125 0-32.916 5.5-45.938 14.667C330.584 210.375 295.624 192 256 192c-39.625 0-74.584 18.375-98.062 46.667C144.938 229.5 129.125 224 112 224c-44.188 0-80 35.812-80 80s35.812 80 80 80c10.812 0 21.062-2.208 30.438-6.083C163.668 419.333 206.29 448 256 448s92.334-28.667 113.54-70.083C378.94 381.792 389.21 384 400 384c44.188 0 80-35.812 80-80s-35.812-80-80-80zM225 0c0-17.688 14.312-32 32-32s32 14.312 32 32-32 64-32 64-32-46.312-32-64zm127 32c0-17.688 14.312-32 32-32s32 14.312 32 32-32 64-32 64-32-46.312-32-64zM96 96c0-17.688 14.312-32 32-32s32 14.312 32 32-32 64-32 64-32-46.312-32-64z"/><glyph unicode="" d="M417.042 313.917c-23.98 24.542-57.125 38.77-91.73 38.77-34.562 0-67.688-14.228-91.665-38.77-52.813-2.46-95.02-46.188-95.02-99.584 0-54.958 44.708-99.666 99.687-99.666 5.834 0 11.604.5 17.27 1.5 20.73-13.542 44.918-20.855 69.73-20.855 24.854 0 49.063 7.313 69.772 20.854 5.707-1 11.458-1.5 17.29-1.5 54.938 0 99.626 44.71 99.626 99.667-.002 53.396-42.19 97.125-94.96 99.584zm-4.667-167.25c-8.312 0-16.375 1.5-24 4.417-17.5-15.25-39.75-23.772-63.063-23.772-23.25 0-45.5 8.522-63 23.772-7.624-2.918-15.75-4.417-24-4.417-37.31 0-67.687 30.375-67.687 67.666 0 37.313 30.375 67.688 67.688 67.688 3.188 0 6.375-.228 9.52-.687 18.105 24.583 46.542 39.354 77.48 39.354 30.937 0 59.437-14.77 77.5-39.354 3.125.458 6.312.688 9.562.688 37.312 0 67.625-30.374 67.625-67.687 0-37.29-30.312-67.666-67.625-67.666zM144 128H16c-8.833 0-16-7.167-16-16s7.167-16 16-16h128c8.833 0 16 7.167 16 16s-7.167 16-16 16zM16 160h64c8.833 0 16 7.167 16 16s-7.167 16-16 16H16c-8.833 0-16-7.167-16-16s7.167-16 16-16zm32 64h64c8.833 0 16 7.167 16 16s-7.167 16-16 16H48c-8.833 0-16-7.167-16-16s7.167-16 16-16z"/><glyph unicode="" d="M417.042 409.208C393.062 433.77 359.917 448 325.312 448c-34.562 0-67.688-14.23-91.665-38.792-52.813-2.438-95.02-46.167-95.02-99.542 0-54.978 44.708-99.708 99.687-99.708 5.834 0 11.604.5 17.27 1.5 20.73-13.52 44.918-20.833 69.73-20.833 24.854 0 49.063 7.312 69.772 20.833 5.707-1 11.458-1.5 17.29-1.5 54.94 0 99.626 44.73 99.626 99.708-.002 53.376-42.19 97.126-94.96 99.542zm-4.667-167.25c-8.312 0-16.375 1.5-24 4.458-17.5-15.25-39.75-23.792-63.063-23.792-23.25 0-45.5 8.542-63 23.792-7.624-2.96-15.75-4.458-24-4.458-37.31 0-67.687 30.375-67.687 67.708 0 37.292 30.375 67.667 67.688 67.667 3.188 0 6.375-.25 9.52-.688C265.94 401.23 294.376 416 325.314 416c30.937 0 59.437-14.77 77.5-39.354 3.125.438 6.312.688 9.562.688 37.312 0 67.625-30.375 67.625-67.667 0-37.334-30.312-67.71-67.625-67.71zM144 223.312H16c-8.833 0-16-7.146-16-16 0-8.853 7.167-16 16-16h128c8.833 0 16 7.147 16 16 0 8.854-7.167 16-16 16zm-128 32h64c8.833 0 16 7.146 16 16s-7.167 16-16 16H16c-8.833 0-16-7.146-16-16s7.167-16 16-16zm32 64h64c8.833 0 16 7.146 16 16s-7.167 16-16 16H48c-8.833 0-16-7.146-16-16s7.167-16 16-16zM224 96c0-17.688 14.312-32 32-32s32 14.312 32 32-32 64-32 64-32-46.312-32-64zm128-64c0-17.688 14.312-32 32-32s32 14.312 32 32-32 64-32 64-32-46.312-32-64z"/><glyph unicode="" d="M326.042 36.312l-18 10.376c.542 3.124.958 6.31.958 9.624 0 3.312-.416 6.5-1 9.625l18.042 10.396c8.417 4.917 11.29 15.73 6.458 24.104-4.876 8.48-15.667 11.375-24.125 6.5l-18.188-10.5c-4.876 4.146-10.375 7.396-16.5 9.604v20.897c0 9.77-7.938 17.688-17.688 17.688s-17.667-7.917-17.667-17.688v-20.875c-6.126-2.188-11.646-5.48-16.52-9.625l-18.147 10.5c-8.48 4.875-19.292 2-24.167-6.48-4.876-8.416-1.94-19.25 6.5-24.125l17.958-10.375c-.584-3.146-.96-6.334-.96-9.646 0-3.312.376-6.5.96-9.623L186 36.312c-8.46-4.875-11.375-15.75-6.5-24.188S195.188.812 203.625 5.686l18.167 10.438c4.874-4.125 10.396-7.375 16.542-9.562v-20.938C238.334-24.126 246.25-32 256-32s17.688 7.875 17.688 17.624V6.562c6.125 2.188 11.688 5.438 16.52 9.625l18.168-10.5c8.458-4.875 19.25-2 24.125 6.438 4.875 8.437 2 19.25-6.458 24.187zM256 38.625c-9.75 0-17.688 7.938-17.688 17.688S246.25 73.96 256 73.96s17.667-7.897 17.667-17.647S265.75 38.625 256 38.625zM400 416c-5.312 0-10.562-.375-15.792-1.125C354.334 455.583 307.188 480 256 480s-98.312-24.417-128.208-65.125c-5.23.75-10.48 1.125-15.792 1.125C50.25 416 0 365.75 0 304s50.25-112 112-112c13.688 0 27.084 2.5 39.71 7.333C180.665 174.083 217.5 160 256 160c38.542 0 75.333 14.083 104.29 39.333C372.917 194.5 386.313 192 400 192c61.75 0 112 50.25 112 112s-50.25 112-112 112zm0-192c-17.125 0-32.916 5.5-45.938 14.667C330.584 210.375 295.624 192 256 192c-39.625 0-74.584 18.375-98.062 46.667C144.938 229.5 129.125 224 112 224c-44.188 0-80 35.812-80 80s35.812 80 80 80c10.812 0 21.062-2.208 30.438-6.083C163.668 419.333 206.29 448 256 448s92.334-28.667 113.54-70.083C378.94 381.792 389.21 384 400 384c44.188 0 80-35.812 80-80s-35.812-80-80-80z"/><glyph unicode="" d="M326.042 132.312l-18 10.375c.542 3.125.958 6.312.958 9.625 0 3.312-.416 6.5-1 9.625l18.042 10.396c8.417 4.917 11.29 15.73 6.458 24.104-4.876 8.48-15.667 11.375-24.125 6.5l-18.188-10.5c-4.877 4.146-10.375 7.396-16.5 9.604v20.897c0 9.77-7.938 17.688-17.688 17.688s-17.667-7.917-17.667-17.688v-20.875c-6.126-2.188-11.646-5.48-16.52-9.625l-18.147 10.5c-8.48 4.875-19.292 2-24.167-6.48-4.876-8.416-1.94-19.25 6.5-24.125l17.958-10.375c-.584-3.146-.96-6.334-.96-9.646s.376-6.5.96-9.622L186 132.312c-8.46-4.875-11.375-15.75-6.5-24.188s15.688-11.312 24.125-6.438l18.167 10.438c4.874-4.125 10.396-7.375 16.542-9.562V81.624C238.334 71.874 246.25 64 256 64s17.688 7.875 17.688 17.624v20.938c6.125 2.188 11.688 5.438 16.52 9.625l18.168-10.5c8.458-4.875 19.25-2 24.125 6.438 4.875 8.437 2 19.25-6.458 24.187zM256 134.625c-9.75 0-17.688 7.938-17.688 17.688S246.25 169.96 256 169.96s17.667-7.897 17.667-17.647-7.917-17.688-17.667-17.688zM400 416c-5.312 0-10.562-.375-15.792-1.125C354.334 455.583 307.188 480 256 480s-98.312-24.417-128.208-65.125c-5.23.75-10.48 1.125-15.792 1.125C50.25 416 0 365.75 0 304s50.25-112 112-112c11.812 0 23.334 2.208 34.438 5.834 1.062 5.082 2.73 10.04 5.375 14.645 3.938 6.853 9.562 12.31 16 16.5-3.312 3.23-6.938 6.105-9.875 9.69-13-9.17-28.813-14.67-45.938-14.67-44.188 0-80 35.812-80 80s35.812 80 80 80c10.812 0 21.062-2.208 30.438-6.083C163.668 419.333 206.29 448 256 448s92.334-28.667 113.54-70.083C378.94 381.792 389.21 384 400 384c44.188 0 80-35.812 80-80s-35.812-80-80-80c-17.125 0-32.916 5.5-45.938 14.667-2.938-3.583-6.604-6.46-9.896-9.688 6.46-4.208 12.125-9.69 16.042-16.563 2.708-4.646 4.354-9.584 5.416-14.583C376.688 194.208 388.188 192 400 192c61.75 0 112 50.25 112 112s-50.25 112-112 112z"/><glyph unicode="" d="M326.042 36.312l-18 10.376c.542 3.124.958 6.31.958 9.624 0 3.312-.416 6.5-1 9.625l18.042 10.396c8.417 4.917 11.29 15.73 6.458 24.104-4.876 8.48-15.667 11.375-24.125 6.5l-18.188-10.5c-4.876 4.146-10.375 7.396-16.5 9.604v20.897c0 9.77-7.938 17.688-17.688 17.688s-17.667-7.917-17.667-17.688v-20.875c-6.126-2.188-11.646-5.48-16.52-9.625l-18.147 10.5c-8.48 4.875-19.292 2-24.167-6.48-4.876-8.416-1.94-19.25 6.5-24.125l17.958-10.375c-.584-3.146-.96-6.334-.96-9.646 0-3.312.376-6.5.96-9.623L186 36.312c-8.46-4.875-11.375-15.75-6.5-24.188S195.188.812 203.625 5.686l18.167 10.438c4.874-4.125 10.396-7.375 16.542-9.562v-20.938C238.334-24.126 246.25-32 256-32s17.688 7.875 17.688 17.624V6.562c6.125 2.188 11.688 5.438 16.52 9.625l18.168-10.5c8.458-4.875 19.25-2 24.125 6.438 4.875 8.437 2 19.25-6.458 24.187zM256 38.625c-9.75 0-17.688 7.938-17.688 17.688S246.25 73.96 256 73.96s17.667-7.897 17.667-17.647S265.75 38.625 256 38.625zM474.166 83.75l-12.083 3.208c-.29 3.833-1.208 7.48-2.896 10.98l8.77 8.77c4.126 4.125 4.105 10.792 0 14.854-4.082 4.104-10.707 4.125-14.832 0l-8.79-8.75c-3.46 1.625-7.147 2.562-10.96 2.875l-3.21 12.062c-1.498 5.582-7.25 8.937-12.873 7.437-5.604-1.52-8.875-7.27-7.417-12.875l3.21-11.896c-1.585-1.084-3.085-2.292-4.5-3.667-1.376-1.418-2.543-2.917-3.627-4.46l-11.896 3.21c-5.604 1.498-11.396-1.877-12.896-7.44-1.5-5.624 1.876-11.353 7.417-12.874l12-3.23c.334-3.77 1.292-7.457 2.98-10.958l-8.813-8.812c-4.083-4.104-4.062-10.73.042-14.812 4.083-4.083 10.708-4.125 14.792-.042l8.832 8.833c3.46-1.707 7.168-2.666 11-2.957l3.167-12.02c1.542-5.605 7.25-8.94 12.876-7.44 5.582 1.5 8.956 7.25 7.457 12.918l-3.21 11.896c1.5 1.062 3.043 2.25 4.46 3.625 1.375 1.396 2.542 2.938 3.624 4.48l11.918-3.21c5.604-1.5 11.375 1.854 12.854 7.417 1.5 5.585-1.812 11.334-7.396 12.876zm-35.854-6.688c-4.125-4.125-10.77-4.104-14.875 0-4.062 4.062-4.104 10.73 0 14.854 4.104 4.083 10.77 4.083 14.875 0 4.063-4.104 4.063-10.79 0-14.854zM118.938 137.5l-11.875-3.188c-1.104 1.5-2.25 3.02-3.646 4.438-1.416 1.375-2.916 2.562-4.48 3.625l3.19 11.938c1.5 5.604-1.835 11.375-7.376 12.854-5.624 1.5-11.374-1.834-12.874-7.417l-3.25-12.062c-3.812-.312-7.458-1.25-10.938-2.896l-8.812 8.77c-4.125 4.126-10.75 4.105-14.834 0-4.104-4.103-4.104-10.75 0-14.853l8.77-8.772c-1.645-3.5-2.603-7.188-2.895-10.98l-12.042-3.207c-5.625-1.54-8.96-7.25-7.458-12.874 1.52-5.583 7.27-8.875 12.896-7.417l11.875 3.23c1.062-1.605 2.25-3.106 3.688-4.502 1.375-1.375 2.875-2.604 4.438-3.625l-3.188-11.896c-1.5-5.625 1.834-11.417 7.416-12.917 5.626-1.5 11.334 1.833 12.834 7.438l3.25 12c3.812.312 7.5 1.27 11 2.938l8.79-8.792c4.085-4.124 10.71-4.04 14.835.042 4.063 4.062 4.126 10.708 0 14.812L109.44 103c1.687 3.46 2.687 7.188 2.937 11l12.062 3.19c5.56 1.52 8.895 7.25 7.395 12.874-1.5 5.56-7.25 8.894-12.897 7.436zm-30.376-28.458c-4.104-4.104-10.75-4.104-14.875 0-4.062 4.083-4.062 10.77 0 14.833 4.125 4.083 10.77 4.083 14.875 0s4.063-10.75 0-14.833zM512 304c0 61.75-50.25 112-112 112-5.312 0-10.562-.375-15.792-1.125C354.334 455.583 307.188 480 256 480s-98.312-24.417-128.208-65.125c-5.23.75-10.48 1.125-15.792 1.125C50.25 416 0 365.75 0 304s50.25-112 112-112c13.688 0 27.084 2.5 39.71 7.333C180.665 174.083 217.5 160 256 160c38.542 0 75.333 14.083 104.29 39.333C372.917 194.5 386.313 192 400 192c61.75 0 112 50.25 112 112zm-157.938-65.333C330.584 210.375 295.624 192 256 192c-39.625 0-74.584 18.375-98.062 46.667C144.938 229.5 129.125 224 112 224c-44.188 0-80 35.812-80 80s35.812 80 80 80c10.812 0 21.062-2.208 30.438-6.083C163.668 419.333 206.29 448 256 448s92.334-28.667 113.54-70.083C378.94 381.792 389.21 384 400 384c44.188 0 80-35.812 80-80s-35.812-80-80-80c-17.125 0-32.916 5.5-45.938 14.667z"/><glyph unicode="" d="M400 416c-5.312 0-10.562-.375-15.792-1.125C354.334 455.583 307.188 480 256 480s-98.312-24.417-128.208-65.125c-5.23.75-10.48 1.125-15.792 1.125C50.25 416 0 365.75 0 304s50.25-112 112-112c13.688 0 27.084 2.5 39.71 7.333C180.665 174.083 217.5 160 256 160c38.542 0 75.333 14.083 104.29 39.333C372.917 194.5 386.313 192 400 192c61.75 0 112 50.25 112 112s-50.25 112-112 112zm0-192c-9.71 0-19.21 1.75-28.25 5.208l-18 6.917-14.5-12.667C316 203.168 286.438 192 256 192s-60 11.167-83.25 31.458l-14.5 12.667-18-6.917c-9-3.458-18.54-5.208-28.25-5.208-44.125 0-80 35.896-80 80s35.875 80 80 80c3.792 0 7.5-.27 11.25-.792l18.958-2.75 11.354 15.458C177.875 429.02 215.21 448 256 448c40.812 0 78.125-18.958 102.417-52.063l11.375-15.48 19 2.75c3.708.522 7.416.793 11.208.793 44.125 0 80-35.896 80-80s-35.875-80-80-80zM96 160c-17.688 0-32-14.312-32-32s14.312-32 32-32 32 14.312 32 32-14.312 32-32 32zm160-32c-17.688 0-32-14.312-32-32s14.312-32 32-32 32 14.312 32 32-14.312 32-32 32zm160 32c-17.688 0-32-14.312-32-32s14.312-32 32-32 32 14.312 32 32-14.312 32-32 32zM352 32c-17.688 0-32-14.312-32-32s14.312-32 32-32 32 14.312 32 32-14.312 32-32 32zm-192 0c-17.688 0-32-14.312-32-32s14.312-32 32-32 32 14.312 32 32-14.312 32-32 32z"/><glyph unicode="" d="M512 240c0 49.166-40 89.145-89.167 89.145-2.396 0-4.77-.104-7.146-.29-23.125 28.853-57.98 45.977-95.688 45.977-37.69 0-72.563-17.124-95.69-45.98-2.374.19-4.77.292-7.187.292C168 329.144 128 289.166 128 240c0-5.147.688-10.105 1.5-15.043-.542-.708-1.188-1.354-1.708-2.083-5.23.75-10.48 1.125-15.792 1.125C50.25 224 0 173.75 0 112S50.25 0 112 0c13.688 0 27.084 2.5 39.71 7.333C180.665-17.917 217.5-32 256-32c38.542 0 75.333 14.083 104.29 39.333C372.917 2.5 386.313 0 400 0c61.75 0 112 50.25 112 112 0 25.688-9.042 49.083-23.666 68C502.916 195.894 512 216.83 512 240zM400 32c-17.125 0-32.916 5.5-45.938 14.666C330.582 18.376 295.624 0 256 0c-39.625 0-74.584 18.375-98.062 46.666C144.938 37.5 129.126 32 112 32c-44.188 0-80 35.812-80 80s35.812 80 80 80c10.812 0 21.062-2.19 30.438-6.063.562 1.062 1.25 2 1.812 3.02 5.625 10.272 12.562 19.69 20.666 28.043C188 240.916 220.083 256 256 256c49.71 0 92.334-28.666 113.54-70.062 5.647 2.312 11.67 3.813 17.876 4.812L400 192c12.334 0 23.875-3.042 34.312-8 11.312-5.416 21.02-13.374 28.646-23.188C473.458 147.292 480 130.458 480 112c0-44.188-35.812-80-80-80zm65.562 170.375C447.082 215.833 424.562 224 400 224c-5.312 0-10.562-.376-15.792-1.126C354.334 263.582 307.188 288 256 288c-34.125 0-66.312-11.043-92.938-30.335 7.48 22.854 28.73 39.48 54.062 39.48 7.75 0 15.062-1.563 21.75-4.333 15.188 29.562 45.625 50.02 81.125 50.02s65.957-20.457 81.083-50.02c6.73 2.77 14.083 4.332 21.75 4.332 31.583 0 57.166-25.583 57.166-57.146 0-14.478-5.562-27.54-14.438-37.623z"/><glyph unicode="" d="M512 345.167c0 49.146-40 89.124-89.167 89.124-2.396 0-4.77-.082-7.146-.27C392.562 462.855 357.71 480 320 480c-37.688 0-72.562-17.146-95.688-45.98-2.375.188-4.77.27-7.188.27C168 434.29 128 394.313 128 345.168c0-5.146.688-10.125 1.5-15.042-.542-.708-1.188-1.354-1.708-2.083-5.23.75-10.48 1.125-15.792 1.125-61.75 0-112-50.25-112-112s50.25-112 112-112c13.688 0 27.084 2.5 39.71 7.333 18.353-16 40.103-26.938 63.206-33.208L192 64l32-32-32-64 96 64-32 32 4.812 9.583c36.75 1.125 71.75 14.73 99.48 38.917 12.624-4.834 26.02-7.333 39.708-7.333 61.75 0 112 50.25 112 112 0 25.666-9.042 49.083-23.666 68 14.582 15.875 23.666 36.812 23.666 60zm-112-208c-17.125 0-32.916 5.5-45.938 14.646-19-22.896-45.75-38.73-76.23-44.125l-23.77-2.312C215.25 106 181 124 157.938 151.812c-13-9.146-28.812-14.646-45.938-14.646-44.188 0-80 35.79-80 80 0 44.167 35.812 80 80 80 10.812 0 21.062-2.21 30.438-6.083.562 1.083 1.25 2 1.812 3.042 5.625 10.27 12.562 19.667 20.666 28.042 23.084 23.896 55.167 39 91.084 39 49.71 0 92.334-28.667 113.54-70.083 5.647 2.333 11.67 3.833 17.876 4.833l12.584 1.25c12.334 0 23.875-3.042 34.312-8 11.312-5.417 21.02-13.375 28.646-23.208 10.5-13.522 17.042-30.335 17.042-48.793 0-44.21-35.812-80-80-80zm65.562 170.375c-18.48 13.438-41 21.625-65.562 21.625-5.312 0-10.562-.375-15.792-1.125-29.874 40.687-77.02 65.125-128.208 65.125-34.125 0-66.312-11.062-92.938-30.354 7.48 22.853 28.73 39.478 54.062 39.478 7.75 0 15.062-1.56 21.75-4.332C254.062 427.542 284.5 448 320 448s65.958-20.458 81.084-50.042c6.73 2.77 14.083 4.333 21.75 4.333 31.583 0 57.166-25.582 57.166-57.123 0-14.5-5.562-27.563-14.438-37.625z"/><glyph unicode="" d="M192 96l32-32-32-96 96 96-32 32 32 64-96-64zm320 249.167c0 49.146-40 89.124-89.167 89.124-2.396 0-4.77-.082-7.146-.27C392.562 462.855 357.71 480 320 480c-37.688 0-72.562-17.146-95.688-45.98-2.375.188-4.77.27-7.188.27C168 434.29 128 394.313 128 345.168c0-5.146.688-10.125 1.5-15.042-.542-.708-1.188-1.354-1.708-2.083-5.23.75-10.48 1.125-15.792 1.125-61.75 0-112-50.25-112-112s50.25-112 112-112c13.688 0 27.084 2.5 39.71 7.333 1.103-.96 2.415-1.625 3.54-2.562l28.312 18.875c-9.438 6.688-18.25 14.125-25.625 23-13-9.146-28.812-14.646-45.938-14.646-44.19 0-80 35.79-80 80 0 44.167 35.81 80 80 80 10.81 0 21.06-2.21 30.437-6.083.562 1.083 1.25 2 1.812 3.042 5.624 10.27 12.56 19.667 20.665 28.042 23.084 23.896 55.167 39 91.084 39 49.708 0 92.333-28.667 113.54-70.083 5.646 2.333 11.668 3.833 17.875 4.833l12.584 1.25c12.333 0 23.874-3.042 34.31-8 11.313-5.417 21.022-13.375 28.647-23.208 10.5-13.52 17.042-30.334 17.042-48.792 0-44.21-35.813-80-80-80-17.126 0-32.917 5.5-45.94 14.646-14-16.875-32.437-29.562-53.145-37.562l-5.98-11.938 18.25-18.25c17.063 6.646 33.022 16.188 47.105 28.438 12.625-4.834 26.02-7.333 39.71-7.333 61.75 0 112 50.248 112 112 0 25.665-9.043 49.082-23.667 68C502.916 301.04 512 321.98 512 345.166zm-46.438-37.625c-18.48 13.438-41 21.625-65.562 21.625-5.312 0-10.562-.375-15.792-1.125-29.874 40.687-77.02 65.125-128.208 65.125-34.125 0-66.312-11.062-92.938-30.354 7.48 22.853 28.73 39.478 54.062 39.478 7.75 0 15.062-1.56 21.75-4.332C254.062 427.542 284.5 448 320 448s65.958-20.458 81.084-50.042c6.73 2.77 14.083 4.333 21.75 4.333 31.583 0 57.166-25.582 57.166-57.123 0-14.5-5.562-27.563-14.438-37.625z"/><glyph unicode="" d="M256 336c-61.75 0-112-50.25-112-112s50.25-112 112-112 112 50.25 112 112-50.25 112-112 112zm0 32c8.833 0 16 7.146 16 16v32c0 8.833-7.167 16-16 16-8.854 0-16-7.167-16-16v-32c0-8.854 7.146-16 16-16zm0-288c-8.854 0-16-7.167-16-16V32c0-8.854 7.146-16 16-16 8.833 0 16 7.146 16 16v32c0 8.833-7.167 16-16 16zm124.417 245.833l22.625 22.625c6.25 6.25 6.25 16.375 0 22.625s-16.375 6.25-22.625 0l-22.625-22.625c-6.25-6.25-6.25-16.375 0-22.625s16.374-6.25 22.625 0zM131.54 122.146L108.92 99.52c-6.252-6.25-6.252-16.375 0-22.624 6.25-6.25 16.373-6.25 22.623 0l22.626 22.625c6.25 6.292 6.25 16.376 0 22.626s-16.374 6.292-22.625 0zM112 224c0 8.833-7.167 16-16 16H64c-8.854 0-16-7.167-16-16 0-8.854 7.146-16 16-16h32c8.833 0 16 7.146 16 16zm336 16h-32c-8.854 0-16-7.167-16-16 0-8.854 7.146-16 16-16h32c8.833 0 16 7.146 16 16 0 8.833-7.167 16-16 16zm-316.48 85.833c6.25-6.25 16.376-6.25 22.626 0s6.25 16.375 0 22.625l-22.625 22.625c-6.25 6.25-16.375 6.25-22.624 0-6.25-6.25-6.25-16.375 0-22.625l22.625-22.625zm248.94-203.645c-6.294 6.25-16.377 6.25-22.626 0-6.25-6.25-6.293-16.375 0-22.625l22.625-22.625c6.248-6.25 16.373-6.25 22.624 0 6.25 6.25 6.25 16.376 0 22.625l-22.625 22.625z"/><glyph unicode="" d="M248.082 216.068c-31.52 31.542-39.98 77.105-26.02 116.542-15.25-5.395-29.668-13.833-41.854-26.02-43.75-43.75-43.75-114.667 0-158.395 43.73-43.73 114.625-43.752 158.374 0 12.23 12.186 20.646 26.604 26.02 41.854-39.414-13.96-84.998-5.5-116.52 26.018z"/><glyph unicode="" d="M208 416c8.833 0 16 7.167 16 16v32c0 8.833-7.167 16-16 16s-16-7.167-16-16v-32c0-8.833 7.167-16 16-16zm124.438-42.167l22.625 22.625c6.25 6.25 6.25 16.375 0 22.625s-16.375 6.25-22.625 0l-22.625-22.625c-6.25-6.25-6.25-16.375 0-22.625s16.375-6.25 22.625 0zM16 256h32c8.833 0 16 7.167 16 16s-7.167 16-16 16H16c-8.833 0-16-7.167-16-16s7.167-16 16-16zm336 16c0-8.833 7.167-16 16-16h32c8.833 0 16 7.167 16 16s-7.167 16-16 16h-32c-8.833 0-16-7.167-16-16zM83.54 373.833c6.252-6.25 16.377-6.25 22.626 0 6.25 6.25 6.25 16.375 0 22.625L83.54 419.083c-6.25 6.25-16.373 6.25-22.624 0-6.25-6.25-6.25-16.375 0-22.625l22.625-22.625zM400 224c-5.312 0-10.562-.375-15.792-1.125-16.77 22.875-39.124 40.333-64.458 51.5C318.46 335 268.938 384 208 384c-61.75 0-112-50.25-112-112 0-17.438 4.334-33.75 11.5-48.438C47.875 221.125 0 172.188 0 112 0 50.25 50.25 0 112 0c13.688 0 27.084 2.5 39.71 7.333C180.665-17.917 217.5-32 256-32c38.542 0 75.333 14.083 104.29 39.333C372.917 2.5 386.313 0 400 0c61.75 0 112 50.25 112 112s-50.25 112-112 112zm-144 64c-45.938 0-88.5-19.812-118.375-53.25C131.688 245.917 128 258.458 128 272c0 44.188 35.812 80 80 80 39.812 0 72.562-29.167 78.708-67.25-10.02 2-20.25 3.25-30.708 3.25z"/><glyph unicode="" d="M435.062 217.834c4.875 3.625 9.812 7.187 14.23 11.604 13.207 13.23 23.27 29.333 29.79 47.854 2.084 5.792.605 12.292-3.77 16.625-4.355 4.375-10.813 5.854-16.624 3.792-35.396-12.5-73.688-4-99.896 22.25-26.25 26.25-34.79 64.52-22.25 99.895 2.043 5.812.584 12.27-3.79 16.646-4.334 4.334-10.813 5.834-16.626 3.792-18.542-6.583-34.625-16.625-47.834-29.833-33.54-33.5-43.98-81-32.48-123.793-43.25-5.52-82.124-28.5-108.02-63.792-5.23.75-10.48 1.125-15.792 1.125C50.25 224 0 173.75 0 112S50.25 0 112 0c13.688 0 27.084 2.5 39.71 7.334C180.664-17.916 217.5-32 256-32c38.54 0 75.332 14.084 104.29 39.334C372.915 2.5 386.31 0 400 0c61.75 0 112 50.25 112 112 0 49.438-32.417 91.02-76.938 105.834zm-144.146 170c2.542 2.582 5.27 4.978 8.146 7.228-2.25-35.98 10.73-71.375 37.104-97.73 26.376-26.374 61.77-39.332 97.75-37.103-13.79-17.585-32.79-28.522-53.125-33.19-27.374 34.75-67.603 56.625-111.957 60.188-12.27 33.96-5.083 73.44 22.083 100.605z"/><glyph unicode="" d="M400 320c-5.312 0-10.562-.375-15.792-1.125C354.334 359.583 307.188 384 256 384s-98.312-24.417-128.208-65.125c-5.23.75-10.48 1.125-15.792 1.125C50.25 320 0 269.75 0 208S50.25 96 112 96c13.688 0 27.084 2.5 39.71 7.333C180.665 78.083 217.5 64 256 64c38.542 0 75.333 14.083 104.29 39.333C372.917 98.5 386.313 96 400 96c61.75 0 112 50.25 112 112s-50.25 112-112 112z"/><glyph unicode="" d="M400 416c-5.312 0-10.562-.375-15.792-1.125C354.334 455.583 307.188 480 256 480s-98.312-24.417-128.208-65.125c-5.23.75-10.48 1.125-15.792 1.125C50.25 416 0 365.75 0 304s50.25-112 112-112c13.688 0 27.084 2.5 39.71 7.333 21.54-18.77 47.415-31.29 75.103-36.52L192 128l32-32-32-96 96 96-32 32 11 33c34.458 2.437 67.125 15.542 93.29 38.333C372.917 194.5 386.313 192 400 192c61.75 0 112 50.25 112 112s-50.25 112-112 112z"/><glyph unicode="" d="M400 384c-5.312 0-10.562-.375-15.792-1.125C354.334 423.583 307.188 448 256 448s-98.312-24.417-128.208-65.125c-5.23.75-10.48 1.125-15.792 1.125C50.25 384 0 333.75 0 272s50.25-112 112-112c13.688 0 27.084 2.5 39.71 7.333C180.665 142.083 217.5 128 256 128c38.542 0 75.333 14.083 104.29 39.333C372.917 162.5 386.313 160 400 160c61.75 0 112 50.25 112 112s-50.25 112-112 112zM224 32c0-17.688 14.312-32 32-32s32 14.312 32 32-32 64-32 64-32-46.312-32-64z"/><glyph unicode="" d="M400 416c-5.312 0-10.562-.375-15.792-1.125C354.334 455.583 307.188 480 256 480s-98.312-24.417-128.208-65.125c-5.23.75-10.48 1.125-15.792 1.125C50.25 416 0 365.75 0 304s50.25-112 112-112c13.688 0 27.084 2.5 39.71 7.333C180.665 174.083 217.5 160 256 160c38.542 0 75.333 14.083 104.29 39.333C372.917 194.5 386.313 192 400 192c61.75 0 112 50.25 112 112s-50.25 112-112 112zM225 0c0-17.688 14.312-32 32-32s32 14.312 32 32-32 64-32 64-32-46.312-32-64zm127 32c0-17.688 14.312-32 32-32s32 14.312 32 32-32 64-32 64-32-46.312-32-64zM96 96c0-17.688 14.312-32 32-32s32 14.312 32 32-32 64-32 64-32-46.312-32-64z"/><glyph unicode="" d="M417.042 313.917c-23.98 24.542-57.125 38.77-91.73 38.77-34.562 0-67.688-14.228-91.687-38.77-52.812-2.46-95-46.188-95-99.584 0-54.958 44.71-99.666 99.688-99.666 5.812 0 11.604.5 17.25 1.5 20.75-13.542 44.938-20.855 69.75-20.855 24.853 0 49.062 7.313 69.77 20.854 5.708-1 11.46-1.5 17.292-1.5 54.937 0 99.625 44.71 99.625 99.667 0 53.396-42.188 97.125-94.958 99.584zM144 128H16c-8.833 0-16-7.167-16-16s7.167-16 16-16h128c8.833 0 16 7.167 16 16s-7.167 16-16 16zM16 160h64c8.833 0 16 7.167 16 16s-7.167 16-16 16H16c-8.833 0-16-7.167-16-16s7.167-16 16-16zm32 64h64c8.833 0 16 7.167 16 16s-7.167 16-16 16H48c-8.833 0-16-7.167-16-16s7.167-16 16-16z"/><glyph unicode="" d="M417.042 409.208C393.062 433.77 359.917 448 325.312 448c-34.562 0-67.688-14.23-91.665-38.792-52.813-2.438-95.02-46.167-95.02-99.542 0-54.978 44.708-99.708 99.687-99.708 5.834 0 11.604.5 17.27 1.5 20.73-13.52 44.918-20.833 69.73-20.833 24.854 0 49.063 7.312 69.772 20.833 5.707-1 11.458-1.5 17.29-1.5 54.938 0 99.626 44.73 99.626 99.708-.002 53.376-42.19 97.126-94.96 99.542zM144 223.312H16c-8.833 0-16-7.146-16-16 0-8.853 7.167-16 16-16h128c8.833 0 16 7.147 16 16 0 8.854-7.167 16-16 16zm-128 32h64c8.833 0 16 7.146 16 16s-7.167 16-16 16H16c-8.833 0-16-7.146-16-16s7.167-16 16-16zm32 64h64c8.833 0 16 7.146 16 16s-7.167 16-16 16H48c-8.833 0-16-7.146-16-16s7.167-16 16-16zM224 96c0-17.688 14.312-32 32-32s32 14.312 32 32-32 64-32 64-32-46.312-32-64zm128-64c0-17.688 14.312-32 32-32s32 14.312 32 32-32 64-32 64-32-46.312-32-64z"/><glyph unicode="" d="M326.042 36.312l-18 10.376c.542 3.124.957 6.31.957 9.624 0 3.312-.416 6.5-1 9.625l18.042 10.396c8.417 4.917 11.29 15.73 6.458 24.104-4.876 8.48-15.667 11.375-24.125 6.5l-18.188-10.5c-4.876 4.146-10.375 7.396-16.5 9.604v20.897c0 9.77-7.938 17.688-17.688 17.688s-17.668-7.917-17.668-17.688v-20.875c-6.125-2.188-11.646-5.48-16.52-9.625l-18.147 10.5c-8.48 4.875-19.29 2-24.166-6.48-4.876-8.416-1.94-19.25 6.5-24.125l17.958-10.375c-.584-3.146-.96-6.334-.96-9.646 0-3.312.376-6.5.96-9.623L186 36.312c-8.46-4.875-11.375-15.75-6.5-24.188S195.188.812 203.625 5.686l18.167 10.438c4.874-4.125 10.396-7.375 16.54-9.562v-20.938C238.333-24.126 246.25-32 256-32s17.688 7.875 17.688 17.624V6.562c6.125 2.188 11.688 5.438 16.52 9.625l18.168-10.5c8.458-4.875 19.25-2 24.125 6.438 4.875 8.437 2 19.25-6.458 24.187zM256 38.625c-9.75 0-17.688 7.938-17.688 17.688S246.25 73.96 256 73.96s17.666-7.897 17.666-17.647S265.75 38.625 256 38.625zM400 416c-5.312 0-10.562-.375-15.792-1.125C354.333 455.583 307.188 480 256 480s-98.312-24.417-128.208-65.125c-5.23.75-10.48 1.125-15.792 1.125C50.25 416 0 365.75 0 304s50.25-112 112-112c13.688 0 27.084 2.5 39.71 7.333C180.665 174.083 217.5 160 256 160c38.542 0 75.333 14.083 104.29 39.333C372.917 194.5 386.313 192 400 192c61.75 0 112 50.25 112 112s-50.25 112-112 112z"/><glyph unicode="" d="M326.042 36.312l-18 10.376c.542 3.124.958 6.31.958 9.624 0 3.312-.416 6.5-1 9.625l18.042 10.396c8.417 4.917 11.29 15.73 6.458 24.104-4.876 8.48-15.667 11.375-24.125 6.5l-18.188-10.5c-4.876 4.146-10.375 7.396-16.5 9.604v20.897c0 9.77-7.938 17.688-17.688 17.688s-17.667-7.917-17.667-17.688v-20.875c-6.126-2.188-11.646-5.48-16.52-9.625l-18.147 10.5c-8.48 4.875-19.292 2-24.167-6.48-4.876-8.416-1.94-19.25 6.5-24.125l17.958-10.375c-.584-3.146-.96-6.334-.96-9.646 0-3.312.376-6.5.96-9.623L186 36.312c-8.46-4.875-11.375-15.75-6.5-24.188S195.188.812 203.625 5.686l18.167 10.438c4.874-4.125 10.396-7.375 16.542-9.562v-20.938C238.334-24.126 246.25-32 256-32s17.688 7.875 17.688 17.624V6.562c6.125 2.188 11.688 5.438 16.52 9.625l18.168-10.5c8.458-4.875 19.25-2 24.125 6.438 4.875 8.437 2 19.25-6.458 24.187zM256 38.625c-9.75 0-17.688 7.938-17.688 17.688S246.25 73.96 256 73.96s17.667-7.897 17.667-17.647S265.75 38.625 256 38.625zM474.166 83.75l-12.083 3.208c-.29 3.833-1.208 7.48-2.896 10.98l8.77 8.77c4.126 4.125 4.105 10.792 0 14.854-4.082 4.104-10.707 4.125-14.832 0l-8.79-8.75c-3.46 1.625-7.147 2.562-10.96 2.875l-3.21 12.062c-1.498 5.582-7.25 8.937-12.873 7.437-5.604-1.52-8.875-7.27-7.417-12.875l3.21-11.896c-1.585-1.084-3.085-2.292-4.5-3.667-1.376-1.418-2.543-2.917-3.627-4.46l-11.896 3.21c-5.604 1.498-11.396-1.877-12.896-7.44-1.5-5.624 1.876-11.353 7.417-12.874l12-3.23c.334-3.77 1.292-7.457 2.98-10.958l-8.813-8.812c-4.083-4.104-4.062-10.73.042-14.812 4.083-4.083 10.708-4.125 14.792-.042l8.832 8.833c3.46-1.707 7.168-2.666 11-2.957l3.167-12.02c1.542-5.605 7.25-8.94 12.876-7.44 5.582 1.5 8.956 7.25 7.457 12.918l-3.21 11.896c1.5 1.062 3.043 2.25 4.46 3.625 1.375 1.396 2.542 2.938 3.624 4.48l11.918-3.21c5.604-1.5 11.375 1.854 12.854 7.417 1.5 5.585-1.812 11.334-7.396 12.876zm-35.854-6.688c-4.125-4.125-10.77-4.104-14.875 0-4.062 4.062-4.104 10.73 0 14.854 4.104 4.083 10.77 4.083 14.875 0 4.063-4.104 4.063-10.79 0-14.854zM118.938 137.5l-11.875-3.188c-1.104 1.5-2.25 3.02-3.646 4.438-1.416 1.375-2.916 2.562-4.48 3.625l3.19 11.938c1.5 5.604-1.835 11.375-7.376 12.854-5.624 1.5-11.374-1.834-12.874-7.417l-3.25-12.062c-3.812-.312-7.458-1.25-10.938-2.896l-8.812 8.77c-4.125 4.126-10.75 4.105-14.834 0-4.104-4.103-4.104-10.75 0-14.853l8.77-8.772c-1.645-3.5-2.603-7.188-2.895-10.98l-12.042-3.207c-5.625-1.54-8.96-7.25-7.458-12.874 1.52-5.583 7.27-8.875 12.896-7.417l11.875 3.23c1.062-1.605 2.25-3.106 3.688-4.502 1.375-1.375 2.875-2.604 4.438-3.625l-3.188-11.896c-1.5-5.625 1.834-11.417 7.416-12.917 5.626-1.5 11.334 1.833 12.834 7.438l3.25 12c3.812.312 7.5 1.27 11 2.938l8.79-8.792c4.085-4.124 10.71-4.04 14.835.042 4.063 4.062 4.126 10.708 0 14.812L109.44 103c1.687 3.46 2.687 7.188 2.937 11l12.062 3.19c5.56 1.52 8.895 7.25 7.395 12.874-1.5 5.56-7.25 8.894-12.897 7.436zm-30.376-28.458c-4.104-4.104-10.75-4.104-14.875 0-4.062 4.083-4.062 10.77 0 14.833 4.125 4.083 10.77 4.083 14.875 0s4.063-10.75 0-14.833zM512 304c0 61.75-50.25 112-112 112-5.312 0-10.562-.375-15.792-1.125C354.334 455.583 307.188 480 256 480s-98.312-24.417-128.208-65.125c-5.23.75-10.48 1.125-15.792 1.125C50.25 416 0 365.75 0 304s50.25-112 112-112c13.688 0 27.084 2.5 39.71 7.333C180.665 174.083 217.5 160 256 160c38.542 0 75.333 14.083 104.29 39.333C372.917 194.5 386.313 192 400 192c61.75 0 112 50.25 112 112z"/><glyph unicode="" d="M400 416c-5.312 0-10.562-.375-15.792-1.125C354.334 455.583 307.188 480 256 480s-98.312-24.417-128.208-65.125c-5.23.75-10.48 1.125-15.792 1.125C50.25 416 0 365.75 0 304s50.25-112 112-112c13.688 0 27.084 2.5 39.71 7.333C180.665 174.083 217.5 160 256 160c38.542 0 75.333 14.083 104.29 39.333C372.917 194.5 386.313 192 400 192c61.75 0 112 50.25 112 112s-50.25 112-112 112zM96 160c-17.688 0-32-14.312-32-32s14.312-32 32-32 32 14.312 32 32-14.312 32-32 32zm160-32c-17.688 0-32-14.312-32-32s14.312-32 32-32 32 14.312 32 32-14.312 32-32 32zm160 32c-17.688 0-32-14.312-32-32s14.312-32 32-32 32 14.312 32 32-14.312 32-32 32zM352 32c-17.688 0-32-14.312-32-32s14.312-32 32-32 32 14.312 32 32-14.312 32-32 32zm-192 0c-17.688 0-32-14.312-32-32s14.312-32 32-32 32 14.312 32 32-14.312 32-32 32z"/><glyph unicode="" d="M488.334 232.583c14.624-18.916 23.666-42.312 23.666-68 0-61.75-50.25-112-112-112-13.688 0-27.084 2.5-39.71 7.333-28.957-25.25-65.748-39.333-104.29-39.333-38.5 0-75.334 14.084-104.29 39.333-12.626-4.833-26.022-7.333-39.71-7.333-61.75 0-112 50.25-112 112s50.25 112 112 112c5.312 0 10.562-.375 15.792-1.125.52.73 1.166 1.375 1.708 2.083-.812 4.94-1.5 9.897-1.5 15.042 0 49.167 40 89.146 89.125 89.146 2.416 0 4.812-.104 7.188-.292 23.125 28.854 58 45.98 95.688 45.98 37.71 0 72.563-17.126 95.69-45.98 2.374.188 4.75.292 7.145.292C472 381.728 512 341.75 512 292.583c0-23.166-9.084-44.104-23.666-60z"/><glyph unicode="" d="M512 345.167c0 49.146-40 89.124-89.167 89.124-2.396 0-4.77-.082-7.146-.27C392.562 462.855 357.71 480 320 480c-37.688 0-72.562-17.146-95.688-45.98-2.375.188-4.77.27-7.188.27C168 434.29 128 394.313 128 345.168c0-5.146.688-10.125 1.5-15.042-.542-.708-1.188-1.354-1.708-2.083-5.23.75-10.48 1.125-15.792 1.125-61.75 0-112-50.25-112-112s50.25-112 112-112c13.688 0 27.084 2.5 39.71 7.333 18.353-16 40.103-26.938 63.206-33.208L192 64l32-32-32-64 96 64-32 32 4.812 9.583c36.75 1.125 71.75 14.73 99.48 38.917 12.624-4.834 26.02-7.333 39.708-7.333 61.75 0 112 50.25 112 112 0 25.666-9.042 49.083-23.666 68 14.582 15.875 23.666 36.812 23.666 60z"/><glyph unicode="" d="M288 119.125v293.958C288 432.375 273.666 448 256 448c-17.667 0-32-15.625-32-34.917V119.125c-19.042-11.083-32-31.5-32-55.125 0-35.333 28.666-64 64-64 35.333 0 64 28.667 64 64 0 23.624-12.938 44.042-32 55.125z"/><glyph unicode="" d="M256 480C114.604 480 0 365.396 0 224 0 82.625 114.604-32 256-32c141.375 0 256 114.625 256 256 0 141.396-114.625 256-256 256zm0-448C150.125 32 64 118.125 64 224s86.125 192 192 192 192-86.125 192-192S361.875 32 256 32zm-96 96l128 64 64 128-128-64-64-128z"/><glyph unicode="" d="M159.094 201.354h-1.042l-33.52 51.188-40.94 60.437h-31.75V136.583h35.063v111.104h1.52l29.105-44.542 44.688-66.562h31.938V312.98h-35.062V201.353zm47.375-75.52h25.833l64.79 196.332H270.97l-64.5-196.332zM398.72 312.98h-35.834l-61.98-176.396h37.376l11.52 36.375h61.46l10.75-36.376h38.145L398.72 312.98zm-39.44-110.605l7.147 23.292L380.03 271.5h1l13.855-46.605 6.896-22.52h-42.5z"/><glyph unicode="" d="M209.167 303.625c-3.604 3.396-7.792 6.083-12.542 8.062-4.812 1.938-9.938 2.938-15.375 2.938-5.458 0-10.584-1-15.375-2.938-4.75-1.98-8.938-4.667-12.54-8.062-3.585-3.417-6.397-7.417-8.46-12.042-2.042-4.605-3.062-9.48-3.062-14.583 0-5.125 1.02-10 3.062-14.605 2.062-4.604 4.875-8.625 8.46-12.02 3.603-3.417 7.79-6.125 12.54-8.063 4.79-1.98 9.917-2.958 15.375-2.958 5.438 0 10.562.98 15.375 2.958 4.75 1.938 8.938 4.646 12.542 8.063 3.583 3.395 6.396 7.417 8.416 12.02 2.042 4.605 3.104 9.48 3.104 14.605 0 5.104-1.062 9.98-3.104 14.583-2.02 4.626-4.833 8.626-8.416 12.042zm-15.355-38.666c-3.438-3.418-7.625-5.126-12.562-5.126s-9.125 1.71-12.562 5.125c-3.396 3.416-5.125 7.416-5.125 12.04 0 4.75 1.73 8.834 5.125 12.146 3.438 3.333 7.625 4.98 12.562 4.98s9.125-1.647 12.562-4.98c3.375-3.312 5.104-7.395 5.104-12.145 0-4.625-1.728-8.625-5.104-12.04zm141.438-96.75c-6.062-1.73-12.083-2.584-18.062-2.584-3.938 0-7.812.604-11.646 1.79-3.854 1.21-7.354 3.084-10.5 5.646-3.166 2.563-5.73 5.834-7.666 9.854-1.96 4-2.958 8.917-2.958 14.71v51.457c0 5.792 1 10.75 2.958 14.854 1.937 4.083 4.46 7.417 7.54 9.98 3.085 2.56 6.543 4.395 10.5 5.5 3.918 1.104 7.835 1.666 11.772 1.666 5.98 0 12.124-.875 18.437-2.688 6.313-1.79 12.188-5 17.668-9.604l16.896 27.147c-6.855 5.958-14.98 10.312-24.48 13.062-9.46 2.707-19.292 4.082-29.543 4.082-8.354 0-16.583-1.208-24.583-3.584-8.02-2.396-15.146-5.98-21.375-10.75-6.21-4.792-11.272-10.708-15.084-17.79-3.875-7.085-5.79-15.334-5.79-24.71v-66.04c0-9.563 1.978-17.876 5.915-24.96 3.918-7.084 9.042-12.98 15.335-17.666 6.332-4.708 13.48-8.23 21.5-10.625 8.04-2.375 16.228-3.584 24.603-3.584 10.396 0 20.27 1.542 29.688 4.604 9.375 3.083 17.312 7.354 23.812 12.792l-16.646 27.145c-6.126-4.79-12.25-8.02-18.292-9.706z"/><glyph unicode="" d="M208.53 302.73c-3.603 3.395-7.79 6.083-12.54 8.06-4.812 1.94-9.938 2.94-15.375 2.94-5.46 0-10.584-1-15.375-2.94-4.75-1.978-8.938-4.666-12.542-8.06-3.583-3.417-6.396-7.417-8.46-12.042-2.04-4.605-3.06-9.48-3.06-14.584 0-5.125 1.02-10 3.06-14.604 2.064-4.604 4.877-8.625 8.46-12.02 3.604-3.417 7.792-6.126 12.542-8.063 4.79-1.98 9.916-2.958 15.375-2.958 5.438 0 10.562.978 15.375 2.957 4.75 1.938 8.938 4.646 12.54 8.062 3.585 3.395 6.397 7.416 8.417 12.02 2.042 4.604 3.105 9.48 3.105 14.604 0 5.104-1.063 9.98-3.105 14.584-2.02 4.625-4.832 8.625-8.416 12.04zm-15.353-38.667c-3.438-3.417-7.625-5.126-12.562-5.126s-9.125 1.71-12.562 5.126c-3.396 3.416-5.125 7.416-5.125 12.04 0 4.75 1.73 8.834 5.125 12.147 3.438 3.333 7.625 4.98 12.562 4.98s9.125-1.647 12.562-4.98c3.374-3.312 5.104-7.396 5.104-12.146 0-4.625-1.73-8.625-5.103-12.04zm177.645 15.104v31.5H249.24V134.27h35.063v71.94h73.98v31.478h-73.98v41.48h86.52z"/><glyph unicode="" d="M360.325 316.334l-10.7 140.483c-28.97 11.653-60.55 18.063-93.636 18.063-25.642 0-50.382-3.87-73.698-10.998l178.032-147.548zm36.72-97.71l89.53 104.366c-21.668 50.38-59.33 92.23-106.65 119.163l17.123-223.53zM258.172 363.15l-107.15 88.772c-49.705-22.938-90.614-61.645-116.368-109.7l223.518 20.93zM491.52 137.4c9.954 26.994 15.36 56.157 15.36 86.6 0 23.297-3.195 45.856-9.144 67.247l-143.872-167.71 137.656 13.865zm-338.494-6.973L164.68-9.738c28.282-11.07 59.074-17.142 91.31-17.142 26.255 0 51.558 4.024 75.355 11.51l-178.32 145.797zM20.85 311.634C10.68 284.364 5.12 254.822 5.12 224c0-23.317 3.184-45.895 9.124-67.35L161.73 324.834l-140.88-13.2zM255.436 84.347l107.07-87.542c49.316 23.163 89.866 61.9 115.303 109.885L255.438 84.346zM115.67 228.097L25.366 125.09C47.35 73.902 85.873 31.498 134.235 4.608l-18.564 223.488z"/><glyph unicode="" d="M417.3 82.212H13.58v361.383h403.706V82.212zM36.813 105.46h357.255v314.9H36.813v-314.9zM504.43 10.154l-193.473 35.13 87.975 58.254 12.85-19.405-39.736-26.286 109.124-19.84v287.28l-83.642 27.308 7.236 22.09 99.667-32.542zm-52.082 130.34c-2.917 0-5.274 2.318-5.3 5.234-.056 8.557-.437 16.938-1.12 24.896-.285 2.902 1.87 5.452 4.784 5.71s5.49-1.908 5.736-4.81c.72-8.232 1.09-16.898 1.185-25.73.014-2.916-2.317-5.314-5.26-5.314h-.026zm-4.523 50.38c-2.507 0-4.716 1.784-5.205 4.306-1.526 8.353-3.502 16.434-5.846 24.01-.858 2.78.695 5.75 3.462 6.595 2.793.858 5.777-.708 6.65-3.473 2.454-7.957 4.525-16.434 6.12-25.21.56-2.862-1.363-5.627-4.24-6.144-.3-.055-.613-.082-.94-.082zm-15.14 48.198c-1.99 0-3.856 1.12-4.757 3.012-3.612 7.535-7.712 14.608-12.25 21.15-1.676 2.37-1.09 5.668 1.307 7.344 2.384 1.664 5.67 1.09 7.345-1.308 4.906-6.976 9.32-14.594 13.123-22.66 1.267-2.63.163-5.78-2.48-7.032-.748-.34-1.54-.505-2.288-.505zm-28.997 41.206c-1.35 0-2.67.505-3.707 1.513-5.75 5.656-12.113 10.807-18.9 15.304-2.424 1.62-3.078 4.878-1.484 7.317 1.62 2.454 4.918 3.094 7.345 1.472 7.318-4.852 14.214-10.452 20.44-16.543 2.1-2.046 2.127-5.398.083-7.483-1.022-1.05-2.425-1.582-3.774-1.582zm-41.93 27.99c-.722 0-1.42.163-2.127.45-7.316 3.16-15.124 5.832-23.204 7.877-2.808.71-4.553 3.584-3.8 6.406.72 2.85 3.597 4.554 6.417 3.842 8.626-2.194 16.98-5.03 24.814-8.422 2.685-1.173 3.897-4.28 2.74-6.963-.874-1.99-2.81-3.19-4.838-3.19zm-49.03 12.537c-.177 0-.353 0-.545.026-5.505.56-10.93.86-16.162.86-5.11 0-8.134-.302-8.175-.302-2.89-.274-5.478 1.868-5.75 4.783-.287 2.89 1.824 5.464 4.715 5.752.137.014 3.516.34 9.212.34 5.56 0 11.365-.285 17.238-.898 2.902-.286 4.988-2.875 4.728-5.792-.286-2.725-2.59-4.77-5.26-4.77zm160.73-217.512c0-13.41-10.89-24.297-24.325-24.297s-24.297 10.89-24.297 24.297c0 13.423 10.86 24.31 24.297 24.31s24.324-10.89 24.324-24.31zm-176.674 19.54l-17.743 30.7-19.417-9.333h-1.2c-.038 0-2.465 0-5.803-.423l3.83-20.673-48.47 4.852-33.794-4.66-8.994 17.742-9.934-8.68-36.71 37.528v7.155l-16.298-19.825-11.583 32.772 9.975 3.53 5.33-15.14 23.138 28.1v-32.283l26.71-27.294 12.63 11.038 11.733-23.125 27.607 3.8 35.702-3.597-3.19 17.088 4.99 1.13c5.082 1.118 9.714 1.418 11.868 1.485l26.122 12.55 18.505-31.996 18.397 5.34 19.61 1.554 5.885-2.943.394.477-4.797 11.502-20.426 4.28-20.208 17.278 3.734 22.457 23.998 12.412 9.076 5.505-6.445 12.59c-1.62 4.143-4.647 10.833-6.2 12.782-1.173 1.402-3.394 3.814-6.637 7.154-.082.11-.137.19-.245.274v.026c-3.612 4.02-.204 7.44-.055 7.59 1.13 1.12 3.284 2.44 6.213.72.532.778 1.064 1.69 1.42 2.4l.83 1.797 1.813.832c.83.368 1.744.845 2.534 1.322-2.644 3.038-7.508 8.053-11.802 12.21l-2.575 2.506 5.07 12.114 11.337 4.553c1.62 2.03 3.12 4.293 3.42 5.042-.15-.328-.327-1.54.313-2.864.545-1.143 1.553-2.03 2.752-2.44l3.325 10.03c1.84-.614 3.257-2.07 3.8-3.952.478-1.675 1.255-4.497-6.307-13.6l-.873-1.036-9.743-3.898-.585-1.418c12.617-12.467 13.284-14.827 13.626-16.01 1.43-5.084-3.325-8.9-8.245-11.392-.625-1.143-1.457-2.466-2.533-3.708.49-.53.954-1.063 1.336-1.526 3.066-3.748 6.813-12.933 7.767-15.344l10.56-20.604-17.906-10.942-19.486-10.07-1.894-11.35 13.613-11.624 23.248-4.863 9.294-22.32-9.446-12.21-11.038 5.505-15.617-1.254-25.306-7.33z"/><glyph unicode="" d="M245.332 99.36c-92.553 0-167.857 75.303-167.857 167.856 0 92.57 75.304 167.89 167.857 167.89 92.585 0 167.89-75.322 167.89-167.89 0-92.553-75.304-167.856-167.89-167.856zm0 313.452c-80.255 0-145.577-65.305-145.577-145.593 0-80.27 65.322-145.578 145.577-145.578 80.286 0 145.61 65.305 145.61 145.577 0 80.285-65.323 145.592-145.61 145.592zm6.34-360.758c-61.842 0-121.157 23.748-162.748 69.603l16.498 13.704c37.404-41.203 90.7-60.418 146.248-60.418 108.86 0 197.42 81.246 197.42 201.78h22.248c-.017-135.58-98.526-224.666-219.668-224.666zm219.65 224.682H449.09c0 67.813-47.355 145.897-120.598 176.866l8.64 23.047c81.55-34.482 134.19-132.114 134.19-199.91zM263.54 43.206h15.077V-2.01h-15.077v45.215zM150.525 13.052H384.09v-30.137H150.524v30.137zM191.43 338.77l60.36-60.352-24.292-24.294-60.36 60.35 24.293 24.295zm36.043.045l24.302-24.28-60.335-60.39-24.302 24.282 60.335 60.388z"/><glyph unicode="" d="M1479.383 186.563l-4.352-.993c-.214-.082-.388-.317-.337-.543.092-.266.318-.39.563-.338l4.322.972c.266.082.43.286.338.543-.02.236-.286.4-.533.358zm.47-2.755l-4.454-.266c-.216-.02-.43-.215-.42-.46.03-.267.225-.44.48-.41l4.445.246c.266.02.45.215.41.47.01.237-.206.45-.462.42zm.01-2.652l-4.433.46c-.226 0-.46-.163-.502-.388-.02-.246.174-.47.42-.48l4.434-.482c.236-.04.46.133.47.38.052.245-.132.48-.388.51zm-5.272-1.67c-.05-.246.083-.502.34-.574l4.29-1.168c.236-.072.482.062.533.307.102.227-.05.482-.286.564l-4.31 1.178c-.227.03-.483-.072-.564-.307zm-.573-1.648c-.112-.246 0-.502.226-.584l4.045-1.853c.215-.09.512-.02.604.216.112.215.01.48-.215.625l-4.075 1.823c-.205.072-.492 0-.583-.226zm-.84-1.495c-.132-.236-.07-.49.154-.625l3.718-2.447c.205-.143.492-.08.614.124.153.205.102.49-.123.635l-3.738 2.426c-.185.103-.492.072-.624-.113zm-1.044-1.352c-.143-.214-.143-.48.05-.624l3.33-3c.184-.174.45-.174.623.05.174.155.174.462-.03.636l-3.32 2.96c-.184.153-.47.153-.655-.022zm-1.198-1.156c-.185-.195-.226-.44-.062-.635l2.847-3.462c.143-.174.41-.215.594-.05.215.143.246.43.092.634l-2.836 3.42c-.174.185-.43.236-.635.092zm-1.382-.973c-.215-.143-.256-.388-.143-.624l2.274-3.83c.133-.205.39-.286.624-.154.215.113.276.39.153.625l-2.283 3.81c-.133.226-.38.307-.624.174zm-1.485-.725c-.215-.103-.338-.358-.215-.574l1.628-4.167c.103-.205.35-.327.564-.226.236.072.37.338.266.594l-1.65 4.128c-.1.205-.347.348-.593.246zm-1.556-.492c-.236-.05-.41-.276-.338-.543l.953-4.352c.072-.215.286-.39.533-.327.215.052.39.277.348.554l-.983 4.342c-.05.226-.276.38-.512.327zm205.916 157.44c.932.502 2.08 1.116 2.222 1.198l9.83 1.67c1.25-.45 2.09-.236 3.37.645.533.338 1.116.81 1.843 1.372 27.034 20.85 27.474 30.31 26.972 32.717l-1.075 5.14-4.362-2.927c-15.452-10.363-34.334-21.72-37.91-21.986-6.245 0-23.008-1.29-23.735-1.33l-.502-.082c-11.407-2.59-17.704-6.82-19.25-12.923-1.587-6.246 2.683-11.735 4.956-14.13-.645-14.122-10.148-26.174-13.148-29.626-14.387-1.158-22.22-10.088-25.323-15.34-27.648 8.888-56.474-8.51-61.993-8.51H1512.5l35.175 9.185c7.332 2.212 11.203 10.087 8.674 18.473-2.56 8.397-10.538 13.046-17.87 10.834l-79.176-24.166c-7.322-2.222-11.193-10.905-8.642-19.303 1.608-5.345 5.427-9.35 9.892-10.957-9.34-5.837-13.394-15.74-13.947-22.64-.39.255-2.765.5-2.765.757v.02c0 .205 1.566.482 1.392.625-.215.164.266.092.143-.113l.338-.06c-.645.368-1.127.737-1.853 1.094l.43.368c.123.195.174.47-.03.635-.186.164-.43.143-.595-.06l-.45-.543c-.727.358-1.475.686-2.233 1.004l1.127 1.075c.144.173.175.45 0 .634-.173.174-.47.185-.634 0l-1.413-1.34c-.84.326-1.7.613-2.6.88l2.63 2.09c.174.163.195.44.062.624-.164.205-.43.236-.624.06l-3.142-2.487c-2.795.708-5.785 1.035-8.786.656-6.37-.748-11.705-4.29-15.872-10.537-2.274-3.41-5.51-14.112-3.082-24.577 1.772-7.65 6.287-13.814 13.076-17.776l.502-5.488c.02-.287.112-.544.256-.78l2.427-1.73c.317-.543.9 1.382 1.504 1.382h.174l9.083-1.32 6.196.326c.543.133.994-.05 1.208.44l1.116 2.243-.112-.838 1.29-.266.953-6.062 1.28-.89c.462-.298 3.76-2.428 7.63-2.428 1.29 0 2.662.236 3.984.82 1.116.542 2.08 1.27 2.95 2.21l-.052-.357c-.04-.216.133-.462.38-.482.235-.05.46.144.51.41l.216 1.8c.45.677.87 1.434 1.218 2.275l.215-4.178c0-.215.206-.42.44-.4.247 0 .44.216.43.492l-.214 4.434c-.01.237-.215.44-.45.44-.05-.02-.112-.03-.164-.05.553 1.505.953 3.226 1.178 5.192l.215 1.792-4.455 4.116-.195 2.12c-.072 1.31.164 5.5 2.304 7.69.93.92 2.21 1.444 3.83 1.515 1.156-.91 3.225-2.386 5.908-3.85l-.36-.205c-.163-.154-.245-.42-.152-.625.153-.215.41-.276.635-.144l.81.492c.645-.338 1.34-.666 2.038-.993l-2.19-.892c-.196-.092-.32-.348-.237-.584.093-.226.36-.338.584-.226l3.02 1.198c.657-.256 1.352-.533 2.06-.768 3-5.458 8.764-14.366 17.17-20.675 7.087-5.315 18.545-6.533 27.557-6.533 1.834 0 3.534.05 5.11.123 2.305-.748 25.027-8.048 15.79 1.64-5.693 5.908-10.157 4.402-12.932 2.11-8.366-.626-24.873-.902-33.392 5.487-6.45 4.844-11.325 11.48-14.46 16.568 1.947-.338 3.974-.512 6.043-.41 11.805.605 20.838 3.278 21.206 3.4l35.266 15.913c10.875-5.334 34.284-24.042 34.284-24.042l8.848-9.462s16.527-9.76 16.527 13.885c0 5.316-9.44-2.968-9.44-2.968-2.355 6.502-10.64 7.394-10.64 7.394l-20.92 32.81 9.606 6.563c4.598 1.812 8.837 3.675 12.708 5.53 13.118 1.69 37.386 6.317 47.176 18 0 0 9.287 8.858 13.732 30.117 0 0 17.13 1.772 20.675 1.772 31.59 0 36.024 13.28 36.024 13.28l-4.433 15.943-15.647-12.994c-16.23-12.995-24.658 1.463-24.658 1.463l-9.103 2.806 8.08 19.168c4.658.676 9.37 3.216 12.573 4.935zm-232.192-155.136l-5.11-1.198-7.772-.77-1.628 2.684-.758 8.336 5.847 3.543 1.74-.103 6.217-2.724 2.683-7.045-1.218-2.723zm210.688 35.676c-4.096-2.12-14.448-2.846-18.483-5.6-10.106-60.59-60.486-108.924-124.395-113.634-74.998-5.51-140.534 51.025-146.043 126.023-5.53 75.008 50.995 140.534 126.014 146.053 38.482 2.826 74.455-10.7 101.12-34.673 6.82 4.495 10.71 12.36 15.923 19.015-31.428 27.955-73.668 43.715-118.856 40.387-88.648-6.523-155.454-83.947-148.92-172.595 6.523-88.647 83.938-155.443 172.585-148.92 79.267 5.816 141.055 68.402 148.54 144.967-4.515-.236-2.917-1.567-7.485-1.024zM76.288 61.41H13.486c-2.837.296-5.274 1.484-7.322 3.542-2.048 2.048-3.072 4.64-3.072 7.793V380.61c0 3.144 1.106 5.817 3.308 8.028 2.2 2.192 4.874 3.308 8.028 3.308h61.86c45.64 0 84.592-16.22 116.87-48.64 32.255-32.43 48.403-71.465 48.403-117.105 0-45.66-16.137-84.53-48.403-116.643-32.276-32.103-71.23-48.15-116.87-48.15zM26.235 84.55h50.053c39.342 0 72.868 13.855 100.567 41.555 27.7 27.7 41.554 61.154 41.554 100.342 0 39.198-13.856 72.632-41.555 100.342-27.71 27.698-61.225 41.706-100.567 42.024H26.235V84.552zM334.1 72.746V380.61c0 3.144 1.097 5.817 3.31 8.028 2.19 2.192 4.873 3.308 8.027 3.308 3.144 0 5.898-1.106 8.264-3.308 2.366-2.212 3.544-4.894 3.544-8.028V72.745c0-3.154-1.178-5.827-3.543-8.018-2.354-2.212-5.12-3.308-8.263-3.308-3.154 0-5.837 1.095-8.028 3.307-2.213 2.18-3.31 4.864-3.31 8.018zM586.24 62.36c-1.894-.644-3.707-.95-5.438-.95-1.72 0-2.908.296-3.533.95-2.838.943-4.722 2.817-5.664 5.664-.327 0-.47.317-.47.952l-.472.46-127.97 304.56c-1.27 2.825-1.27 5.744 0 8.734 1.26 2.99 3.31 5.12 6.135 6.38 2.836 1.25 5.744 1.33 8.744.236 2.99-1.106 5.11-3.062 6.37-5.91L581.99 102.022l118.518 281.417c.952 2.837 2.908 4.793 5.91 5.91 2.99 1.095 5.908 1.013 8.744-.237 2.826-1.26 4.874-3.39 6.134-6.38 1.26-2.99 1.26-5.91 0-8.734L593.326 71.793c-.635-4.71-2.826-7.865-6.615-9.43h-.47zm219.106 10.385V380.61c0 3.144 1.096 5.817 3.308 8.028 2.192 2.192 4.874 3.308 8.028 3.308h169.994c3.144 0 5.817-1.106 8.028-3.308 2.192-2.212 3.308-4.956 3.308-8.264s-1.106-6.072-3.308-8.264c-2.212-2.2-4.894-3.308-8.028-3.308H828.488V238.007H966.83c3.154 0 5.827-1.167 8.028-3.533 2.192-2.365 3.308-5.12 3.308-8.263 0-3.153-1.106-5.825-3.308-8.038-2.202-2.202-4.885-3.298-8.028-3.298H828.488V84.55h158.178c3.144 0 5.817-1.107 8.028-3.31 2.192-2.21 3.308-4.955 3.308-8.273 0-3.298-1.106-6.062-3.308-8.253-2.212-2.212-4.894-3.308-8.028-3.308H815.74c-2.837.297-5.284 1.485-7.322 3.543-2.058 2.047-3.072 4.638-3.072 7.792zm268.195 0V380.61c0 3.144 1.096 5.817 3.308 8.028 2.19 2.192 4.874 3.308 8.028 3.308h73.657c22.66 0 42.025-8.028 58.082-24.085s24.084-36.28 24.084-60.67c0-24.403-10.548-45.098-31.632-62.097 18.882-6.605 34.386-18.012 46.51-34.222s18.176-34.56 18.176-55.01c0-26.13-9.206-48.413-27.628-66.815-18.41-18.422-40.684-27.618-66.806-27.618h-94.915c-3.143 0-5.745 1.096-7.793 3.308-2.058 2.17-3.072 4.854-3.072 8.007zm23.144 178.012h61.85c16.363 0 30.29 5.734 41.8 17.234 11.49 11.49 17.234 25.335 17.234 41.555s-5.745 30.137-17.234 41.79c-11.5 11.643-25.426 17.48-41.8 17.48h-61.85V250.756zm0-166.206h82.627c19.508 0 36.2 6.913 50.054 20.778 13.854 13.844 20.93 30.68 21.248 50.524-.318 19.517-7.393 36.28-21.248 50.288-13.854 13.998-30.535 21.002-50.053 21.002h-82.626V84.55zm876.646-22.67l-4.26-.47c-5.345 0-8.96 2.518-10.854 7.556l-29.276 77.895h-150.63l-29.266-77.894c-1.895-5.038-5.52-7.557-10.864-7.557l-4.25.47c-2.825 1.26-4.955 3.38-6.38 6.37-1.412 2.99-1.494 5.898-.235 8.745l114.75 306.442c2.2 4.72 6.143 7.086 11.795 7.086s9.287-2.355 10.864-7.086l114.75-306.452c1.248-2.837 1.248-5.755 0-8.745-1.27-2.98-3.32-5.1-6.145-6.36zm-119.47 285.676l-67.052-177.552h133.642l-66.59 177.552zM2397.82 61.41h-62.792c-2.836.296-5.273 1.484-7.322 3.542-2.048 2.048-3.062 4.64-3.062 7.793V380.61c0 3.144 1.086 5.817 3.287 8.028 2.213 2.192 4.895 3.308 8.03 3.308h61.848c45.65 0 84.603-16.22 116.88-48.64 32.256-32.43 48.405-71.465 48.405-117.105 0-45.66-16.138-84.53-48.405-116.643-32.266-32.103-71.22-48.15-116.87-48.15zm-50.054 23.14h50.053c39.362 0 72.877 13.855 100.576 41.555 27.69 27.7 41.564 61.154 41.564 100.342 0 39.198-13.865 72.632-41.564 100.342-27.7 27.698-61.225 41.706-100.577 42.024h-50.054V84.552zM2147.492 203.43l75.684-136.458c1.566-2.755 3.84-4.536 6.84-5.366 3-.84 5.858-.46 8.612 1.096 2.765 1.546 4.608 3.85 5.56 6.942.984 3.072.687 5.99-.87 8.745l-72.775 128.994 14.398 4.435c16.385 7.557 29.523 19.036 39.435 34.468 9.923 15.422 14.87 32.41 14.87 50.985 0 26.122-9.135 48.404-27.383 66.826-18.258 18.4-40.458 27.617-66.59 27.617h-94.434c-2.826-.316-5.284-1.576-7.322-3.788-2.048-2.192-3.072-4.72-3.072-7.547V72.51c0-3.154 1.085-5.827 3.307-8.018 2.192-2.222 4.875-3.308 8.03-3.308 3.143 0 5.887 1.086 8.263 3.308 2.355 2.192 3.543 4.874 3.543 8.018v130.796h80.27zm-83.917 22.538v142.592h81.684c19.527 0 36.28-6.922 50.298-20.777 13.998-13.853 21.012-30.535 21.012-50.052 0-19.507-6.77-36.2-20.296-50.053-13.537-13.855-29.92-21.095-49.11-21.72h-83.59z" horiz-adv-x="2560"/><glyph unicode="" d="M148.91 277.422c-2.58-.778-4.352-3.03-4.885-5.755l-.522 1.546c-.082.277-.43.46-.717.38-.307-.114-.47-.43-.37-.77l1.65-4.904c.06-.267.123-.544.205-.81 1.363-4.506 5.654-7.19 9.565-5.99l8.11 2.468c-1.73 2.202-3.154 4.782-4.014 7.73-.88 2.868-1.156 5.776-.95 8.54l-8.07-2.436zm-11.49-40.95l4.936 3.246c.236.185.338.553.174.83-.195.275-.563.347-.85.153l-4.935-3.245c-.266-.164-.358-.512-.174-.798.165-.266.533-.37.85-.185zm-2.262 3.707l5.222 2.764c.276.154.41.512.276.81-.195.285-.532.398-.82.214l-5.242-2.744c-.266-.133-.41-.502-.236-.788.123-.276.492-.41.798-.256zm-1.813 3.788l5.488 2.212c.276.133.44.46.327.778-.123.307-.47.45-.778.317l-5.478-2.212c-.286-.113-.46-.45-.338-.758.113-.297.45-.46.778-.338zm-1.362 3.81l5.703 1.577c.286.102.512.41.43.738-.102.317-.42.512-.748.41l-5.724-1.587c-.286-.082-.47-.4-.39-.717.062-.298.38-.513.728-.42zm-.87 3.8l5.837.85c.338.06.563.347.522.675-.06.317-.38.553-.696.492l-5.857-.85c-.308-.03-.564-.338-.503-.655.03-.307.338-.553.696-.512zm-.973 4.36c-.01-.306.236-.593.594-.593l5.93-.02c.306.01.613.256.634.594-.03.326-.286.603-.635.582l-5.93.02c-.316.01-.593-.235-.593-.582zm.36 3.77c-.083-.298.132-.636.47-.698l5.816-1.024c.286-.04.635.154.696.47.03.328-.154.636-.512.677l-5.816 1.044c-.297.05-.625-.154-.655-.47zm.97 3.583c-.1-.285.03-.634.36-.777l5.518-2.14c.297-.103.625.02.778.327.082.317-.03.665-.358.768l-5.52 2.16c-.296.114-.644-.02-.777-.337zm1.732 3.34c-.174-.267-.102-.636.174-.84l4.915-3.32c.267-.163.646-.112.84.165.164.266.133.635-.154.82l-4.935 3.317c-.275.174-.654.123-.838-.143zm7.342-2.326c.256.236.286.594.05.83l-4.065 4.362c-.206.215-.564.246-.8.02-.214-.215-.285-.583-.03-.84l4.015-4.34c.236-.237.583-.257.83-.032zm2.16 2.213l-2.99 5.13c-.154.266-.492.38-.788.226-.286-.174-.39-.522-.215-.83l2.98-5.12c.155-.275.493-.388.82-.225.256.174.38.533.195.82zm54.14-92.18l-5.765-1.332c-.277-.103-.513-.4-.462-.697.123-.338.43-.522.748-.44l5.734 1.28c.358.082.563.38.46.717-.03.297-.378.512-.716.47zm1.24-4.22c.02.297-.267.604-.615.584l-5.92-.378c-.285-.04-.562-.276-.54-.625.03-.338.306-.563.624-.543l5.91.338c.337.03.603.286.54.625zm-.585-2.96l-5.89.605c-.306 0-.613-.205-.665-.502-.02-.338.215-.635.542-.635l5.888-.635c.327-.04.614.185.635.522.06.286-.185.604-.512.645zm-6.995-2.222c-.07-.338.102-.656.44-.738l5.703-1.577c.307-.082.645.103.696.42.133.297-.06.635-.39.738l-5.713 1.577c-.306.02-.654-.092-.737-.42zm-.78-2.19c-.132-.317 0-.656.308-.758l5.376-2.437c.285-.144.654-.04.777.256.154.276.02.656-.286.82l-5.405 2.415c-.266.104-.645 0-.768-.296zm-1.114-1.987c-.173-.297-.09-.635.206-.82l4.956-3.235c.236-.205.635-.123.798.164.185.236.123.635-.174.84l-4.956 3.215c-.246.144-.645.103-.83-.164zm-1.382-1.782c-.205-.276-.205-.635.07-.84l4.404-3.962c.236-.215.594-.215.82.04.235.206.225.626-.03.86l-4.414 3.923c-.236.205-.604.205-.85-.02zm-1.597-1.556c-.255-.236-.306-.584-.08-.82l3.778-4.576c.205-.236.563-.317.798-.103.266.206.317.585.102.86l-3.758 4.537c-.215.246-.563.307-.84.103zm-1.822-1.28c-.286-.186-.38-.523-.205-.82l3.02-5.08c.165-.255.513-.378.82-.204.276.144.38.502.205.82l-3.03 5.057c-.165.286-.503.41-.81.226zm-1.976-.963c-.307-.144-.45-.48-.307-.758l2.18-5.54c.124-.277.452-.44.75-.298.326.103.48.46.337.778l-2.18 5.478c-.134.276-.452.48-.78.338zm-2.07-.655c-.326-.062-.54-.358-.44-.697l1.26-5.776c.093-.298.38-.523.697-.462.306.082.53.38.46.738l-1.29 5.755c-.07.318-.37.523-.686.44zM470.61 325.878c-21.555-17.255-32.738 1.945-32.738 1.945l-12.094 3.717 10.73 25.447c6.124.9 12.39 4.27 16.62 6.564 1.24.666 2.776 1.496 2.96 1.588l13.036 2.212c1.67-.604 2.786-.317 4.485.85.696.46 1.484 1.075 2.426 1.822 35.89 27.69 36.475 40.243 35.82 43.438l-1.454 6.82-5.776-3.88c-20.5-13.743-45.568-28.827-50.32-29.195-8.315 0-30.556-1.71-31.53-1.772l-.655-.103c-15.144-3.44-23.52-9.052-25.558-17.152-2.11-8.305 3.563-15.585 6.594-18.77-.85-18.75-13.476-34.744-17.46-39.332-19.086-1.536-29.5-20.12-33.607-27.095-36.722 11.807-74.98-7.78-82.3-18.02H240.8l46.716 18.933c9.728 2.928 14.848 16.752 11.5 27.884-3.38 11.15-13.988 18.995-23.716 16.056L170.176 296.62c-9.718-2.948-14.858-14.07-11.47-25.21 2.13-7.076 7.21-12.196 13.108-14.336-12.39-7.75-15.79-20.787-16.528-29.93-.522.326-1.69.747-1.69 1.094v.01c0 .266.123.635-.113.83-.286.214-.625.132-.798-.155l-.05-.082c-.86.493-1.763.984-2.694 1.465l.43.492c.175.246.175.625-.08.84s-.615.184-.82-.083l-.614-.707c-.952.46-1.946.9-2.97 1.32l1.485 1.424c.206.227.216.605 0 .85-.235.227-.613.237-.85 0l-1.862-1.78c-1.126.43-2.284.818-3.46 1.156l3.48 2.775c.216.216.277.584.093.84-.225.266-.582.307-.838.082l-4.147-3.298c-3.738.942-7.68 1.362-11.673.88-8.458-1.003-15.534-5.713-21.064-13.987-3.01-4.526-7.322-18.75-4.106-32.625 2.365-10.158 8.356-18.34 17.377-23.623l.664-7.282c.03-.38.133-.717.338-1.024l3.236-9.308c.43-.738 1.188-5.17 2.007-5.17h.225l12.042 5.252 8.243 3.932c.727.185 1.32 1.66 1.618 2.325l1.495 3.84-.143-.676 1.71-.124 1.25-7.926 1.71-1.147c.604-.4 4.976-3.195 10.137-3.195 1.71 0 3.502.327 5.284 1.127 1.475.686 2.775 1.65 3.89 2.867l-.05-.42c-.04-.276.185-.604.512-.635.307-.04.614.185.655.543l.297 2.325c.614.92 1.147 1.956 1.618 3.082l.286-5.52c0-.275.276-.583.604-.562.317 0 .573.297.563.656l-.285 5.88c-.02.316-.266.603-.594.583-.06 0-.122-.02-.184-.062.717 2.018 1.23 4.302 1.526 6.903l.286 2.375-5.91 5.458-.235 2.796c-.102 1.74.205 7.322 3.062 10.22 1.23 1.238 2.908 1.903 5.07 2.016 1.545-1.198 4.29-3.164 7.863-5.1l-.482-.275c-.226-.185-.348-.543-.195-.82.196-.275.554-.357.82-.184l1.085.634c.86-.44 1.762-.88 2.703-1.3l-2.898-1.178c-.256-.123-.43-.48-.327-.778.143-.297.492-.44.788-.297l3.953 1.588c.88-.38 1.792-.717 2.734-1.045 3.994-7.24 11.653-19.077 22.815-27.443 9.39-7.055 24.607-8.663 36.578-8.663 2.416 0 4.69.062 6.78.164 3.163-1.044 33.208-10.66 20.96 2.162-7.525 7.885-13.496 5.858-17.16 2.816-11.12-.82-33.015-1.198-44.33 7.28-8.56 6.422-15.032 15.238-19.18 21.996 2.57-.46 5.254-.676 8-.563 15.666.82 27.667 4.363 28.16 4.537l46.826 21.115c14.46-7.076 45.496-31.918 45.496-31.918l11.745-12.544s21.954-12.985 21.954 18.422c0 7.055-12.543-3.942-12.543-3.942-3.113 8.642-14.1 9.8-14.1 9.8l-27.792 43.56 12.75 8.715c6.102 2.406 11.734 4.885 16.874 7.332 17.417 2.253 49.643 8.397 62.627 23.9 0 0 12.34 11.756 18.217 39.987 0 0 22.743 2.345 27.454 2.345 41.933-.01 47.81 17.633 47.81 17.633l-5.878 21.166-20.746-17.215zM144.875 157.604l-6.79-1.598-10.29-1.024-2.16 3.543-1.024 11.08 7.773 4.72 2.314-.164 8.254-3.603 3.575-9.34-1.65-3.614zm251.73 26.02C378.196 102.96 305.89 42.607 219.742 42.607c-100.024 0-181.4 81.377-181.4 181.4 0 100.025 81.377 181.402 181.4 181.402 39.548 0 76.176-12.728 106.026-34.294 6.512 10.946 14.05 21.514 23.04 30.628-36.26 26.41-80.865 42.014-129.065 42.014C98.57 443.738 0 345.168 0 223.998 0 102.838 98.57 4.258 219.74 4.258c107.613 0 197.387 77.742 216.136 180.02-12.933-1.64-26.644-1.2-39.27-.657z"/></font>
</defs>
</svg>
