<svg width="32" height="32" viewBox="0 0 32 32" xmlns="http://www.w3.org/2000/svg"><title>add_dive</title><g fill="none" fill-rule="evenodd"><g><g><g><g><g fill="#fff"><path id="Shape" d="M7.552 14.08zM19.328 14.08c-.128 0-.128 0 0 0zM17.024 10.88l2.176 3.2h1.28c2.176 0 3.84-1.664 3.84-3.84V9.6c0-2.432-2.048-4.48-4.48-4.48H7.04c-2.432 0-4.48 2.048-4.48 4.48v.64c0 2.176 1.664 3.84 3.84 3.84h1.28l2.304-3.2c1.664-2.688 5.248-2.688 7.04 0zM9.728 15.616l2.304-3.2c.768-1.152 2.176-1.152 2.944 0l2.304 3.2c.384.64 1.28 1.024 2.048 1.024h1.28c3.584 0 6.4-2.816 6.4-6.4V9.6c0-3.84-3.2-7.04-7.04-7.04h-12.8C3.2 2.56 0 5.76 0 9.6v.64c0 3.584 2.816 6.4 6.4 6.4h1.28c.768 0 1.664-.512 2.048-1.024zM7.68 15.36H6.4c-2.816 0-5.12-2.304-5.12-5.12V9.6c0-3.2 2.56-5.76 5.76-5.76h12.8c3.2 0 5.76 2.56 5.76 5.76v.64c0 2.816-2.304 5.12-5.12 5.12H19.2c-.256 0-.768-.256-1.024-.512l-2.304-3.2c-1.28-1.92-3.712-1.92-4.992 0l-2.304 3.2c-.128.256-.64.512-.896.512zM28.16 0v21.76c0 3.584-2.816 6.4-6.4 6.4-3.584 0-6.4-2.816-6.4-6.4h2.56v-3.84H8.96v3.84h2.56c0 5.632 4.608 10.24 10.24 10.24C27.392 32 32 27.392 32 21.76V0h-3.84zm2.56 6.4h-1.28V1.28h1.28V6.4z"/></g><g fill="#FDC90C"><path d="M7.716 17.003c-4.14-.12-7.594 3.14-7.713 7.28-.002.073-.003.146-.003.22C0 28.642 3.358 32 7.5 32c4.142 0 7.5-3.357 7.5-7.498.002-4.06-3.227-7.382-7.284-7.5zM11.7 25.55H8.55v3.15h-2.1v-3.15H3.3v-2.098h3.15v-3.15h2.1v3.15h3.15v2.1z"/></g></g></g></g></g></g></svg>