<svg width="33" height="34" viewBox="0 0 33 34" xmlns="http://www.w3.org/2000/svg"><title>add_shop</title><g fill="none" fill-rule="evenodd"><g><g><g><g><g><g fill="#fff"><path d="M.076 14.026c0 1.892 1.312 3.47 3.08 3.923v13.357H1.103c-.566 0-1.027.455-1.027 1.017 0 .562.462 1.016 1.027 1.016h30.794c.57 0 1.027-.454 1.027-1.016s-.457-1.017-1.027-1.017h-2.053V17.95c1.768-.455 3.08-2.032 3.08-3.924V13.01H.076v1.016zm20.53 4.066c2.27 0 4.106-1.82 4.106-4.066 0 1.892 1.31 3.47 3.08 3.923v13.357H12.393V18.092c2.27 0 4.106-1.82 4.106-4.066 0 2.246 1.84 4.066 4.106 4.066zm-9.238-.143v13.357h-6.16V17.95c1.77-.455 3.08-2.032 3.08-3.924 0 1.892 1.31 3.47 3.08 3.923zm17.45-14.09H4.182L.076 11.994h32.848L28.818 3.86zM8.748 6.12l-2.052 4.066c-.092.18-.272.282-.46.282-.077 0-.155-.016-.23-.053-.252-.126-.356-.43-.228-.68L7.83 5.666c.13-.25.436-.35.69-.228.253.124.354.43.23.68zm4.107 0l-2.053 4.066c-.092.18-.272.282-.46.282-.077 0-.155-.016-.23-.053-.252-.126-.356-.43-.228-.68l2.053-4.068c.128-.25.437-.35.688-.228.254.124.355.43.23.68zm4.158 3.84c0 .282-.228.508-.513.508-.283 0-.513-.226-.513-.508V5.894c0-.282.23-.51.513-.51.285 0 .513.228.513.51V9.96zm5.894.445c-.08.043-.164.063-.248.063-.182 0-.358-.095-.45-.264l-2.246-4.066c-.136-.246-.044-.556.205-.69.244-.134.56-.047.697.2l2.245 4.068c.132.246.044.556-.205.69zm4.086.01c-.072.037-.148.053-.228.053-.19 0-.37-.103-.457-.282L24.255 6.12c-.13-.25-.024-.556.228-.68.25-.126.562-.025.69.227l2.053 4.066c.124.25.024.556-.233.68zM8.8 25.362V23.02c-.3-.18-.512-.488-.512-.862 0-.562.46-1.016 1.027-1.016.57 0 1.026.454 1.026 1.016 0 .374-.21.683-.512.862v2.343c.303.18.513.488.513.862 0 .562-.456 1.016-1.025 1.016-.566 0-1.027-.453-1.027-1.015 0-.374.213-.683.513-.862zM4.183 1.827c0-.56.46-1.016 1.027-1.016h22.58c.57 0 1.028.456 1.028 1.017 0 .562-.457 1.017-1.027 1.017H5.21c-.567 0-1.028-.455-1.028-1.017zm13.886 21.707l-.726-.718 2.903-2.875.726.72-2.902 2.874zm0 2.875l-.726-.72 5.806-5.75.726.72-5.806 5.75zm5.08-3.594l.726.718-2.903 2.875-.725-.72 2.903-2.874z" id="Shape"/></g><g><path fill="#3C4144" d="M3 21h9v9H3z"/><path d="M7.716 18.003c-4.14-.12-7.594 3.14-7.713 7.28-.002.073-.003.146-.003.22C0 29.642 3.358 33 7.5 33c4.142 0 7.5-3.357 7.5-7.498.002-4.06-3.227-7.382-7.284-7.5zM11.7 26.55H8.55v3.15h-2.1v-3.15H3.3v-2.098h3.15v-3.15h2.1v3.15h3.15v2.1z" fill="#FDC90C"/></g></g></g></g></g></g></g></svg>