<svg width="32" height="27" viewBox="0 0 32 27" xmlns="http://www.w3.org/2000/svg"><title>add_picture</title><g fill="none" fill-rule="evenodd"><g><g><g><path d="M23.928 16.486c-.387 2.56-2.452 4.65-4.98 5.04-4.053.63-7.496-2.855-6.875-6.96.387-2.56 2.452-4.65 4.98-5.04 4.052-.63 7.495 2.853 6.875 6.96zM32 6.514v18.022C32 25.896 30.91 27 29.568 27H2.433C1.09 27 0 25.897 0 24.537V6.514C0 5.154 1.09 4.05 2.433 4.05h.234v-.548c0-.443.354-.802.792-.802h3.748c.437 0 .792.36.792.802v.548h2.065L11.7.632c.183-.386.57-.632.993-.632H23.31c.42 0 .808.246.99.632l1.634 3.418h3.633C30.91 4.05 32 5.153 32 6.514zM7 6.75c0-.93-.747-1.687-1.667-1.687S3.667 5.82 3.667 6.75c0 .932.746 1.687 1.666 1.687C6.253 8.437 7 7.682 7 6.75zm9.017.223c-3.186.715-5.756 3.318-6.463 6.545-1.403 6.4 4.106 11.978 10.43 10.56 3.185-.717 5.756-3.32 6.463-6.546 1.4-6.4-4.107-11.978-10.43-10.56z" fill="#fff"/><g><path fill="#3C4144" d="M3 15h9v9H3z"/><path d="M7.716 12.003c-4.14-.12-7.594 3.14-7.713 7.28-.002.073-.003.146-.003.22C0 23.642 3.358 27 7.5 27c4.142 0 7.5-3.357 7.5-7.498.002-4.06-3.227-7.382-7.284-7.5zM11.7 20.55H8.55v3.15h-2.1v-3.15H3.3v-2.098h3.15v-3.15h2.1v3.15h3.15v2.1z" fill="#FDC90C"/></g></g></g></g></g></svg>