<svg width="32" height="32" viewBox="0 0 32 32" xmlns="http://www.w3.org/2000/svg"><title>community</title><g fill="none" fill-rule="evenodd"><g fill="#fff"><g><g><g transform="translate(0 0)"><path d="M6.825 20.476V9.1s.006-.51.272-1.137H2.275S0 7.963 0 10.238V18.2c0 2.276 2.275 2.276 2.275 2.276v11.376H9.1v-9.1s-2.275 0-2.275-2.276zM6.825 6.825c.592 0 1.14-.163 1.624-.427.066-.04.14-.078.213-.117.945-.606 1.575-1.66 1.575-2.867C10.238 1.528 8.71 0 6.825 0 4.94 0 3.413 1.528 3.413 3.413c0 1.885 1.527 3.412 3.412 3.412zM29.577 7.963h-4.82c.264.626.27 1.138.27 1.138v11.376c0 2.275-2.276 2.275-2.276 2.275v9.102h6.827V20.476s2.275 0 2.275-2.275V10.24s0-2.275-2.275-2.275zM23.184 6.278c.074.04.152.078.22.12.485.264 1.03.427 1.622.427 1.885 0 3.413-1.527 3.413-3.412S26.91 0 25.025 0c-1.884 0-3.412 1.528-3.412 3.413 0 1.204.628 2.258 1.57 2.865z" id="Shape"/><circle cx="15.926" cy="3.413" r="3.413"/><path d="M22.75 10.238s0-2.275-2.274-2.275h-9.1s-2.275 0-2.275 2.275V18.2c0 2.276 2.276 2.276 2.276 2.276v11.376h9.1V20.476s2.275 0 2.275-2.275V10.24z"/></g></g></g></g></g></svg>