<svg width="32" height="32" viewBox="0 0 32 32" xmlns="http://www.w3.org/2000/svg"><title>explore</title><g fill="none" fill-rule="evenodd"><g fill="#fff"><g><g><g><path d="M29.35 14.74c-1.004 1.075-1.988 2.232-2.675 3.83-.313.736-1.056 1.214-1.89 1.214-.842 0-1.585-.478-1.903-1.22-.794-1.855-2-3.12-3.167-4.34-.292-.308-.585-.615-.872-.933l-.04.016c-1.138.327-2.015 1.763-1.487 2.93.36.8 2.875.65 2.66 2.372-.18 1.41 1.758 1.782 2.445 1.714.688-.08 1.744 1.074 1.21 1.58-.527.51-1.527.53-1.373 1.837.04.38 1.25.33 1.25.907 0 .58-.625 1.24-.143 1.91.103.145.21.258.323.345-2.317 2.03-5.407 3.276-8.795 3.276-7.16 0-12.983-5.546-12.983-12.366 0-2.07.537-4.023 1.485-5.74-.005 2.22 1.24 4.066 1.825 4.622 1.907 1.81 4.67 1.24 5.023 2.76.36 1.512-1.896 1.517-1.748 2.674.154 1.162 3.09 1.47 2.435 2.538-.866 1.42.584 1.524.164 3.276-.226.957 1.225 1.143 1.763.415.41-.556.328-1.24 1.153-2.075 1.01-1.025 3.352-1.19 3.09-2.885-.445-2.812-3.315-3.25-4.566-3.91-1.42-.742-1.07-2.524-1.38-3.374-.43-1.206-1.89.337-2.67-.366-1.28-1.152.232-2.783 1.308-2.748 2.27.067 2.967 2.17 3.803 2.098.815-.07 1.343-1.152 1.486-1.728.304-1.255-.51-.694-.84-1.348-.44-.874 1.55-1.708 2.317-2.353.118-.1.205-.19.252-.28.23-.43-.073-.756-.586-1.054-1.025-.59-2.896-1.06-2.983-1.982-.05-.566 1.088-.84 2.385-.888.215.01.425.03.64.05.108-.582.282-1.154.518-1.7-.62-.078-1.25-.117-1.89-.117C6.722 3.7.072 10.03.072 17.81s6.65 14.114 14.82 14.114 14.816-6.332 14.816-14.114c0-1.054-.124-2.084-.36-3.07zM24.088.106c-4.183.377-7.048 4.238-6.318 8.18.74 4.002 4.615 5.234 6.538 9.728.174.405.772.407.946.002 2.13-4.984 6.664-5.957 6.664-11.143 0-3.973-3.577-7.15-7.83-6.767zm.694 10.357c-2.08 0-3.768-1.607-3.768-3.59 0-1.983 1.688-3.59 3.77-3.59 2.08 0 3.768 1.607 3.768 3.59 0 1.983-1.687 3.59-3.77 3.59z"/></g></g></g></g></g></svg>