<svg width="17" height="22" viewBox="0 0 17 22" xmlns="http://www.w3.org/2000/svg"><title>lock_sombre</title><g fill="none" fill-rule="evenodd"><g fill="#3C4144"><g><path d="M15.5 9.673v-3.01C15.5 2.99 12.36 0 8.503 0c-3.86 0-7 2.99-7 6.664v3.01H0V22h17V9.673h-1.5zM4.14 6.663c0-2.288 1.956-4.15 4.362-4.15 2.402 0 4.358 1.863 4.358 4.15v3.01H4.14v-3.01zM9.703 18.62h-2.4l.358-3.378c-.444-.264-.743-.734-.743-1.273 0-.83.707-1.505 1.583-1.505.87 0 1.577.674 1.577 1.504 0 .538-.294 1.007-.742 1.272l.366 3.378z"/></g></g></g></svg>