<svg width="23" height="33" viewBox="0 0 23 33" xmlns="http://www.w3.org/2000/svg"><title>logbook</title><g fill="none" fill-rule="evenodd"><g fill="#fff"><g><g><path d="M20.562 0H0v28.864h1.963v3.427l2.545-1.662 2.545 1.663v-3.426h13.509c.82 0 1.485-.655 1.485-1.464V1.465C22.047.657 21.383 0 20.562 0zM4.507 29.83L2.64 31.05V.72h3.736V31.05l-1.87-1.22zM10.1 5.16c-.37 0-.67.3-.67.664v4.868c0 .366.3.663.67.663h9.133c.37 0 .672-.3.672-.663V5.824c0-.366-.302-.663-.672-.663H10.1z"/></g></g></g></g></svg>