<svg xmlns="http://www.w3.org/2000/svg" width="21.242" height="18.272"><g><g fill="#8A8E8F"><path d="M12.406 5.387c.14.463-.073.938-.477 1.06L7.567 7.77c-.403.122-.844-.154-.983-.618-.14-.463.073-.938.476-1.06l4.362-1.323c.404-.123.844.154.984.617"/><path d="M6.513 6.813l-.335.102c-.164.05-.25.24-.193.428.057.188.235.3.397.25l.337-.103c-.073-.092-.132-.2-.168-.322-.036-.12-.048-.24-.04-.355"/><path d="M6.798 9.176c.005-.014.016-.022.03-.018.013.005.02.02.017.03l-.073.236c-.004.014-.02.02-.03.015-.015-.004-.022-.018-.018-.03l.074-.234"/><path d="M6.636 9.11c.006-.013.02-.02.033-.014.01.006.016.02.012.033l-.1.224c-.005.013-.02.02-.03.012-.015-.004-.02-.02-.013-.032l.096-.224"/><path d="M6.48 9.028c.007-.013.022-.017.034-.01.012.006.015.022.01.033l-.12.215c-.01.013-.026.016-.036.008-.012-.006-.017-.02-.01-.032l.123-.212"/><path d="M6.336 8.93c.007-.01.022-.014.034-.005.01.008.01.023.006.035l-.143.2c-.008.01-.025.013-.035.004-.01-.007-.013-.023-.005-.033l.143-.2"/><path d="M6.202 8.822c.008-.01.023-.012.033-.004.01.01.01.025.004.035l-.16.186c-.01.01-.03.01-.036 0-.012-.007-.012-.024-.002-.033l.16-.185"/><path d="M6.08 8.702c.01-.01.025-.01.035 0 .01.01.008.026 0 .035l-.177.17c-.012.01-.028.008-.036 0-.01-.01-.01-.026 0-.035l.177-.17"/><path d="M5.972 8.575c.01-.01.025-.008.035.004.008.01.006.024-.003.033l-.192.154c-.013.008-.028.006-.035-.005-.01-.01-.007-.026.003-.034l.192-.153"/><path d="M5.878 8.442c.012-.008.028-.005.035.006.007.01.003.027-.007.034l-.204.135c-.014.007-.03.003-.035-.008-.008-.012-.004-.027.007-.034l.205-.135"/><path d="M5.802 8.305c.012-.007.026-.003.034.01.006.012 0 .027-.01.033l-.218.115c-.012.006-.028 0-.033-.01-.007-.013 0-.028.01-.034l.217-.115"/><path d="M5.742 8.17c.012-.007.027 0 .032.012.005.013-.002.027-.014.032l-.228.092c-.013.005-.027-.002-.032-.014-.005-.013.002-.027.014-.03l.228-.093"/><path d="M5.7 8.034c.013-.004.026.004.03.017.003.015-.006.027-.018.032l-.236.065c-.014.004-.028-.005-.03-.017-.004-.013.003-.026.016-.03l.237-.066"/><path d="M5.675 7.905c.013-.002.026.007.03.02 0 .014-.01.027-.023.03l-.242.034c-.015 0-.027-.01-.03-.022 0-.013.01-.026.022-.028l.243-.035"/><path d="M5.67 7.784c.014 0 .025.01.026.025 0 .013-.013.023-.026.023h-.246c-.015 0-.025-.013-.025-.025 0-.014.01-.025.024-.025h.246"/><path d="M5.683 7.675c.015.002.023.015.022.028-.003.013-.017.022-.03.02l-.24-.043c-.015-.003-.024-.016-.02-.03 0-.012.015-.02.027-.018l.24.043"/><path d="M5.716 7.578c.013.004.018.02.014.032-.006.013-.02.018-.032.014l-.228-.09c-.014-.005-.02-.02-.015-.032.006-.013.02-.018.032-.014l.23.09"/><path d="M5.766 7.495c.012.007.013.023.006.034-.008.01-.023.013-.034.006L5.534 7.4c-.012-.01-.014-.025-.007-.036.008-.01.023-.013.034-.006l.206.138"/><path d="M5.833 7.426c.01.01.008.024-.002.034-.01.01-.023.008-.033 0l-.167-.18c-.01-.012-.008-.027.002-.036.01-.01.024-.008.033 0l.17.182"/><path d="M5.92 7.368c.01.012.004.027-.007.034-.014.007-.028.002-.035-.01l-.123-.213c-.007-.014-.003-.028.01-.036.01-.006.025 0 .03.01l.125.214"/><path d="M6.033 7.324c.006.013-.004.026-.016.03-.013.005-.026-.003-.03-.015l-.078-.234c-.005-.014.002-.028.014-.032s.026.004.03.015l.08.233"/><path d="M7.653 10.81c-.01.01-.025.01-.036 0-.008-.008-.007-.025 0-.034l.17-.177c.01-.01.028-.01.035 0 .012.007.01.024 0 .033l-.17.176"/><path d="M7.77 10.94c-.01.01-.027.01-.036-.003-.007-.01-.004-.025.004-.034l.19-.154c.012-.01.03-.007.035.003.01.01.008.026-.004.034l-.192.153"/><path d="M7.85 11.065c-.01.008-.025.004-.034-.007-.006-.012 0-.027.008-.034l.212-.126c.013-.007.03-.002.033.01.008.01.004.026-.008.033l-.212.125"/><path d="M7.907 11.187c-.013.006-.027 0-.033-.013-.004-.013.003-.027.013-.033l.228-.09c.015-.006.03 0 .032.014.007.013 0 .027-.012.03l-.228.093"/><path d="M7.94 11.304c-.014.003-.026-.004-.03-.018-.003-.013.007-.026.017-.03l.24-.055c.014 0 .03.008.03.02.004.015-.004.027-.02.03l-.237.054"/><path d="M7.95 11.416c-.013 0-.024-.008-.025-.023 0-.013.01-.024.022-.025l.246-.016c.014 0 .026.01.026.024s-.01.025-.024.026l-.245.014"/><path d="M7.944 11.522c-.013 0-.023-.013-.022-.027.002-.013.015-.02.027-.02l.244.024c.014 0 .024.014.02.027 0 .013-.012.023-.025.02l-.246-.025"/><path d="M7.922 11.622c-.014-.004-.02-.017-.018-.03.003-.013.018-.02.03-.018l.237.065c.015.003.023.018.017.03-.002.014-.016.02-.028.017l-.238-.065"/><path d="M7.885 11.714c-.013-.004-.018-.018-.013-.032.005-.012.02-.016.032-.012l.224.1c.013.008.02.024.012.035-.005.013-.02.017-.032.01l-.223-.1"/><path d="M7.834 11.8c-.013-.008-.016-.022-.008-.035.008-.01.024-.013.034-.007l.206.135c.012.008.014.024.007.034-.007.012-.024.015-.033.007l-.206-.135"/><path d="M7.77 11.874c-.01-.008-.01-.023-.002-.034.01-.01.025-.01.035 0l.183.162c.01.01.01.027.002.035-.01.012-.024.012-.034.002l-.183-.165"/><path d="M7.698 11.94c-.01-.012-.007-.026.003-.036.013-.008.027-.006.036.004l.156.19c.01.01.007.027-.004.034-.01.01-.025.006-.033-.004l-.156-.19"/><path d="M7.618 11.992c-.007-.013-.003-.027.01-.035.01-.007.025-.002.032.01l.126.21c.007.012.003.028-.008.034-.013.01-.028.004-.034-.007l-.126-.21"/><path d="M7.53 12.03c-.005-.013 0-.027.014-.033.014-.006.027.002.032.015l.09.227c.006.013 0 .028-.013.032-.012.006-.026 0-.03-.013l-.092-.23"/><path d="M7.44 12.054c-.004-.014.005-.027.018-.03.014-.003.026.006.028.02l.054.238c.003.015-.007.028-.02.03-.012.004-.024-.005-.028-.018l-.052-.24"/><path d="M7.345 12.062c-.002-.014.01-.025.023-.026.014 0 .025.01.025.024l.012.244c0 .015-.01.027-.023.027-.014.002-.025-.01-.025-.02l-.012-.248"/><path d="M7.25 12.054c0-.015.012-.023.026-.02.015 0 .023.013.02.026l-.03.243c-.002.015-.015.025-.027.022-.015 0-.024-.014-.023-.026l.032-.246"/><path d="M7.152 12.028c.003-.014.017-.02.03-.017.013.005.02.02.016.033l-.073.233c-.003.016-.02.022-.03.018-.014-.004-.02-.02-.017-.03l.074-.236"/><path d="M7.054 11.983c.006-.014.02-.017.033-.01.013.006.017.02.01.033l-.112.218c-.007.012-.02.017-.034.01-.01-.005-.014-.02-.01-.032l.113-.22"/><path d="M5.213 11.858l.09.148.426-.043.28-.066.07-.15-.15-.39-.403-.176-.357.217.043.46zm.04.35c-.036 0-.067-.018-.085-.048l-.134-.22c-.01-.012-.013-.026-.014-.042l-.05-.543c-.003-.037.015-.074.047-.093l.452-.275c.027-.016.06-.02.09-.006l.486.215c.025.01.043.03.052.055l.178.464c.01.024.008.05-.003.074l-.104.233c-.013.03-.038.05-.068.056l-.342.08-.5.05h-.008z"/><path d="M5.32 11.19l-.227-2.215s.577-.074.74-.033v2.28"/><path d="M6.84 12.447c-.215 0-.397-.117-.422-.134l-.07-.048-.052-.333-.07-.01.06-.387.35.055.07.434c.06.026.137.045.19.02.055-.026.1-.113.127-.243l-.208-.192-.022-.27c-.004-.05-.023-.464.238-.73.1-.1.276-.215.568-.2l.07.004.05.046c.004.004.504.438 1.048.408.55-.028.99-.147 1.063-.17l2.035-.92.163.355-2.074.938c-.02.007-.518.154-1.17.188-.58.03-1.096-.324-1.265-.456-.09.005-.16.033-.212.084-.118.12-.13.353-.126.425l.01.116.245.227-.013.1c-.04.335-.163.553-.366.648-.074.034-.148.048-.22.048"/><path d="M20.386 4.183l-.86.717c-.895.718-1.36-.08-1.36-.08l-.634-.196-3.86 3.975s2.324-.14 3.08-1.043c0 0 .512-.49.756-1.663 0 0 .943-.097 1.14-.097 1.738 0 1.983-.734 1.983-.734l-.244-.88"/><path d="M10.65 12.664c-.497 0-1.128-.067-1.518-.36-.696-.523-1.064-1.373-1.08-1.41l.18-.076c.002.008.363.838 1.017 1.33.642.482 2.106.276 2.122.274l.028.194c-.03.004-.345.048-.75.048"/><path d="M10.92 12.654s.344-.648.88-.086-.88.086-.88.086"/><path d="M11.248 7.23s.525.236.65.67"/><path d="M21.237 1.26l-.06-.285-.24.16c-.85.573-1.89 1.2-2.087 1.215-.346 0-1.27.07-1.31.074l-.026.004c-.63.143-.976.376-1.06.713-.088.346.147.65.273.782-.036.78-.56 1.444-.725 1.635-.792.063-1.224.637-1.394.927-1.523-.49-3.11.372-3.415.55H9.735l-.025.002c-.068.01-1.68.222-2.508.674-.575.315-.726.894-.758 1.292-.278-.18-.698-.38-1.128-.327-.35.04-.645.237-.875.58-.123.19-.302.78-.168 1.358.097.423.347.763.722.982l.196-.337c-.283-.166-.464-.413-.537-.733-.107-.458.038-.938.114-1.052.165-.247.358-.38.594-.41.554-.067 1.146.473 1.153.478l.4.37-.074-.54c-.002-.01-.125-.948.55-1.316.727-.398 2.21-.608 2.358-.63h1.555l.048-.028c.018-.01 1.762-1.08 3.283-.49l.175.07.075-.174c.015-.034.366-.83 1.218-.86l.08-.002.052-.057c.037-.037.886-.925.886-2.043v-.09l-.067-.057c-.056-.05-.263-.277-.218-.457.024-.1.156-.285.754-.424.12-.01.956-.072 1.263-.072.25 0 .986-.43 1.604-.822-.2.215-.496.49-.942.836-.052.042-.086.067-.097.075l-.097.073.03.224.103.044c.078.032.125.02.2-.03.03-.02.06-.045.1-.077 1.49-1.15 1.514-1.673 1.487-1.805"/><path d="M12.81 9.297l-.222-.323.702-.475c1.354-.532 2.144-1.164 2.243-1.246l1.238-1.447L17.816 3.3l.21-.078c.192-.018.433-.147.59-.232.112-.06.18-.097.243-.108l.676-.114.066.385-.677.115-.123.066c-.176.095-.435.235-.69.273l-1.022 2.43-1.29 1.504c-.033.03-.847.725-2.345 1.315l-.644.442"/><path d="M15.183 11.272c0 1.305-.91.766-.91.766l-.488-.522s-1.704-1.365-2.105-1.403c-.855-.08-2.033-.897-2.774-.585-.063.027-.125.05-.185.073-1.453.528-1.604-.495-1.604-.495S6.986 8.062 8.97 8.03c1.985-.033 3.903 1.107 3.903 1.107l1.204 1.89s.456.05.586.41c0 0 .52-.458.52-.165"/><path d="M21.098 1.394S19.244 2.64 18.903 2.64c-.342 0-1.293.075-1.293.075-1.61.366-.635 1.222-.635 1.222 0 1.05-.83 1.907-.83 1.907-.99.032-1.39.977-1.39.977-1.633-.635-3.455.506-3.455.506H9.788s-1.635.212-2.44.652c-.805.44-.65 1.516-.65 1.516s-1.276-1.183-2.04-.032c-.16.238-.47 1.43.422 2.016l-.01-.132.45-.275.487.214.177.465-.018.038.142.036.21.033-.015.49s.684.308.78-.523l-.227-.21-.017-.197s-.05-.75.6-.717c0 0 .554.49 1.188.456.635-.033 1.122-.18 1.122-.18L12 10.05l.894-.896.52-.375c1.495-.587 2.31-1.288 2.31-1.288l1.267-1.484 1.026-2.46.08-.033c.343-.033.75-.325.847-.342l.676-.114c.02-.017.043-.034.064-.05 1.508-1.166 1.414-1.61 1.414-1.61"/><path d="M16.455 10.815c-.764 3.353-3.764 5.863-7.338 5.863-4.15 0-7.526-3.383-7.526-7.542 0-4.16 3.377-7.542 7.527-7.542 1.64 0 3.16.53 4.398 1.426.27-.455.584-.895.957-1.274C12.967.648 11.116 0 9.117 0 4.09 0 0 4.098 0 9.136c0 5.038 4.09 9.136 9.117 9.136 4.464 0 8.19-3.232 8.967-7.484-.537.067-1.105.05-1.63.027"/></g></g></svg>