<svg width="31" height="24" viewBox="0 0 31 24" xmlns="http://www.w3.org/2000/svg"><title>pin_map_recherche_topbar_mobile</title><g fill="none" fill-rule="evenodd"><g><path fill="#D5D5D5" d="M-22-9h320v200H-22z"/><path fill="#FDC90C" d="M-22-10h320v47H-22z"/><g><g stroke="#fff" fill="#fff" transform="translate(-22 -9) translate(10 3)"><rect width="300" height="40" rx="40"/></g><path d="M26.153 13.578l4.774 9.702c.194.394-.01.717-.454.717H.527c-.444 0-.648-.323-.454-.717l4.774-9.702c.076-.154.28-.28.453-.28h4.093c.126 0 .297.078.38.172.277.318.56.628.842.935.267.29.537.586.804.89H6.56c-.174 0-.378.125-.454.28L2.946 22h25.108l-3.162-6.426c-.076-.154-.28-.28-.454-.28H19.57c.267-.303.537-.598.804-.89.283-.307.568-.617.846-.934.083-.094.253-.172.378-.172H25.7c.173 0 .377.126.453.28zm-3.635-6.63c0 5.3-4.46 6.295-6.56 11.39-.17.414-.758.412-.93-.002-1.89-4.593-5.704-5.853-6.434-9.945-.718-4.027 2.1-7.973 6.217-8.358 4.187-.39 7.708 2.856 7.708 6.916zm-3.315 0c0-2.026-1.66-3.67-3.708-3.67s-3.71 1.644-3.71 3.67c0 2.027 1.662 3.67 3.71 3.67s3.708-1.643 3.708-3.67z" fill="#3C4245"/></g></g></g></svg>