<svg width="21" height="20" viewBox="0 0 21 20" xmlns="http://www.w3.org/2000/svg"><title>settings</title><g fill="none" fill-rule="evenodd"><g fill="#747E83"><g><g><path d="M18.262 7.535l-.1-.035-.39-.904.04-.093C19 3.9 18.917 3.823 18.72 3.635l-1.58-1.493c-.065-.062-.18-.106-.276-.106-.09 0-.358 0-2.693 1.024l-.092.04-.963-.375-.04-.093C11.98 0 11.866 0 11.594 0h-2.23c-.273 0-.397 0-1.415 2.637l-.038.096-.958.378-.092-.036c-1.58-.645-2.5-.972-2.742-.972-.098 0-.21.042-.276.104L2.26 3.703c-.2.192-.284.272.963 2.82l.046.095-.393.903-.096.037C0 8.597 0 8.7 0 8.97v2.118c0 .272 0 .385 2.787 1.352l.1.034.39.9-.04.093c-1.186 2.603-1.11 2.673-.91 2.868l1.58 1.494c.065.062.18.105.277.105.088 0 .357 0 2.692-1.023l.094-.043.963.377.038.093c1.1 2.632 1.212 2.632 1.485 2.632h2.233c.28 0 .396 0 1.414-2.64l.038-.095.96-.376.09.038c1.58.646 2.5.973 2.74.973.097 0 .212-.04.278-.104l1.584-1.5c.2-.193.282-.272-.966-2.817l-.047-.096.39-.9.093-.035c2.786-1.047 2.786-1.15 2.786-1.42V8.88c0-.27 0-.384-2.788-1.347zm-7.737 7.04c-2.665 0-4.833-2.06-4.833-4.59S7.86 5.4 10.525 5.4c2.663 0 4.83 2.057 4.83 4.586 0 2.53-2.167 4.59-4.83 4.59z"/></g></g></g></g></svg>