<svg xmlns="http://www.w3.org/2000/svg" xmlns:xlink="http://www.w3.org/1999/xlink" preserveAspectRatio="xMidYMid" width="119" height="119" viewBox="0 0 119 119">
  <defs>
    <style>

      .cls-3 {
        fill: #f45b26;
      }

      .cls-4 {
        fill: #ffffff;
      }
    </style>
  </defs>
  <g id="high_five_basketpng">
    <path d="M60.282,-0.001 C60.282,-0.001 71.406,17.290 71.406,17.290 C71.406,17.290 89.928,8.361 89.928,8.361 C89.928,8.361 90.916,28.899 90.916,28.899 C90.916,28.899 111.420,30.427 111.420,30.427 C111.420,30.427 102.007,48.707 102.007,48.707 C102.007,48.707 119.000,60.282 119.000,60.282 C119.000,60.282 101.708,71.407 101.708,71.407 C101.708,71.407 110.637,89.928 110.637,89.928 C110.637,89.928 90.100,90.916 90.100,90.916 C90.100,90.916 88.571,111.420 88.571,111.420 C88.571,111.420 70.292,102.007 70.292,102.007 C70.292,102.007 58.716,119.000 58.716,119.000 C58.716,119.000 47.592,101.708 47.592,101.708 C47.592,101.708 29.071,110.638 29.071,110.638 C29.071,110.638 28.083,90.100 28.083,90.100 C28.083,90.100 7.578,88.571 7.578,88.571 C7.578,88.571 16.992,70.292 16.992,70.292 C16.992,70.292 -0.002,58.716 -0.002,58.716 C-0.002,58.716 17.290,47.592 17.290,47.592 C17.290,47.592 8.361,29.071 8.361,29.071 C8.361,29.071 28.899,28.083 28.899,28.083 C28.899,28.083 30.427,7.578 30.427,7.578 C30.427,7.578 48.707,16.992 48.707,16.992 C48.707,16.992 60.282,-0.001 60.282,-0.001 Z" id="path-1" class="cls-3" fill-rule="evenodd"/>
    <path d="M73.910,72.092 C76.638,65.609 79.008,59.287 81.774,52.819 C81.899,52.526 82.065,52.238 82.121,51.931 C82.306,50.924 82.004,50.075 81.028,49.673 C80.011,49.254 79.392,49.854 78.969,50.720 C77.689,53.347 76.408,55.974 75.131,58.602 C73.637,61.681 72.153,64.764 70.651,67.839 C70.032,69.106 69.036,69.572 68.019,69.117 C66.852,68.595 66.561,67.520 67.245,66.111 C71.036,58.308 74.837,50.508 78.628,42.705 C78.826,42.296 78.986,41.867 79.139,41.439 C79.531,40.343 79.306,39.418 78.224,38.890 C77.096,38.340 76.104,38.719 75.517,39.748 C74.591,41.370 73.778,43.057 72.959,44.738 C70.238,50.320 67.534,55.910 64.827,61.498 C64.368,62.446 63.831,63.275 62.583,63.135 C61.114,62.970 60.525,61.569 61.296,59.981 C63.571,55.302 65.864,50.631 68.147,45.956 C70.130,41.893 72.113,37.831 74.090,33.765 C74.604,32.707 74.686,31.628 73.915,30.669 C72.654,29.103 70.798,29.345 69.846,31.249 C67.906,35.129 66.029,39.039 64.143,42.944 C61.739,47.917 59.384,52.914 56.915,57.854 C56.609,58.467 55.776,59.059 55.106,59.170 C54.579,59.257 53.656,58.721 53.407,58.215 C53.148,57.690 53.314,56.788 53.593,56.191 C56.033,50.982 58.538,45.803 61.029,40.618 C61.800,39.013 62.593,37.418 63.357,35.810 C63.531,35.443 63.688,35.047 63.750,34.649 C63.910,33.612 63.653,32.652 62.621,32.256 C61.563,31.850 60.793,32.406 60.273,33.368 C56.819,39.751 53.247,46.074 49.943,52.534 C48.400,55.550 46.184,58.000 44.245,60.690 C42.755,62.755 41.466,64.974 40.200,67.189 C39.597,68.243 38.978,69.039 37.656,68.710 C36.560,68.437 36.335,67.511 36.400,65.899 C36.556,62.030 36.730,58.146 36.531,54.287 C36.446,52.645 35.541,51.007 34.816,49.457 C34.506,48.792 33.484,47.884 32.905,47.346 C32.692,47.040 31.875,47.147 31.808,47.894 C31.808,49.555 32.121,51.590 32.037,53.246 C31.738,59.171 30.766,64.534 29.226,70.242 C27.555,76.434 27.193,82.796 30.340,88.817 C30.424,88.978 30.496,89.169 30.628,89.281 C32.883,91.175 32.322,93.100 30.936,95.273 C29.071,98.197 27.449,101.275 25.706,104.278 C24.952,105.577 23.955,105.939 22.905,105.349 C21.937,104.806 21.699,103.772 22.415,102.480 C24.073,99.484 25.775,96.512 27.511,93.560 C28.004,92.722 28.002,92.124 27.435,91.261 C24.479,86.759 24.286,81.678 24.358,76.494 C24.428,71.446 26.534,66.903 27.519,62.088 C28.678,56.424 27.831,44.269 28.589,43.998 C32.644,42.773 36.961,44.740 38.812,48.562 C40.156,51.338 40.559,54.305 40.771,57.323 C40.795,57.671 40.811,58.018 41.140,58.528 C42.642,56.506 44.376,54.614 45.600,52.436 C49.335,45.789 52.866,39.028 56.491,32.319 C58.858,27.939 61.936,27.154 66.105,29.917 C67.109,28.089 68.344,26.383 70.553,26.090 C71.811,25.922 73.242,25.971 74.409,26.415 C77.615,27.633 78.672,30.368 77.912,34.823 C80.394,35.241 82.204,36.559 82.911,39.040 C83.599,41.459 82.493,43.587 81.470,45.675 C84.854,47.174 86.180,48.932 86.005,51.842 C85.955,52.679 85.621,53.525 85.291,54.314 C81.169,64.168 77.089,74.042 72.860,83.850 C70.377,89.610 67.452,95.166 63.131,99.798 C61.591,101.449 59.620,102.692 57.923,104.207 C57.251,104.807 56.564,105.562 56.270,106.384 C54.983,109.995 53.838,113.658 52.637,117.301 C52.087,118.968 51.234,119.326 49.611,118.727 C48.599,118.353 50.858,111.569 55.122,103.380 C57.590,98.097 63.188,93.559 66.573,88.491 C70.413,81.743 72.232,75.882 73.910,72.092 Z" id="path-2" class="cls-4" fill-rule="evenodd"/>
  </g>
</svg>
