<svg xmlns="http://www.w3.org/2000/svg" xmlns:xlink="http://www.w3.org/1999/xlink" preserveAspectRatio="xMidYMid" width="15" height="21" viewBox="0 0 15 21">
  <defs>
    <style>

      .cls-2 {
        fill: #cfcfcf;
      }
    </style>
  </defs>
  <path d="M14.000,6.000 C14.000,6.000 1.000,6.000 1.000,6.000 C0.447,5.982 0.001,5.638 0.001,5.033 C0.001,5.033 0.001,4.660 0.001,4.660 C0.001,4.055 0.470,3.557 1.039,3.557 C1.039,3.557 1.944,3.557 1.944,3.557 C1.944,3.557 2.849,3.557 2.849,3.557 C3.134,3.557 3.352,3.326 3.352,3.023 C3.352,3.023 3.352,1.103 3.352,1.103 C3.352,0.498 3.821,0.000 4.391,0.000 C4.391,0.000 10.624,0.000 10.624,0.000 C11.194,0.000 11.663,0.498 11.663,1.103 C11.663,1.103 11.663,3.041 11.663,3.041 C11.663,3.343 11.881,3.575 12.166,3.575 C12.166,3.575 13.071,3.575 13.071,3.575 C13.071,3.575 13.976,3.575 13.976,3.575 C14.546,3.575 15.015,4.055 14.998,4.660 C14.998,4.660 14.998,5.033 14.998,5.033 C14.998,5.638 14.553,5.982 14.000,6.000 ZM9.938,2.383 C9.938,2.081 9.703,1.832 9.418,1.832 C9.418,1.832 5.614,1.832 5.614,1.832 C5.330,1.832 5.095,2.081 5.095,2.383 C5.095,2.383 5.095,3.557 5.095,3.557 C5.095,3.557 9.938,3.557 9.938,3.557 C9.938,3.557 9.938,2.383 9.938,2.383 ZM2.000,7.000 C2.000,7.000 14.000,7.000 14.000,7.000 C14.017,7.000 13.993,19.932 13.993,19.932 C13.993,20.519 13.540,20.999 12.987,20.999 C12.987,20.999 2.012,20.999 2.012,20.999 C1.459,20.999 1.006,20.519 1.006,19.932 C1.006,19.932 1.000,7.000 1.000,7.000 C2.237,6.997 1.984,7.000 2.000,7.000 ZM10.424,17.318 C10.424,17.816 10.792,18.207 11.261,18.207 C11.731,18.207 12.099,17.816 12.099,17.318 C12.099,17.318 12.099,10.453 12.099,10.453 C12.099,9.955 11.731,9.564 11.261,9.564 C10.792,9.564 10.424,9.955 10.424,10.453 C10.424,10.453 10.424,17.318 10.424,17.318 ZM6.670,17.318 C6.670,17.816 7.039,18.207 7.508,18.207 C7.977,18.207 8.346,17.816 8.346,17.318 C8.346,17.318 8.346,10.453 8.346,10.453 C8.346,9.955 7.977,9.564 7.508,9.564 C7.039,9.564 6.670,9.955 6.670,10.453 C6.670,10.453 6.670,17.318 6.670,17.318 ZM2.916,17.318 C2.916,17.816 3.285,18.207 3.754,18.207 C4.223,18.207 4.592,17.816 4.592,17.318 C4.592,17.318 4.592,10.453 4.592,10.453 C4.592,9.955 4.223,9.564 3.754,9.564 C3.285,9.564 2.916,9.955 2.916,10.453 C2.916,10.453 2.916,17.318 2.916,17.318 Z" id="path-1" class="cls-2" fill-rule="evenodd"/>
</svg>
