<svg xmlns="http://www.w3.org/2000/svg" xmlns:xlink="http://www.w3.org/1999/xlink" preserveAspectRatio="xMidYMid" width="36" height="32" viewBox="0 0 36 32">
  <defs>
    <style>

      .cls-2 {
        fill: white;
      }
    </style>
  </defs>
  <path d="M34.250,15.504 C34.250,15.504 33.690,15.504 33.690,15.504 C33.682,15.585 33.672,15.664 33.652,15.746 C33.652,15.746 30.194,28.736 30.194,28.736 C29.903,29.831 28.735,30.727 27.602,30.727 C27.602,30.727 27.507,30.727 27.507,30.727 C27.507,30.727 27.507,31.367 27.507,31.367 C27.507,31.720 27.139,32.005 26.684,32.005 C26.684,32.005 22.057,32.005 22.057,32.005 C21.603,32.005 21.235,31.720 21.235,31.367 C21.235,31.013 21.235,30.727 21.235,30.727 C21.235,30.727 15.270,30.727 15.270,30.727 C15.270,30.727 15.270,31.367 15.270,31.367 C15.270,31.720 14.902,32.005 14.448,32.005 C14.448,32.005 9.821,32.005 9.821,32.005 C9.367,32.005 8.998,31.720 8.998,31.367 C8.998,31.013 8.998,30.727 8.998,30.727 C8.998,30.727 8.395,30.727 8.395,30.727 C7.263,30.727 6.097,29.831 5.806,28.736 C5.806,28.736 2.349,15.746 2.349,15.746 C2.325,15.663 2.319,15.585 2.308,15.504 C2.308,15.504 1.746,15.504 1.746,15.504 C0.782,15.504 -0.004,14.720 -0.004,13.757 C-0.004,12.790 0.782,12.009 1.746,12.009 C1.746,12.009 5.693,12.009 5.693,12.009 C5.574,12.545 5.574,13.107 5.730,13.653 C5.978,14.511 6.547,15.224 7.331,15.658 C7.824,15.930 8.384,16.074 8.946,16.074 C10.161,16.074 11.278,15.419 11.877,14.353 C11.877,14.353 13.226,12.009 13.226,12.009 C13.226,12.009 22.761,12.009 22.761,12.009 C22.761,12.009 24.120,14.371 24.108,14.345 C24.698,15.414 25.822,16.075 27.038,16.075 C27.602,16.075 28.160,15.930 28.656,15.659 C29.985,14.923 30.601,13.419 30.294,12.009 C30.294,12.009 34.252,12.009 34.252,12.009 C35.221,12.009 36.003,12.791 36.002,13.757 C36.002,14.720 35.220,15.504 34.250,15.504 ZM10.672,19.623 C10.672,19.074 10.227,18.631 9.679,18.631 C9.130,18.631 8.685,19.074 8.685,19.623 C8.685,19.623 8.685,27.163 8.685,27.163 C8.685,27.710 9.130,28.155 9.679,28.155 C10.227,28.155 10.672,27.710 10.672,27.163 C10.672,27.163 10.672,19.623 10.672,19.623 ZM16.220,19.623 C16.220,19.074 15.775,18.631 15.226,18.631 C14.679,18.631 14.234,19.074 14.234,19.623 C14.234,19.623 14.234,27.163 14.234,27.163 C14.234,27.710 14.678,28.155 15.226,28.155 C15.775,28.155 16.220,27.710 16.220,27.163 C16.220,27.163 16.220,19.623 16.220,19.623 ZM21.768,19.623 C21.768,19.074 21.323,18.631 20.775,18.631 C20.226,18.631 19.781,19.074 19.781,19.623 C19.781,19.623 19.781,27.163 19.781,27.163 C19.781,27.710 20.225,28.155 20.775,28.155 C21.323,28.155 21.768,27.710 21.768,27.163 C21.768,27.163 21.768,19.623 21.768,19.623 ZM27.316,19.623 C27.316,19.074 26.870,18.631 26.323,18.631 C25.775,18.631 25.329,19.074 25.329,19.623 C25.329,19.623 25.329,27.163 25.329,27.163 C25.329,27.710 25.775,28.155 26.323,28.155 C26.870,28.155 27.316,27.710 27.316,27.163 C27.316,27.163 27.316,19.623 27.316,19.623 ZM27.881,14.249 C27.614,14.398 27.325,14.468 27.038,14.468 C26.426,14.468 25.830,14.144 25.512,13.570 C25.512,13.570 19.182,2.576 19.182,2.576 C19.033,2.308 18.963,2.015 18.963,1.726 C18.968,1.115 19.291,0.526 19.866,0.207 C20.133,0.060 20.420,-0.008 20.705,-0.008 C21.320,-0.008 21.918,0.314 22.234,0.890 C22.234,0.890 28.563,11.884 28.563,11.884 C28.712,12.153 28.782,12.445 28.780,12.734 C28.777,13.343 28.453,13.934 27.881,14.249 ZM10.475,13.569 C10.157,14.143 9.561,14.468 8.946,14.468 C8.661,14.468 8.374,14.398 8.105,14.249 C7.534,13.934 7.210,13.343 7.205,12.733 C7.203,12.443 7.273,12.152 7.421,11.883 C7.421,11.883 13.752,0.889 13.752,0.889 C14.068,0.314 14.663,-0.009 15.279,-0.009 C15.565,-0.009 15.854,0.059 16.121,0.206 C16.695,0.525 17.018,1.114 17.024,1.726 C17.024,2.015 16.953,2.307 16.804,2.575 C16.804,2.575 10.475,13.569 10.475,13.569 Z" id="path-1" class="cls-2" fill-rule="evenodd"/>
</svg>
