<svg width="32" height="38" viewBox="0 0 32 38" xmlns="http://www.w3.org/2000/svg"><title>android_store</title><g fill="none" fill-rule="evenodd"><g fill="#fff"><g><g><g><path d="M2.33 12.09h-.096C1.004 12.09 0 13.086 0 14.3v9.624c0 1.22 1.003 2.212 2.234 2.212h.097c1.232 0 2.235-.996 2.235-2.212V14.3c-.002-1.214-1.007-2.21-2.235-2.21zM5.634 27.64c0 1.116.923 2.027 2.052 2.027H9.88v5.198c0 1.22 1.006 2.213 2.234 2.213h.096c1.232 0 2.236-.994 2.236-2.213v-5.198h3.066v5.198c0 1.22 1.01 2.213 2.237 2.213h.093c1.232 0 2.235-.994 2.235-2.213v-5.198h2.196c1.128 0 2.05-.91 2.05-2.028V12.442H5.635V27.64zM21.133 3.228l1.742-2.66c.112-.17.063-.4-.11-.508-.168-.11-.4-.065-.51.108L20.447 2.92c-1.355-.548-2.87-.857-4.467-.857-1.6 0-3.11.31-4.468.858L9.71.17c-.112-.173-.345-.22-.516-.108-.172.11-.22.34-.11.507l1.745 2.66c-3.145 1.526-5.265 4.4-5.265 7.696 0 .203.013.403.03.6h20.773c.018-.197.03-.397.03-.6 0-3.296-2.123-6.17-5.265-7.695zm-9.968 4.766c-.552 0-1-.44-1-.988s.448-.986 1-.986c.555 0 1 .438 1 .986s-.448.988-1 .988zm9.63 0c-.552 0-1-.44-1-.988s.448-.986 1-.986c.554 0 1 .438 1 .986s-.446.988-1 .988zM29.725 12.09h-.093c-1.23 0-2.237.996-2.237 2.21v9.624c0 1.22 1.008 2.212 2.237 2.212h.094c1.232 0 2.234-.996 2.234-2.212V14.3c0-1.214-1.005-2.21-2.235-2.21z"/></g></g></g></g></g></svg>