<svg width="31" height="38" viewBox="0 0 31 38" xmlns="http://www.w3.org/2000/svg"><title>apple_store</title><g fill="none" fill-rule="evenodd"><g fill="#fff"><g><g><path d="M25.89 20.092c-.047-4.84 3.933-7.16 4.11-7.275-2.235-3.285-5.72-3.735-6.96-3.787-2.965-.3-5.785 1.752-7.29 1.752-1.5 0-3.822-1.707-6.28-1.662-3.233.048-6.212 1.885-7.876 4.79-3.357 5.848-.86 14.51 2.412 19.252 1.6 2.32 3.506 4.93 6.01 4.836 2.41-.097 3.322-1.566 6.236-1.566 2.915 0 3.734 1.566 6.285 1.518 2.595-.05 4.238-2.366 5.826-4.695 1.836-2.693 2.592-5.3 2.637-5.434-.058-.025-5.06-1.948-5.11-7.728zM20.906 6.226c1.377-1.65 2.307-3.94 2.053-6.226-1.984.08-4.39 1.306-5.813 2.953-1.277 1.46-2.396 3.793-2.096 6.032 2.214.17 4.475-1.112 5.855-2.76z"/></g></g></g></g></svg>