<svg width="130" height="130" viewBox="0 0 130 130" xmlns="http://www.w3.org/2000/svg"><title>book_icon</title><g fill="none" fill-rule="evenodd"><g><g><g><g><path d="M65 130c35.9 0 65-29.1 65-65S100.9 0 65 0 0 29.1 0 65s29.1 65 65 65z" id="Oval-16" fill="#F4F4F4"/><path d="M72.01 129.626l-45.86-50.69 83.95-33.092L129.79 70.24c-2.484 31.128-26.896 56.075-57.782 59.386z" fill="#E9E9E9"/><path d="M35.02 49.514L56.438 72.25l16.897-9.274-8.462-10.34-29.853-3.122z" fill="#E9E9E9"/><g fill="#FDC90C"><path d="M103.998 56.296l-18.6 8.84-14.073 39.68c-.237.662-.95 1.454-1.59 1.756l-6.975 3.315c-.638.3-1.104-.02-1.027-.72l3.64-34.508-4.676 2.22c-8.332 3.957-27.108 8.754-30.426 6.085C23.445 77.477 15 67.445 15 67.445l4.07-1.933 17.83 5.686 56.457-26.84c5.017-2.384 15.512-1.616 17.362 2.2 1.222 2.513-1.644 7.325-6.722 9.738z"/><path d="M54.524 63.292l16.867-8.12L44.597 45.15c-.652-.24-1.695-.18-2.318.13l-6.79 3.408c-.62.314-.654.89-.073 1.28l19.11 13.326z"/></g></g></g></g></g></g></svg>