<svg width="130" height="130" viewBox="0 0 130 130" xmlns="http://www.w3.org/2000/svg"><title>discover_icon</title><g fill="none" fill-rule="evenodd"><g><g><g><g><path d="M65 130c35.9 0 65-29.1 65-65S100.9 0 65 0 0 29.1 0 65s29.1 65 65 65z" fill="#F4F4F4"/><path d="M68.877 129.886L30.92 93.912l68.798-60.708 30.067 37.116c-2.603 32.135-28.58 57.665-60.908 59.566z" fill="#E9E9E9"/><path d="M100 33l-15.923 7.962L65.5 33l-15.923 7.962L31 33v61.038L49.577 102 65.5 94.038 84.077 102 100 94.038V33z" fill="#fff"/><g fill="#FDC90C"><path d="M66.674 39l16.485 6.955c.675.285 1.394.428 2.113.428.823 0 1.644-.185 2.4-.557l8.327-4.1v48.908l-10.9 5.363-16.48-6.955c-.683-.28-1.4-.425-2.12-.425-.823 0-1.644.185-2.4.557L50.235 96 37 90.417V41.19l11.296 4.765c.676.285 1.394.428 2.113.428.822 0 1.643-.185 2.4-.557L66.673 39zM100 33l-15.923 7.962L65.5 33l-15.923 7.962L31 33v61.038L49.577 102 65.5 94.038 84.077 102 100 94.038V33zM55.22 48.196c.273.162.44.49.445 1.05.025 1.92-.434 3.77-.53 5.66-.04.808.298 1.39.635 2.122.507 1.094-.16 1.81-.045 2.903.03.278.272.39.275.684.032 1.628-2.317 5.135-4.42 4.702-1.256-.26-.06-2.36-.674-3.27-.232-.335-1.882-.847-2.38-.836-1.654.05-.567 1.855-.244 2.543.656 1.392.89 2.874 1.81 4.247-.494-.44-1.065-.8-1.75-1.08-.936-.388-1.756.018-2.565-.35-1.2-.544-1.29-1.86-1.914-2.817-.593-.907-2.233-.932-3.01-1.942-.76-.987-.574-2.212-.215-3.292.426-1.28 1-2.202 1.896-3.313.625-.764 1.504-1.898.366-2.614-1.054-.665-2.157-.318-3.1.196-1 .548-1.484.57-1.767-.62-.283-1.186 1.308-2.028 2.112-2.74 2.923-2.587 7.277-1.314 9.72 1.12.143.14 4.02-3.136 5.355-2.35zM45.025 75.252c.228 1.3 1.716.503 2.117 1.51.32.8-.57 1.874-.605 2.624 2.135.488 3.354 2.257 3.344 4.433-.015 3.123 1.015 6.363 3.456 8.18.163-.63.35-1.295.433-1.977.314-2.655-.21-4.99 1.792-7.16.865-.937.69-1.307.624-2.484-.034-.6.086-2.027.564-2.35.603.29 1.82.452 2.356-.028.354-.32.763-2.13.838-2.62.236-1.53-.3-2.75-1.18-3.915-.725-.957-1.848-1.772-3.018-2.02-1.154-.24-2.405-.08-3.494-.615-.51-.25-.945-.6-1.47-.84-.627-.28-1.86-.49-2.33-.992.694.734 1.193 1.814 1.173 2.842-.02 1.07-.645 1.208-1.452 1.71-1.14.706-3.438 2.036-3.148 3.7zM61.987 45.143c-3.334-.81-5.755 1.944-4.762 5.14 1.628 5.244 5.007-3 4.762-5.14zM60.01 57.19c.067 1.235.455 2.43 1.625 2.7.756.173 1.61-.153 2.07-.963.65-1.148-1.13-4.2.876-4.05 1.443.104 1.5 2.336 1.948 3.302.122.06.243.06.365 0 .33-.938.145-2.013.23-2.968 1.695-.46 2.624 2.045 3.018 3.284.326 1.035.988 1.38-.716 1.78-.92.218-1.587.012-2.206-.732-1.03.7-1.584 1.472-2.706 2.05-3.155 1.626-3.994 6.403-2.322 9.645 1.145 2.223 3.796.198 5.174-.48-.06 1.25 1.044 2.5 1.425 3.67 1.11 3.368.31 6.586.288 10.048-.006.698.166 3.356 1.055 3.514 1.02.183 1.904-2.96 2.127-3.694.93-3.023.94-6.14 2.618-8.94.648-1.088 1.823-1.996 1.283-3.364-.54-1.377-3.28-1.644-2.988-3.433-.08.507 2.727 3.106 3.362 3.172 2.962.312.167-3.637 1.055-4.632 1.436-1.598 2.48 2.36 2.562 3.11.225 2.046-.203 4.078-.235 6.12-.013.856-.25 4.376 1.357 3.87 1.248-.394.635-3.122.804-4.078.156-.884 1.09-4.245 1.85-4.647 1.663-.88 2.557 2.874 4.6 2.797.488-1.736.054-2.57 1.38-3.83.975-.93 2.475-1.53 3.052-2.918.45-1.075.6-3.256.285-4.37-.592-2.122-2.608-1.27-4.494-1.76-.083-1.088 1.05-1.612 1.09-2.742.028-.563-.866-.57-.774-1.28.058-.445.725-1.163 1.013-1.533 1-1.314 2.406-2.12 3.856-.705.193-.945-.01-2.05-1.127-2.04-.08-1.17-.86-3.902-2.107-4.516-1.166-.58-1.22.248-2.17 1.166-1.046 1.014-2.35 1.67-3.233 2.658-.82.915-2.5 3.133-3.65 2.257-.614-.473-.477-2.16-.937-2.854-.608-.927-1.002-1.094-2.137-1.266.122-.206.148-.72.296-.958-.346.122-.96.006-1.306.125-.056-1.445 2.155-1.5 2.663-2.49-.966-.08-1.858-.107-2.7.44-.68.443-.837 1.47-1.477 1.78-1.622.79-5.507-1.9-7.29-2.29-2.576-.566-3.95.52-4.973 2.9-.68-.13-1.486-.353-2.02.194.404.533 1.005.787 1.684.88.053.246.06.54 0 .786-.566.124-2.007 1.053-2.354 1.38-.748.706-.86.99-1.007 2.04-.06.54-.117 1.206-.082 1.865zM85.018 84.99c-.246-2.792 2.13-6.05 5.207-6.95-.453.572-1.423 2.33.296 1.892.41-.102 1.55-1.627 1.968-1.932-.503 1.828-.09 2.913.224 4.71.087.494.512 1.946.134 2.403-.61.735-1.41.502-1.607-.395-2.198-.45-3.112 2.622-5.33 2.25-1.837-.306-.356-4.882.357-6.09"/></g></g></g></g></g></g></svg>