<svg width="22" height="22" viewBox="0 0 22 22" xmlns="http://www.w3.org/2000/svg"><title>icon_search_topar_mobile</title><g fill="none" fill-rule="evenodd"><g fill="#3C4245"><g><g><g><path d="M16.5 8.25C16.5 3.694 12.806 0 8.25 0S0 3.694 0 8.25s3.694 8.25 8.25 8.25 8.25-3.694 8.25-8.25zm-8.25 6.188c-3.412 0-6.188-2.776-6.188-6.188S4.838 2.062 8.25 2.062s6.188 2.776 6.188 6.188-2.776 6.188-6.188 6.188zM21.396 18.48l-5.048-5.048c-.752 1.17-1.747 2.164-2.916 2.916l5.047 5.048c.805.805 2.11.805 2.916 0 .805-.805.805-2.11 0-2.917z"/></g></g></g></g></g></svg>