<svg width="36" height="28" viewBox="0 0 36 28" xmlns="http://www.w3.org/2000/svg"><title>pin_map_recherche_home_page</title><g fill="none" fill-rule="evenodd"><g fill="#3C4245"><g><path d="M30.372 15.84l5.543 11.32c.225.46-.012.837-.527.837H.612c-.515 0-.752-.377-.527-.837l5.543-11.32c.09-.18.326-.326.527-.326h4.753c.147 0 .344.09.44.2.323.37.65.733.98 1.092.31.34.622.684.933 1.036H7.62c-.2 0-.438.148-.527.328L3.42 25.668H32.58l-3.67-7.498c-.09-.18-.327-.328-.528-.328h-5.653c.31-.352.623-.696.934-1.037.33-.36.66-.72.983-1.09.095-.11.293-.2.44-.2h4.762c.2 0 .438.146.527.326zM26.15 8.107c0 6.185-5.18 7.345-7.617 13.288-.197.483-.88.48-1.08-.002-2.197-5.36-6.625-6.828-7.473-11.602C9.146 5.09 12.42.487 17.2.037c4.86-.456 8.95 3.332 8.95 8.07zm-3.85 0c0-2.364-1.927-4.28-4.306-4.28-2.38 0-4.307 1.916-4.307 4.28 0 2.365 1.928 4.28 4.307 4.28 2.38 0 4.307-1.915 4.307-4.28z"/></g></g></g></svg>