<svg width="11" height="14" viewBox="0 0 11 14" xmlns="http://www.w3.org/2000/svg"><title>pin_map_discover</title><g fill="none" fill-rule="evenodd"><g fill="#fff"><g><g><g><path d="M5.096 0C2.282 0 0 2.196 0 4.905c0 .208.017.41.044.61.435 3.83 4.72 8.247 4.72 8.247.078.082.15.134.222.17l.004.002.143.043.142-.043h.004c.07-.038.144-.09.22-.172 0 0 4.225-4.423 4.65-8.256.025-.197.043-.398.043-.602C10.193 2.196 7.91 0 5.096 0zm0 8.06c-1.807 0-3.278-1.415-3.278-3.155 0-1.74 1.47-3.155 3.278-3.155s3.278 1.416 3.278 3.155c0 1.74-1.47 3.155-3.278 3.155z"/></g></g></g></g></g></svg>