<svg width="130" height="130" viewBox="0 0 130 130" xmlns="http://www.w3.org/2000/svg"><title>review_icon</title><g fill="none" fill-rule="evenodd"><g><g><g><g><path d="M65 130c35.9 0 65-29.1 65-65S100.9 0 65 0 0 29.1 0 65s29.1 65 65 65z" id="Oval-16" fill="#F4F4F4"/><path d="M66.814 129.975L31.78 99.557l60.455-64.994 37.197 39.07c-4.144 31.23-30.465 55.46-62.618 56.342z" fill="#E9E9E9"/><g fill="#FDC90C"><path d="M69.71 43.14l15.274 16.28 11.23-10.847c1.37-4.672.147-9.75-3.186-13.2-3.336-3.453-8.24-4.72-12.75-3.3L69.71 43.14zM86.19 58.22L70.712 42.078l-29.816 31.56L31.79 99.5l24.584-9.717L86.19 58.22zM39.345 99.5h57.422v-4.533H54.255L39.345 99.5z"/></g></g></g></g></g></g></svg>