<svg width="130" height="130" viewBox="0 0 130 130" xmlns="http://www.w3.org/2000/svg"><title>share_icon</title><g fill="none" fill-rule="evenodd"><g><g><g><g><path d="M65 130c35.9 0 65-29.1 65-65S100.9 0 65 0 0 29.1 0 65s29.1 65 65 65z" fill="#F4F4F4"/><path d="M73.758 129.415l-46.643-56.89s5.62.688 20.582-9.515c14.96-10.203 46.036-31.446 46.036-31.446l35.876 40.608c-3.254 29.638-26.433 53.28-55.852 57.243z" fill="#E9E9E9"/><path d="M84.576 75.032c-4.263 0-8.023 2.04-10.48 5.166l-22.783-11.71c.298-1.12.512-2.274.512-3.49 0-1.323-.254-2.57-.61-3.782L73.9 49.56c2.442 3.266 6.3 5.4 10.68 5.4 7.418 0 13.42-6.03 13.42-13.48C98 34.035 91.998 28 84.58 28c-7.404 0-13.412 6.036-13.412 13.48 0 1.218.214 2.377.516 3.498l-22.777 11.71c-2.46-3.128-6.227-5.175-10.496-5.175C31 51.513 25 57.55 25 64.998c0 7.447 5.998 13.483 13.41 13.483 4.388 0 8.24-2.14 10.694-5.412l22.674 11.657c-.355 1.21-.613 2.466-.613 3.793 0 7.446 6.008 13.482 13.41 13.482 7.42 0 13.422-6.036 13.422-13.482 0-7.454-6.002-13.486-13.42-13.486z" fill="#FDC90C"/></g></g></g></g></g></svg>