<svg width="17" height="42" viewBox="0 0 17 42" xmlns="http://www.w3.org/2000/svg"><title>icon_thermometer</title><defs><linearGradient x1="50%" y1="0%" x2="50%" y2="100%" id="a"><stop stop-color="#E25757" offset="0%"/><stop stop-color="#2895DF" offset="100%"/></linearGradient></defs><g fill="none" fill-rule="evenodd"><g><g><g><path d="M10.015 30.465V10.24c0-.8-.606-1.33-1.523-1.33-.917 0-1.523.67-1.523 1.33v20.228c-1.835.536-3.047 1.997-3.047 3.723 0 2.26 1.986 3.994 4.577 3.994 2.59 0 4.577-1.733 4.577-3.994-.008-1.726-1.228-3.187-3.062-3.723z" id="Shape" fill="url(#a)" transform="translate(0 0)"/><path d="M14.157 28.215V5.25C14.157 2.36 11.61 0 8.493 0 5.375 0 2.828 2.36 2.828 5.25v22.966C1.125 29.655 0 31.755 0 34.122 0 38.453 3.82 42 8.5 42s8.5-3.54 8.5-7.877c-.007-2.367-1.14-4.467-2.843-5.908zm-5.65 11.24c-3.242 0-5.892-2.37-5.892-5.273 0-1.978 1.18-3.688 2.943-4.61V5.177c0-1.447 1.324-2.633 2.942-2.633 1.617 0 2.942 1.186 2.942 2.633v24.386c1.772.923 2.943 2.633 2.943 4.61.015 2.903-2.635 5.28-5.877 5.28z" fill="#3C4245"/></g></g></g></g></svg>