<svg width="14" height="14" viewBox="0 0 14 14" xmlns="http://www.w3.org/2000/svg"><title>icon_zoom</title><g fill="none" fill-rule="evenodd"><g fill="#FCFCFC"><g><g><g><g><path d="M13.577 11.535L10.042 8C9.516 8.82 8.82 9.516 8 10.042l3.535 3.535c.564.564 1.48.564 2.042 0 .564-.563.564-1.478 0-2.042z"/><path d="M5 10c.878 0 1.764-.23 2.543-.69.358-.21.69-.468.997-.775.307-.306.563-.64.773-.998 1.127-1.918.868-4.427-.777-6.073C7.56.488 6.28 0 5 0 3.72 0 2.44.488 1.464 1.464c-1.952 1.953-1.952 5.12 0 7.07C2.44 9.513 3.72 10 5 10zM2 4.05h2.05V2h1.9v2.05H8v1.9H5.948V8H4.052V5.95H2v-1.9z"/></g></g></g></g></g></g></svg>