<svg width="6" height="31" viewBox="0 0 6 31" xmlns="http://www.w3.org/2000/svg"><title>icon_arrow_book_now</title><g fill="none" fill-rule="evenodd"><g><path d="M5.735 5.74l-4.54 4.538c-.273.273-.717.273-.99 0s-.273-.717 0-.99l4.047-4.046L.205 1.195c-.273-.273-.273-.717 0-.99s.717-.273.99 0l4.54 4.54c.138.137.206.318.204.497 0 .18-.068.36-.205.497z" fill="#3C4245"/><path d="M5.735 25.74l-4.54 4.538c-.273.273-.717.273-.99 0s-.273-.717 0-.99l4.047-4.046-4.047-4.047c-.273-.273-.273-.717 0-.99s.717-.273.99 0l4.54 4.54c.138.137.206.318.204.497 0 .18-.068.36-.205.497z" fill="#fff"/></g></g></svg>