<svg width="22" height="20" viewBox="0 0 22 20" xmlns="http://www.w3.org/2000/svg"><title>icon_pig</title><g fill="none" fill-rule="evenodd"><g fill="#F45B26"><g><g><path d="M18.948 15.376S22 13.303 22 9.216C22 3.13 15.505.88 12.012.94c-3.493.062-4.534.975-4.534.975S6.29 1.057 5.03.338C4.065-.035 3.842-.09 3.172.125c-.536 0-.2.886.017 1.205.212.32 1.25 2.084 1.25 2.084S2.26 5.642 2.1 7.107c0-.027-1.026-.01-1.59-.01-.562 0-.51.61-.51.61l.017 4.29s-.035.607.476.607c.51 0 1.592.012 1.592.012s1.524 2.197 2.49 2.597c0 .026-.835 2.277-.835 2.277s-.402.692.322.96c.724.265 2.612 1.052 3.417 1.292.803.24.918-.304.918-.304l.796-1.708 5.21.008.796 1.76s.153.818 1.226.366c1.073-.453 2.244-.99 3.13-1.44.883-.454.3-1.3.3-1.3l-.908-1.748zM4.88 7.966c-.488 0-.884-.394-.884-.88 0-.484.396-.877.884-.877.49 0 .885.392.885.877s-.396.88-.885.88zM17.346 5.23c-.283.33-.467.086-.694.02 0 0-.963-.887-2.378-1.3-1.465-.43-3.008-.222-3.008-.222-.227-.067-.503-.074-.505-.422.013-.43.54-.434.533-.45 0 0 1.736-.158 3.188.266C15.91 3.54 17 4.445 17 4.445s.585.4.346.784z"/></g></g></g></g></svg>