<svg width="23" height="33" viewBox="0 0 23 33" xmlns="http://www.w3.org/2000/svg"><title>icon_super_user</title><g fill="none" fill-rule="evenodd"><g><g><g><g><path d="M22.846 11.057C22.846 4.96 17.714 0 11.418 0 5.122 0 0 4.96 0 11.057c0 4.57 2.875 8.5 6.968 10.183L4.302 32.423l7.383-5.035 7.378 5.035-2.438-11.537c3.685-1.836 6.22-5.548 6.22-9.83zM11.42 19.04c-4.557 0-8.25-3.578-8.25-7.983 0-4.402 3.693-7.98 8.25-7.98 4.548 0 8.25 3.578 8.25 7.98 0 4.405-3.702 7.983-8.25 7.983z" id="Shape" fill="#00ABB7"/><path d="M13 8.915L11.423 4.21 9.844 8.916H4.73l4.135 2.91-1.577 4.702 4.134-2.905 4.135 2.905-1.58-4.702 4.137-2.91H13z" fill="#FDC90C"/></g></g></g></g></g></svg>