<svg width="20" height="20" viewBox="0 0 20 20" xmlns="http://www.w3.org/2000/svg"><title>icon_share_link</title><g fill="none" fill-rule="evenodd"><g fill="#fff"><g><g><path d="M18.446 9.062l-3.755 3.753c-2.07 2.073-5.433 2.073-7.505 0-.327-.326-.582-.692-.806-1.07L8.122 10c.083-.084.186-.132.283-.188.12.412.332.802.656 1.126 1.034 1.036 2.72 1.034 3.753 0l3.753-3.753c1.035-1.035 1.035-2.72 0-3.754-1.034-1.034-2.718-1.034-3.753 0L11.48 4.768c-1.083-.42-2.25-.535-3.386-.368l2.844-2.845c2.074-2.073 5.434-2.073 7.508 0 2.072 2.073 2.072 5.434 0 7.507zm-9.925 6.17L7.186 16.57c-1.035 1.033-2.72 1.033-3.754 0-1.034-1.036-1.034-2.72 0-3.755l3.755-3.753c1.036-1.036 2.718-1.036 3.753 0 .324.323.534.713.656 1.125.098-.057.2-.104.283-.187l1.744-1.744c-.222-.38-.48-.745-.805-1.07-2.072-2.074-5.434-2.074-7.507 0l-3.753 3.752c-2.073 2.074-2.073 5.434 0 7.508 2.073 2.072 5.434 2.072 7.507 0l2.844-2.845c-1.136.168-2.303.054-3.385-.367z"/></g></g></g></g></svg>