<svg width="130" height="38" viewBox="0 0 130 38" xmlns="http://www.w3.org/2000/svg"><title>baracuda</title><g fill="none" fill-rule="evenodd"><path d="M124.417 17.896c.238-.35 1.047-1.656 1.166-2.05.602-2.005 1.268-4 1.7-6.042C127.85 7.14 128.5 4.54 130 2.237V.405h-4.14c-2.715.788-4.807 2.502-6.69 4.567-2.85 3.13-5.616 8.105-9.053 10.944-.016 0-.032 0-.05-.002-4.09-.37-8.18-.742-12.266-1.15-1.536-.152-3.065-.4-4.84-.64 1.14-1.085 2.106-2.01 3.166-3.02-.56-.418-1.01-.82-1.52-1.118-1.464-.856-2.22-2.164-2.513-3.813-.107-.598-.242-1.198-.44-1.77-.456-1.33-1.33-1.69-2.53-.98-.64.376-1.283.84-1.748 1.414-1.81 2.233-4.346 5.405-6.104 7.68-.082.108-.125.248-.175.402-.256-.014-.513-.027-.768-.044-2.934-.195-5.873-.303-8.81-.42-2.967-.12-5.935-.3-8.9-.277-1.57.012-3.14.09-4.71.182.462-.802 1.2-2.09 1.468-2.828.313-.865-.385-1.623-1.284-1.422-.472.105-.92.322-1.37.542.31-.722.447-1.61.766-2.264.424-.874-.103-1.49-1.063-1.404-.612.055-1.217.18-1.85.277-.08-.34-.145-.575-.188-.812-.196-1.067-.435-1.24-1.344-.71-.772.45-1.57.958-2.154 1.623-1.994 2.273-3.91 4.618-5.83 6.957-.344.42-.645.703-1.24.715-5.07.106-10.14.23-15.207.388-4.978.155-9.958.262-14.927.56-3.804.23-7.456 1.2-10.788 3.18-.435.257-.88.547-1.205.926-.127.15.095.85.113.848.977-.102 1.09.602 1.142 1.264.46-.242.887-.656 1.285-.627.44.03.853.466 1.278.725.126.004.713-.306.973-.126.324.223.378.85.572 1.368l.83-.746 4.022 1.58c-.11-.028-.217-.043-.326-.05-1.975-.144-3.77.12-5.743-.03-.474-.038-1.043 0-1.385-.255-.332-.244-.428-.82-.547-1.076l-1.395.856-.59-1.594c-.393.096-.905.202-1.402.354-.19.057-.345.223-.516.34v.916c.835.623 1.672 1.243 2.503 1.87.93.7 1.76 1.652 2.8 2.06 1.772.692 3.65 1.22 5.527 1.5.722.106 1.44.148 2.146.11-.003 0-.006 0-.01.002 1.167.43 2.71.59 4.324.51 1.033.094 2.108.025 3.135-.183 1.094.106 2.986.278 3.526.328.045.014.1.007.15.015 4.743.712 9.485 1.44 14.232 2.13 1.446.21 2.895.333 4.34.317-.004.512-.014 1.116.004 1.742-.01 1.224.047 2.443.796 3.536.66.965 2.06 1.064 2.937.243.155-.145.613-.64.835-.968 1.024 1.004 2.245 1.806 3.71 2.357h.18c.913-.35 1.446-1.02 1.69-1.973.434-1.7.39-3.39-.12-5.053 0-.005-.002-.008-.003-.01.503.197 1.2.247 1.512.262 4.852.242 9.704.495 14.557.717.776.035 1.58.038 2.332-.123 4.128-.883 9.845-.803 13.963-1.735.233-.053.444-.202.66-.324.09.21.19.41.338.557 2.84 2.83 5.682 5.668 9.186 7.68h.9c.194-.435.56-.872.556-1.305-.027-2.734-.077-5.472-.267-8.198-.04-.568-1.136-1.88-1.568-2.516 1.014-.372 2.028-.742 3.05-1.09 5.03-1.705 10.1-2.947 15.398-1.188.198.066.438 0 .678-.066.6.59 2.463 2.296 2.66 2.49.71.7 1.41 1.416 2.167 2.063 2.714 2.324 5.77 3.937 9.324 4.418.446.06 1.134-.074 1.35-.38.188-.268-.044-.95-.248-1.372-.856-1.77-1.878-3.468-2.635-5.28-.736-1.762-1.19-3.642-1.835-5.446-.162-.455-.42-.88-.696-1.29.115-.075.226-.192.33-.348z" fill="#000"/></g></svg>