<svg width="130" height="71" viewBox="0 0 130 71" xmlns="http://www.w3.org/2000/svg"><title>clownfish</title><g fill="none" fill-rule="evenodd"><path d="M58.778 19.928c2.043-1.172 3.94-2.127 5.67-3.325.594-.412.952-1.395 1.1-2.178.27-1.412.095-2.925.47-4.296.837-3.056 4.184-5.534 7.396-5.93.69-.086 1.512-.624 1.917-1.203 1.353-1.935 2.593-2.344 4.956-1.806 1.154.264 2.472.188 3.64-.075 1.97-.444 3.667-.195 5.15 1.418.072-1.95 1.013-2.48 2.44-1.354.91.715 1.763 1.775 2.133 2.855 1.737 5.072 5.323 8.494 9.782 11.022 3.227 1.828 6.807 3.036 10.018 4.887 2.584 1.49 4.967 3.396 7.23 5.358 2.47 2.14 4.764 4.496 7.013 6.872 1.787 1.886 2.776 4.104 2.086 6.834-.288 1.133-.075 2.45-.55 3.47-3.158 6.8-9.615 9.78-15.717 12.97-3.806 1.99-8.017 3.202-12.036 4.79-.344.136-.694.422-.89.733-1.042 1.635-2.102 3.263-3.032 4.96-2.708 4.94-11.057 5.83-14.986 3.27-1.645-1.07-1.817-2.57-1.828-4.073-.014-1.972-1.176-2.718-2.7-3.058-2.53-.565-5.095-.966-7.655-1.372-2.97-.472-5.95-.894-8.933-1.29-.468-.06-1.276-.02-1.404.237-.773 1.55-2.164 1.826-3.632 2-3.605.422-7.22.768-10.816 1.256-3.91.532-7.662-4.057-7.067-7.81.295-1.86.216-3.733-1.436-5.28-2.077-1.944-4.354-1.49-6.427-.6-3.307 1.422-6.4 3.334-9.644 4.914-1.973.96-4.02 1.802-6.105 2.474-1.477.476-2.49-.546-2.884-1.838-.546-1.786-1.606-2.813-3.316-3.515-.798-.328-1.41-1.304-1.915-2.11-.97-1.544-1.514-3.282-3.743-3.767-1.457-.317-2.353-2.86-1.625-4.366 1.256-2.6.45-4.7-.897-6.94-1.344-2.233-.07-5.93 2.383-6.707 1.585-.5 2.71-1.336 3.56-2.798.456-.786 1.387-1.337 2.188-1.867 1.047-.692 2.182-1.248 3.27-1.88 1.483-.865 3.21-.538 4.65.77 2.654 2.404 5.376 4.734 8.028 7.14 2.09 1.893 4.48 1.813 6.983 1.244.643-.146 1.336-.188 1.917-.465.607-.29 1.327-.692 1.616-1.244 1.238-2.372 2.26-4.977 5.018-5.93 2.138-.74 3.65-1.86 4.96-3.798 1.387-2.05 4.047-2.048 6.318-1.98 2.81.088 5.546.702 7.342 3.38z" fill="#000"/></g></svg>