<svg width="130" height="67" viewBox="0 0 130 67" xmlns="http://www.w3.org/2000/svg"><title>dolphin</title><g fill="none" fill-rule="evenodd"><path d="M127.935 41.21c-.907-1.036-1.942-1.96-2.89-2.963-.23-.244-.417-.6-.472-.932-.61-3.727-2.4-6.707-5.632-8.683-1.568-.96-3.29-1.66-4.907-2.544-1.13-.618-2.256-1.272-3.29-2.038-6.98-5.18-14.383-9.545-22.745-12.113-3.255-1-6.614-1.34-9.982-1.648-1.268-.117-2.54-.206-3.804-.358-.334-.04-.702-.204-.958-.424-2.965-2.554-6.137-4.812-9.53-6.753-2.03-1.16-4.156-2.12-6.453-2.648-.632-.146-1.31-.237-1.698.38-.416.662-.102 1.29.362 1.852 1.656 1.998 2.4 4.418 3.1 6.852.187.65.353 1.31.47 1.976.24 1.404-.015 1.92-1.258 2.617-.543.305-1.113.564-1.663.857-9.656 5.142-18.424 11.535-26.42 18.99-4.02 3.75-7.835 7.707-10.89 12.325-.43.65-.873 1.308-1.19 2.017-.646 1.438-1.79 2.208-3.184 2.806-4.226 1.81-8.426 3.68-12.63 5.542-.294.13-.585.276-.868.435-.61-.255-1.15.334-1.09.86-.103.143-.203.296-.312.432.31.197.6.513.935.57 1.177.2 2.367.43 3.553.433 2.885.01 5.77-.1 8.656-.164.363-.01.728-.008 1.09-.024 1.95-.09 3.396.586 4.232 2.488.83 1.886 2.25 3.35 3.76 4.715.11.1.23.192.357.275.174.168.42.26.652.25.212.012.385-.062.49-.24.066-.084.117-.19.144-.324.13-.64.16-1.283.088-1.908.016-.362.028-.725.028-1.087 0-3.467-.006-6.935-.07-10.4-.028-1.546.752-2.49 1.938-3.323 5.794-4.065 12.14-6.752 19.102-8.06 8.265-1.552 16.608-2.01 24.99-2.056.102 0 .203.023.307.035-.27.975-.14 1.29.822 1.564.718.205 1.47.335 2.215.396 5.462.442 10.912.23 16.356-.315.783-.078 1.573-.097 2.36-.144l.054.203-5.433 2.823c-.593.307-1.362.536-1.267 1.382.102.906.958.94 1.624 1.06.737.133 1.497.183 2.248.19 3.12.03 6.238.055 9.356.028 1.544-.014 2.96-.502 4.2-1.46 1.486-1.15 3.132-1.775 5.05-1.752 1.4.017 2.8-.212 4.2-.234.69-.01 1.446.055 2.06.335 1.814.827 3.733 1.093 5.667 1.28 1.383.336 2.78.61 4.187.823.444.15.882.32 1.317.513.772.342 1.622.584 2.46.685 1.56.186 2.698-1.424 1.986-2.85-.458-.918-1.102-1.768-1.78-2.544z" fill="#000"/></g></svg>