<svg width="164" height="75" viewBox="0 0 164 75" xmlns="http://www.w3.org/2000/svg"><title>dugong</title><g fill="none" fill-rule="evenodd"><path d="M156.538 3.426c-8.296 2.15-16.613 4.288-25.022 5.927-5.937 1.158-10.732-1.197-13.886-6.485-.38-.637-.887-1.198-1.74-2.333-.488 2.392-.938 4.13-1.18 5.893-.467 3.387-.62 6.826-1.262 10.176-.865 4.522-2.867 5.722-7.39 4.82-2.08-.417-4.164-.86-6.195-1.464-10.96-3.25-21.886-6.384-33.457-7.036-14.212-.8-28.06.66-41.035 6.416-7.974 3.536-15.31 8.492-22.928 12.823-.252.143-.558.39-.616.64-.655 2.83-1.52 5.643-1.807 8.512-.147 1.455.55 2.48 1.662 3.134-.002 0-.005 0-.007-.002 5.526 4.57 11.77 5.47 13.412 2.74h-.003c.965-.28 1.752-.953 2.674-2.174l-.004.007c-.88 1.665-1.94 4.198-1.5 5.517.857 2.562 3.806 2.58 6.282 2.53 1.202-.027 2.413-.212 3.594-.452 2.577-.522 2.96-2.318 2.042-4.32-.627-1.368-1.783-2.496-2.723-3.72l-.016-.018h.002l.013.017.032.012-.026-.027-.084-.083c.836.51 1.804.888 2.482 1.556 1.71 1.685 2.962 4.188 4.983 5.138 1.756.826 3.612 1.527 5.527 2.127l-.052-.012c0 1.85-.048 4.69.045 6.385.25 4.57 2.135 8.512 5.124 11.893 2.606 2.947 5.64 2.75 7.098-.26 1.57-3.238-.626-13.793-3.397-15.974l-.005-.006c2.525.404 5.068.685 7.563.865.842 2.81 1.342 5.694 1.382 8.728.05 3.915 2.324 6.8 5.335 9.01 2.613 1.916 4.335 1.223 5.46-1.754.53-1.405 1.405-2.712 1.74-4.15.443-1.91 1.186-4.126.622-5.825-.72-2.168-1.53-4.3-2.48-6.355.895.973 2.13 1.66 3.807 1.58 14.206-.686 27.25-5.018 38.92-13.074 6.416-4.427 11.316-10.21 14.093-17.8-3.794.353-5.85 2.53-6.964 5.904-.414-3.41 1.636-5.086 4.168-5.924 3.335-1.104 6.81-1.86 10.274-2.495 12.566-2.3 22.52-8.72 30.213-18.7 1.057-1.37 1.6-3.13 2.693-5.335-3.067 1.44-5.16 2.83-7.462 3.426" fill="#000"/></g></svg>