<svg width="130" height="66" viewBox="0 0 130 66" xmlns="http://www.w3.org/2000/svg"><title>eels</title><g fill="none" fill-rule="evenodd"><path d="M130 46.59c-.513 1.565-.878 3.2-1.566 4.683-2.882 6.216-8.255 9.224-14.45 11.17-9.29 2.92-18.83 3.693-28.44 2.85-7.882-.69-15.708-2.02-23.56-3.063-.5-.067-1.005-.113-1.472-.165-1.872 3.704-4.445 4.83-8.556 3.22-2.332-.915-4.355-2.608-6.563-3.87-.627-.36-1.424-.642-2.125-.608-3.19.157-6.37.59-9.56.648-7.552.14-14.848-1.25-21.85-4.133-.21-.086-.472-.126-.617-.277-.642-.666-1.628-1.305-1.75-2.073-.098-.602.89-1.38 1.126-1.71.164-.935.08-1.683.408-2.115 1.6-2.106 3.73-3.502 6.247-4.306 3.895-1.243 7.817-2.408 11.668-3.777 6.922-2.46 14.082-2.564 21.293-2.54 10.89.04 21.582 1.937 32.346 3.174 3.225.37 6.5.51 9.742.402 1.132-.038 2.49-.896 3.287-1.79 1.495-1.684 3.023-3.107 5.388-3.696-2.052-.5-4.097-1.032-6.157-1.494-8.838-1.98-17.174-5.283-25.298-9.276-3.45-1.695-7.15-3.4-10.885-3.844-4.27-.507-8.745.105-13.06.734-6.026.88-11.612 3.162-16.857 6.34-3.998 2.424-8.283 4.214-13.105 3.785-4.476-.4-8.22-1.908-11.537-5.453-2.94-3.14-3.5-6.49-3.694-10.3-.056-1.073-.263-2.14-.4-3.21v-3.104c1.262-3.967 4.097-6.497 7.583-8.46C11.74 1.997 15.935-.188 20.903.02c.286.012.616-.075.85.04.946.463 2.24.78 2.664 1.56.3.552-.35 2.033-1 2.623-2.23 2.02-4.604 3.884-7.005 5.7-2.135 1.614-4.38 3.082-6.57 4.623-.184.13-.4.29-.477.486-.498 1.29-.96 2.59-1.435 3.89 1.157.11 2.32.348 3.47.306 5.778-.21 10.478-3.28 15.282-6.007 4.54-2.577 9.176-4.898 14.373-5.77 9.385-1.574 18.765-1.71 28.002.85 2.648.732 5.028 2.406 7.655 3.262 7.594 2.472 15.326 4.362 23.27 5.407 3.423.45 7.076.934 10.073 2.482 7.126 3.683 14.342 7.557 17.934 15.45.886 1.95 1.35 4.095 2.01 6.15v5.518z" fill="#000"/></g></svg>