<svg width="134" height="44" viewBox="0 0 134 44" xmlns="http://www.w3.org/2000/svg"><title>gobie</title><g fill="none" fill-rule="evenodd"><path d="M58.07 1.392l.18.58-.818-.52c.09.793-2.09.342-.113.9-.08.08-1.205-.08-1.752.04l.234.49-.534-.317.16.657c-1.033-1.15-3.235 1.573-4.374.912-.112.15-.078.297.102.445-.558-.264-2.108.133-2.098.563l-.573-.183.297.507c-.442-.084-1.197.14-1.078.68-1.616-.933-3.967 1.467-5.16 2.067 1.59 1.697 2.926 4.256 5.29 5.4 2.914 1.41 6.268 1.608 9.273 2.737-4.088 1.793-10.267 1.077-14.664 1.14-2.373.035-4.87.27-7.234.01-1.343-.147-2.18-.792-3.282-1.474-.867-.538-1.83-.486-2.688-.952-2.12-1.15-5.807-2.274-8.355-2.23-1.65.028-3.215-.68-4.838-.31-1.475.04-3.558-1.063-4.803.196.367.2.735.4 1.102.602-.453.96-1.81-1.607-2.05 0-.698-.316-1.3.204-1.878.653-.6.467-2.122.613-1.555 1.258-.57.077-1.4.825-1.324.848.217-.17-1.01.854-.718.873-.016-.322-1.69.88-1.992 1.148-.895.797-1.926 3.238-1.546 3.217-.26.052-1.702 3.55-1.165 3.777-.193.063 2.02 3.593 1.82 3.625 1.606 1.696 3.34 3.057 5.276 4.26 2.012 1.248 4.41 1.105 6.673 2.145 2.116.972 4.763.886 7.05.574 1.03-.142 2.033-.384 3.064-.512.41-.05 1.825-.92 2.03-.877-.338 1.046 1.02.322 1.528.06.978-.505 2.213 0 2.86-1.03l-.04.54.444-.765c.31.05.35.305.115.765 1.708-.997 3.116-2.097 5.13-2.182 2.41-.1 4.825-.093 7.238-.097 4.453-.007 9.414-.47 13.75.662-1.577 1.397-3.762 2.103-5.723 2.846-2.71 1.027-4.338 2.665-5.46 5.41 1.703.567 3.095 1.655 5.128 1.94.758.106 1.338.135 2.082-.024.458-.098.17.396.48.517.744.29 1.908.464 2.495-.176-.723 2.14 1.582-.61 1.977.416-.204.09-.408.18-.612.272.22.042 1.097.042 1.042.346.832-.498 4.217-.29 5.55-.174.093.62 4.88.452 5.398-.663l.07.697 1.073-1.26-.194.848c.604-.996 4.894-1.688 4.232-3.582.01.03 1.923-3.278 2.096-3.656.322-.702.618-1.414.925-2.123 1.04 0 1.632.136 2.595.536-.29.304-.95.772-.968 1.22 1.46.1 2.705-.437 4.158-.54 1.698-.12 3.398-.196 5.096-.327 3.346-.26 6.695-.624 10.052-.624.207 1.375-10.94 2.55-11.885 4.66.33-.02.64-.113.925-.278l-.486.547c1.147.136 1.784.572 2.762.176-.204.93 2.438.337 3.204.247.98-.116 2.863-.084 3.492-.936.33 1.01 2.985-.856 3.87-1.298l-.204.295c2.52-.964 3.12-3.872 6.053-3.92 3.718-.064 7.453-.106 11.152-.505 4.252-.458 14.814-.38 15.834-6.144-.374.02-1.536.383-1.65.07 3.693-1.376 2.77-6.325-.543-8.01-1.94-.987-4.324-2.355-6.393-2.992-1.106-.34-2.51.014-3.68-.2-1.396-.256-2.766-.635-4.16-.898-2.964-.56-6.024-.757-9.03-.955-2.827-.184-6.288.207-9.018-.532-1.352-.367-1.476-4.567-1.85-5.755-.775-2.466-1.817-4.56-3.422-6.585-.387.148-.288 1.012-.327 1.375-.28-.372-.423-.306-.43.2-.35-.6-.965-2.31-1.807-2.364 0 2.38-.647 2.49-2.273.895-.26 1.07-.306 2.29-1.245 3.003-.502.382-1.35-1.426-1.91-1 .74 2.403.604 3.128-1.992 1.93.288 1.096.865 2.37-.13 3.3-1.047.98-1.46.322-2.603.447.255.944 1.635 4.725-.713 4.632-1.933-.077-1.847.03-2.42-1.863-.418-1.387-.893-2.692-1.7-3.904-1.55-2.33-2.972-4.113-5.327-5.558-1-.612-3.876-2.653-4.976-1.73C65.304-.504 64.48.33 63.79.143c-.975-.266-2.587.146-2.545.777-1.51-.962-.125.45-1.446-.238l.236.58c-.92-.405-1.242-.253-.966.457-.348.264-.68.155-1-.328z" fill="#000"/></g></svg>