<svg width="115" height="57" viewBox="0 0 115 57" xmlns="http://www.w3.org/2000/svg"><title>grouper</title><g fill="none" fill-rule="evenodd"><path d="M48.254 0h8.09c.52.082 1.035.19 1.556.24 4.31.42 8.64.694 12.928 1.27 8.12 1.092 15.78 3.47 22.35 8.626 2.158 1.695 4.152 3.432 3.026 6.81 1.592-.99 3.146-1.92 4.245-3.23 2.05-2.44 4.518-4.292 7.198-5.926.82-.5 1.8-.9 2.5-.082.445.52.58 1.444.57 2.182-.042 2.633-.468 5.286-.245 7.888.208 2.445.855 4.906 1.68 7.228.66 1.853 1.877 3.51 2.847 5.254v2.306c-.695 1.503-1.944 1.907-3.458 1.647-.896-.154-1.78-.4-2.65-.67-2.985-.926-5.95-1.92-8.943-2.81-2.602-.773-5.174-.486-7.948.366 3.67 1.548 4.883 4.467 3.553 7.96-1.04 2.73-3.082 4.21-5.883 4.736-4.817.903-9.472.006-14.097-1.273-.568-.157-1.268-.3-1.782-.11-5.49 2.022-10.956 4.11-16.234 6.11.07 1.34.382 2.915.185 4.425-.414 3.182-2.455 4.483-5.645 3.927-3.96-.69-6.494-3.152-8.188-6.6-.413-.84-.878-1.216-1.837-1.238-2.356-.055-4.71-.197-7.063-.36-6.732-.463-13.46-1.085-19.81-3.54-3.76-1.453-7.394-3.237-11.043-4.96-1.446-.684-2.777-1.61-4.16-2.424v-1.73c.323-.763.628-1.535.974-2.288.287-.626.547-1.283.954-1.827.417-.557 1.098-.924 1.49-1.493 3.603-5.21 8.193-9.374 13.462-12.846 6.438-4.242 13.015-8.183 20.61-10.078.55-.137 1.09-.592 1.48-1.036C41.53 3.533 44.377 1.036 48.253 0z" fill="#000"/></g></svg>