<svg width="55" height="84" viewBox="0 0 55 84" xmlns="http://www.w3.org/2000/svg"><title>jellyfish</title><g fill="none" fill-rule="evenodd"><path d="M15.732 55.098c.008-.254.017-.508.022-.762.02-1.03-.27-1.214-1.207-.822-.824.344-1.3.948-1.404 1.8-.123 1.007-.53 1.78-1.42 2.363-.282.183-.444.756-.42 1.137.06 1.003.253 2 .386 3 .01.088-.014.2-.062.275-.323.513-.144 1.04-.163 1.57-.027.78-.104 1.422.508 2 .056.054-.065.285-.098.435-.074.33-.126.668-.223.99-.07.23-.15.488-.31.65-.503.498-1.045.956-1.572 1.43l.24.298c.338-.19.774-.308 1-.588.72-.895 1.358-1.852 2.032-2.782.38-.524.625-1.032.12-1.643-.128-.153-.158-.53-.056-.7.672-1.11-.53-2.477.51-3.534.052-.053-.058-.306-.14-.437-.407-.644-.11-1.02.422-1.43.354-.272.807-.738.79-1.098-.044-.975.396-1.614 1.077-2.188.076.487.044 1.025.25 1.452.502 1.038.403 1.96-.283 2.858-.388.51-.8 1.005-1.13 1.55-.877 1.445-.503 2.506 1.174 3.287-.123-.366-.22-.692-.34-1.01-.272-.71-.094-1.32.592-1.613.78-.333 1.11-.87 1.22-1.654.047-.336.228-.66.384-.972.388-.773.49-1.522.15-2.372-.322-.81-.25-1.612.55-2.228.543-.416.802-.94.53-1.676-.217-.59.003-.99.715-1.186.378-.105.858-.528.933-.88.147-.695.497-.987 1.122-1.265 1.09-.485 2.01-1.16 1.883-2.598-.028-.32.324-.734.598-1.012 1.035-1.052 1.12-1.58.542-2.916-.19-.44-.397-1.075-.214-1.43.406-.79.693-1.504.435-2.403-.063-.22.186-.644.415-.802.768-.534.81-1.227.662-2.036-.152-.84-.026-1.563.875-2.01.77-.383.854-1.017.315-1.662-.472-.566-.934-1.05-.227-1.79.15-.16.005-.665-.105-.976-.264-.742.63-1.99 1.435-1.858.842.138 1.312-.197 1.566-.92.23-.648.638-.91 1.347-1.025.457-.074.853-.57 1.257-.898.448-.363.863-.767 1.316-1.124.35-.274.805-.44 1.09-.762.59-.668.81-1.5.376-2.31-.426-.79-1.287-.77-2.07-.738-.94.04-1.052.79-1.232 1.48-.298 1.135-.884 1.514-2.08 1.617-.492.04-1.156.252-1.393.61-.44.668-.944.846-1.69.84-1.126-.005-1.893.615-2.028 1.67-.108.846-.276 1.488-1.246 1.815-.765.258-.896 1.103-.278 1.516.983.658.694 1.125.02 1.782-.51.494-.515 1.038.24 1.47.886.507.943.974.298 1.773-.216.268-.496.504-.788.693-1.244.802-1.37 1.277-.655 2.526.298.52.38 1.073-.185 1.453-1.05.708-.91 1.23-.18 2.134.18.224.34.472.464.73.49 1.008.278 1.5-.596 2.204-.4.322-.73.905-.805 1.41-.293 2.018-.25 2.024-2.243 2.462-1.29.284-1.64.766-1.68 2.05-.01.39-.18.98-.462 1.12-1.057.52-1.1 1.256-.646 2.135.306.595.258 1.075-.228 1.528zm38.866-38.896c-.23-1.837-.29-3.185-.58-4.48C52.547 5.206 47.515.764 40.977.154c-6.64-.62-11.816 2.32-15.974 7.22-.793.936-.593 1.92.436 2.613.288.194.622.347.958.444.834.243 1.19.757 1.184 1.618-.015 2.12.47 2.698 2.6 3.218.74.182 1.31.55 1.484 1.332.268 1.212 1.095 1.78 2.277 1.858 1.275.085 2.087.674 2.558 1.85.4.998 1.278 1.516 2.246 1.236 1.313-.38 2.155.093 2.916 1.09.9 1.178 1.624 1.283 2.92.567 1.23-.678 1.56-.637 2.547.32 1.353 1.314 1.847 1.28 2.977-.193.54-.707 1.163-1.083 2.078-.6.675.358 1.066-.016 1.2-.633.454-2.11.872-4.225 1.213-5.892zM14.115 38.624c-.355-3.187.748-5.96 2.688-8.356 1.794-2.215 3.853-4.22 5.77-6.34 2.118-2.345 4.04-4.82 4.872-7.93.103-.384-.02-.827-.04-1.243l-.357-.074c-.307.35-.67.663-.91 1.05-2.58 4.117-5.638 7.842-9.047 11.33-3.178 3.25-5.18 7.07-4.717 11.8.206 2.1-.46 3.818-2.368 4.96-.385.23-.715.546-1.082.807-3.01 2.142-5.598 4.68-7.173 8.034-.58 1.237-.78 2.648-1.152 3.98.102.04.205.08.307.122 1.85-5.142 5.066-9.166 9.965-11.835-.6 1.15-1.31 2.23-2.014 3.315-1.27 1.957-2.748 3.818-3.763 5.897-1.958 4.007-2.32 8.262-1.228 12.605.21.836.467 1.66.702 2.492.198-.242.185-.428.142-.608-.647-2.7-.792-5.42-.38-8.165.687-4.592 2.66-8.603 5.608-12.195 1.427-1.737 2.67-3.603 3.407-5.75.08-.234.256-.433.374-.655.863-1.63 1.886-3.198 2.547-4.904.945-2.433 1.998-4.783 3.784-6.718 2.31-2.5 4.747-4.887 7.05-7.394 1.1-1.2 2.058-2.537 3.002-3.865.35-.493.527-1.237-.202-1.56-.25-.108-.933.303-1.16.644-2.465 3.71-5.498 6.933-8.684 10.038-2.596 2.53-4.51 5.48-5.388 9.022-.127.513-.366 1-.553 1.497zm18.683-1.1c.073.043.145.088.217.133-.117.104-.222.28-.353.3-.815.137-1.155.554-1.045 1.39.026.193-.256.566-.462.623-.942.264-1.12.852-.892 1.688.14.52.197.977-.463 1.27-.2.088-.253.54-.334.837-.118.436-.16 1.25-.306 1.265-1.27.138-1.974.982-2.692 1.844-.037.044-.118.05-.174.08-.894.497-1.79.988-2.674 1.5-.113.066-.155.25-.227.375 1.048.69 3.1.76 3.984.01.654-.556 1.258-.914 2.145-.786.208.03.586-.225.68-.437.454-1.03.824-2.105 2.083-2.47.158-1.323 1.05-2.402 1.38-3.58.275-.977.53-1.537 1.4-1.977 1.21-.61 1.38-1.367.88-2.612-.184-.463-.105-1.027-.154-1.545-.06-.664.02-1.39-.23-1.98-.417-.984-.588-1.73.64-2.387.292-.157.566-.703.532-1.038-.137-1.322.082-1.714 1.312-2.31.71-.343 1.526-.714 1.957-1.31.364-.502.425-1.383.288-2.028-.16-.742-.947-1.035-1.696-1.014-.766.022-1.47.27-1.746 1.11-.18.542-.278 1.136-.58 1.603-.24.372-.734.83-1.113.828-.99-.007-1.287.443-1.41 1.3-.08.54-.216 1.27-.597 1.53-.9.615-1.18 1.28-.695 2.283-.85.217-.775.647-.46 1.24.206.385.246.86.342 1.3.08.37.12.75.21 1.117.05.205.225.388.245.59.04.416.01.837.01 1.256zm9.83-12.596l-.77-.46c-.278.474-.516.978-.842 1.418-2.167 2.93-3.508 6.126-3.55 9.815-.024 2.084-.63 3.992-2.027 5.65-.714.846-1.295 1.83-1.78 2.828-.556 1.147-.946 2.374-1.397 3.57-.677 1.798-1.782 3.285-3.51 4.174-1.6.824-3.276 1.512-4.95 2.18-1.644.658-2.64 1.818-2.988 3.493-.168.806-.137 1.65-.254 2.47-.183 1.284-.26 2.61-.667 3.826-.476 1.43-1.255 2.76-1.89 4.106 2.625-2.21 3.71-4.643 3.918-8.765.09-1.797.863-3.135 2.608-3.902 1.59-.698 3.134-1.497 4.687-2.272 2.458-1.225 4.147-3.05 4.825-5.76.47-1.875 1.445-3.505 2.65-5.06.813-1.054 1.364-2.378 1.743-3.665.626-2.124.876-4.36 1.55-6.467.62-1.932 1.612-3.745 2.386-5.632.193-.47.178-1.025.26-1.542zm-7.148 21.75c.114.09.228.18.342.268 1.155-1.234 2.47-2.36 3.422-3.73 1.12-1.617 2.532-2.756 4.245-3.657 2.388-1.258 3.067-3.006 1.912-5.407-.92-1.91-.87-3.706-.143-5.607.303-.794.555-1.636.63-2.474.035-.395-.4-.832-.623-1.25-.397.218-.942.34-1.167.67-1.77 2.61-2.3 5.332-.64 8.227 1.253 2.182.905 3.375-1.34 4.61-1.22.67-2.154 1.59-2.915 2.733-.865 1.3-1.817 2.545-2.698 3.836-.385.563-.687 1.182-1.027 1.777zm-.206-22.227c-1.007.514-2.148 1.04-3.226 1.673-.378.22-.596.703-.9 1.055-.292.34-.538.792-.915.972-.93.445-1.282 1.066-1.1 2.075.064.364.005.896-.227 1.134-.54.552-.34.928.07 1.387.526.59.606 1.12.065 1.86-.566.775-.972 1.72-1.213 2.65-.135.516-.115.972-.694 1.204-.547.22-.607.543-.264 1.05.14.206.137.716-.02.872-.5.493-.52.994-.27 1.57.297.676.204 1.223-.276 1.847-.442.574-.63 1.34-.93 2.02 1.315-.61 1.584-1.07 2.075-2.123.35-.75.908-1.424 1.46-2.06.353-.404.718-.688.45-1.308-.27-.633-.022-1.188.502-1.616.583-.474.708-1.06.648-1.793-.04-.494.252-1.007.316-1.522.06-.493.042-1 .018-1.497-.038-.792-.343-1.668-.09-2.348.187-.497.288-1.283.53-1.46.974-.715.973-2.096 1.738-2.652 1.192-.865 1.698-2.014 2.252-2.99zM8.5 84.074c.1-.315.206-.63.304-.945 1.282-4.112 4.147-6.803 7.987-8.602 3.59-1.683 5.98-4.33 7.062-8.15.675-2.384 1.495-4.73 2.3-7.076.36-1.05.877-2.047 1.25-3.093.107-.3-.036-.686-.065-1.033-.357.126-.857.15-1.043.4-.49.657-.975 1.373-1.228 2.14-.805 2.446-1.594 4.903-2.223 7.396-.967 3.83-3.274 6.54-6.688 8.486-1.42.81-2.8 1.723-4.065 2.748-2.434 1.972-3.686 4.56-3.59 7.73zM24.902 68.64c.282-.32.472-.524.652-.737 1.47-1.75 2.42-3.78 2.973-5.952.963-3.784 3.403-6.146 6.958-7.624 1.14-.474 2.234-1.144 3.2-1.91 2.96-2.343 2.993-5.486 2.18-8.53-.073-.268-.456-.455-.694-.68-.17.302-.45.59-.49.908-.13.977-.098 1.978-.26 2.948-.392 2.365-1.385 4.37-3.688 5.512-.923.457-1.84.924-2.74 1.426-2.535 1.416-4.292 3.44-4.947 6.295-.22.96-.297 1.973-.66 2.876-.717 1.79-1.588 3.522-2.484 5.47zM7.786 60.536l.31-.003c0-.443-.04-.89.007-1.328.284-2.61 1.374-4.912 3.016-6.92 1.15-1.408 2.493-2.677 3.826-3.93 1.738-1.633 2.98-3.468 3.327-5.885.454-3.15 1.397-6.178 2.8-9.06.278-.57.877-1.318.037-1.75-.818-.418-1.154.46-1.466 1.02-1.295 2.322-1.822 4.884-2.165 7.46-.45 3.37-1.574 6.352-4.23 8.648-.46.398-.865.866-1.262 1.33-1.607 1.875-3.194 3.765-3.97 6.165-.458 1.416-.324 2.834-.232 4.254zm5.826-31.13c1.033-1.06 1.462-2.156 1.612-4.276.147-2.064.498-2.93 3.23-3.778 1-.312 2.098-.66 2.856-1.32 1.365-1.19 2.55-2.593 3.723-3.98.528-.624.9-1.398 1.23-2.152.142-.32 0-.76-.012-1.146-.345.163-.784.245-1.018.506-.532.593-.967 1.272-1.436 1.92-1.72 2.37-3.62 4.474-6.682 5.212-1.526.368-2.56 1.436-2.808 2.98-.32 1.986-.468 4-.694 6.036z" fill="#000"/></g></svg>