<svg width="119" height="120" viewBox="0 0 119 120" xmlns="http://www.w3.org/2000/svg"><title>lionfish</title><g fill="none" fill-rule="evenodd"><path d="M86.252 118.636c-.53.47-1.108.91-1.726 1.256-.266.148-.763.144-1.012-.013-.208-.133-.35-.63-.272-.894.402-1.353.834-2.702 1.35-4.016 1.487-3.784 3.245-7.475 4.1-11.475.437-2.035.665-4.115 1.143-6.14.387-1.637 1.026-3.216 1.514-4.833.224-.748.492-1.526.477-2.286-.01-.52-.478-1.028-.74-1.54-.402.814-.527 1.563-.68 2.307-1.408 6.852-3.38 13.505-6.967 19.596-1.835 3.118-4.078 5.866-7.146 7.88-.31.203-.62.415-.957.56-.654.283-1.1-.03-1.017-.735.042-.354.194-.71.36-1.032 2.816-5.523 5.165-11.242 7.378-17.023.423-1.105.364-1.895-.598-2.672-.395.614-.798 1.25-1.21 1.88-2.22 3.396-4.583 6.68-7.812 9.225-1.178.928-2.438 1.762-3.71 2.56-.472.297-1.175.637-1.628.07-.443-.55.155-1.026.45-1.49 1.163-1.826 2.336-3.645 3.464-5.49.17-.28.198-.694.17-1.037-.178-2.247-.39-4.49-.595-6.774-.282.353-.566.767-.906 1.128-3.69 3.916-7.68 7.476-12.43 10.107-.404.224-.856.403-1.308.492-.844.165-1.387-.41-1-1.153.675-1.3 1.508-2.52 2.27-3.78.105-.173.237-.364.253-.555.492-6.13 1.957-12.03 4.273-17.726.082-.2.153-.406.127-.686-.14.16-.29.31-.416.478-2.933 3.943-6.54 7.02-11.224 8.776-3.175 1.19-5.845 3.148-8.302 5.46-3.312 3.12-7.045 5.652-11.278 7.415-.27.112-.558.266-.837.264-.34-.002-.84-.05-.97-.26-.142-.23-.056-.76.135-1 .908-1.135 1.88-2.22 2.84-3.314.324-.368.676-.71.95-1.17-.87.308-1.74.616-2.773.98.254-1.3.548-2.455 1.19-3.463 2.206-3.47 4.46-6.912 6.696-10.364.134-.205.286-.4.377-.676-.18.124-.36.248-.542.37-2.465 1.65-4.942 3.28-7.39 4.958-1.384.95-2.706 1.99-4.084 2.95-.255.177-.644.168-.97.245-.014-.338-.144-.727-.02-1.005 1.133-2.538 2.673-4.82 4.594-6.837 1.33-1.395 2.712-2.74 4.07-4.107.172-.173.336-.354.545-.575-3.227 2.146-6.557 3.67-9.865 5.232-3.2 1.513-6.335 3.136-9.1 5.375-.15.122-.328.253-.51.284-.196.034-.478.022-.6-.095-.12-.116-.177-.43-.103-.584.21-.44.486-.85.76-1.257 1.736-2.563 3.648-4.972 6.097-6.918.15-.12.283-.352.3-.542.165-2.028.307-4.058.452-6.088-4.01 1.218-7.97 2.596-12.18 4.062.177-.67.21-1.237.467-1.677.63-1.083 1.3-2.154 2.07-3.14.698-.893 1.253-1.713 1.408-2.94.39-3.088 1.72-5.882 3.47-8.444 1.82-2.665 3.618-5.36 5.654-7.86 2.65-3.253 5.89-5.88 9.704-7.88-1.31-1.174-2.795-2.044-4.488-2.414-3.062-.67-6.14-1.292-9.236-1.774-3.15-.49-6.328-.83-9.502-1.156-2.266-.233-4.545-.337-6.818-.494-.814-.056-1.628-.1-2.442-.15v-.887c2.4-1.644 4.953-3.088 7.78-3.744 2.512-.583 5.136-.746 7.722-.953 4.534-.364 9.085-.29 13.6.17 4.597.468 9.168 1.183 13.742 1.84 1.424.204 2.762.238 4.103-.426.988-.488 2.076-.78 3.12-1.16.158-.06.312-.132.667-.28-1.316-.23-2.407-.437-3.504-.61-2.414-.382-4.846-.667-7.242-1.136-3.824-.747-7.628-1.602-11.435-2.435-1.37-.3-2.735-.64-4.086-1.018-.372-.104-.686-.41-1.147-.697 2.86-1.258 5.63-1.9 8.482-2.06 1.777-.1 3.57.098 5.355.147.17.005.378-.05.51-.15.632-.49 1.18-1.135 1.877-1.492 3.827-1.958 8.007-2.564 12.224-2.976 1.533-.15 3.073-.23 4.8-.356-.888-.348-1.612-.588-2.298-.91-4.323-2.016-8.938-2.92-13.618-3.64-2.435-.374-4.84-.947-7.248-1.48-.434-.094-.816-.426-1.22-.65.687-.393 1.294-.61 1.92-.728 2.04-.383 4.092-1.064 6.126-1.018 3.4.077 6.828.418 10.176 1.022 6.043 1.092 12.034 2.467 18.05 3.71 1.14.234 2.287.53 3.627.085-.232-.334-.6-.505-.898-.757-1.403-1.187-3.078-1.73-4.843-2.08-4.028-.797-7.827-2.18-11.06-4.738-4.188-3.31-8.712-6.07-13.43-8.55-1.508-.792-2.995-1.628-4.46-2.497-.4-.236-.684-.662-1.02-1 .423-.208.692-.22.96-.23 4.086-.184 8.066.29 11.794 2.06 3.614 1.713 7.266 3.37 10.762 5.3 4.02 2.22 7.87 4.746 11.835 7.073 1.202.706 2.525 1.217 3.817 1.76.245.1.718.032.88-.144.16-.174.137-.606.056-.885-.107-.37-.33-.71-.537-1.044-.852-1.372-2.044-2.368-3.433-3.195-2.462-1.467-4.913-2.957-7.306-4.53-2.704-1.775-5.333-3.664-8.01-5.483-1.612-1.097-3.26-2.145-4.875-3.24-.275-.185-.47-.49-.776-.818 3.952-.51 7.564.02 11.05 1.593 7.552 3.407 13.77 8.595 19.46 14.458 1.68 1.733 3.187 3.64 4.71 5.517 3.353 4.13 7.687 6.462 12.995 6.822 3.92.266 7.133 3.254 7.653 6.492.05.302.196.61.364.873 1.152 1.803 2.33 3.59 3.483 5.393.434.68 1.012 1.137 1.803 1.314.914.204 1.834.38 2.744.598 1.396.337 2.737.766 3.198 2.36v.442c-.945 1.687-1.88 3.38-2.84 5.058-.428.747-.89 1.476-1.356 2.2-1.11 1.73-2.624 2.99-4.512 3.824-.88.387-1.74.814-2.66 1.247.87.935 1.712 1.827 2.536 2.737 2.967 3.275 4.72 7.11 5.214 11.478.15 1.343.24 2.74-.52 4.125-1.668-2.355-3.2-4.7-4.925-6.897-1.73-2.206-3.653-4.265-5.53-6.433.83 1.674 1.636 3.314 2.453 4.95 1.71 3.417 2.785 6.987 2.44 10.844-.14 1.557-.487 3.096-.773 4.637-.05.27-.262.51-.495.938-.356-1.012-.657-1.85-.945-2.694-1-2.924-1.98-5.855-2.993-8.775-.86-2.477-2.393-4.55-3.992-6.51.093 2.157.29 4.343.256 6.527-.055 3.284-.657 6.483-2.17 9.448-.265.52-.75.923-1.092 1.41-.122.174-.157.433-.165.656-.103 2.803-.108 5.612-.313 8.406-.252 3.43-1.032 6.778-2.07 10.057-1.246 3.93-2.566 7.837-4.8 11.36-.02.037-3.06 3.608-3.495 3.993z" fill="#000"/></g></svg>