<svg width="123" height="79" viewBox="0 0 123 79" xmlns="http://www.w3.org/2000/svg"><title>lobster</title><g fill="none" fill-rule="evenodd"><path d="M63.163 3.418c.146.487.54.9 1.04 1.29.857.668 1.68 1.385 2.51 2.088.452.382 1.214 1.496 1.91 1.82.012.15.044.29.115.404 1.468 2.392 3.056 4.71 4.647 7.024.142.206.6.194.91.283.002 1.23.002 2.42.002 3.726.49-.087.907-.16 1.29-.23-.432.094-.868.19-1.29.23l.024.338c-.99.133-1.98.278-2.965.44-.236-1.292-.544-2.798-.797-3.357-.088-.194-.28-.396-.513-.567-2.067-2.283-5.2-5.696-7.028-7.673-.155-.168-.32-.303-.49-.406-1.683-1.112-5.033-3.064-6.744-4.064-.08-.046-.213-.05-.365-.028-1.374-.16-3.696-.908-4.594.57 1.086.252 3.1 1.242 4.006 1.453 1.49.902 3.87 2.39 5.572 3.31.116.343.464.648.83.96 1.03.877 1.93 1.908 2.89 2.865 1.057 1.05 2.782 3.242 3.785 4.23.037.538.465 1.914.885 3.168-1.01.2-2.017.42-3.02.658-.09-.174-.173-.34-.254-.494-.282-.855-.504-1.57-.755-2.274-.207-.582-.386-1.002-.59-1.29-.18-.254-.38-.405-.636-.475-2.41-1.782-6.07-4.324-8.29-5.822-.098-.066-.22-.1-.348-.12-1.74-.775-5.38-2.2-7.117-2.81-.13-.045-.282-.03-.443.015-1.5.012-4.202-.22-4.804 1.383 1.096 0 3.01.183 4.058.215.133.23.282.417.475.49 1.626.63 4.894 2.218 6.678 2.74 2.34 1.694 5.77 4.327 7.952 5.787.283 1.02 1.124 1.85 1.52 2.854.053.106.127.245.21.4-2.914.78-5.82 1.584-8.73 2.377l1.74-1.02c-1.02-.737-1.935-1.397-3.078-2.22v1.42c-.336-.557-.585-1.2-1.027-1.65-.932-.953-1.852-2.006-2.986-2.648-.49-.278-.94-.41-1.36-.416-.818-.748-3.692-1.26-4.558-1.71-5.62-2.922-11.494-4.873-17.92-3.958-3.34.475-6.647 1.26-9.922 2.09-5.668 1.435-10.133 4.743-13.613 9.365C1.215 25.19.66 26.477.4 27.72c-.436 2.093.027 2.617 2.028 3.137.194.05.372.16.563.227 6.415 2.212 12.44 1.415 18.087-2.333 1.195-.792 1.51-1.937 1.06-3.18-.483-1.335-1.696-1.622-2.9-1.21-1.567.537-3.033 1.358-4.584 1.945-2.155.816-4.316 1.65-6.535 2.25-2.002.54-4.085.778-6.12 1.147.09-.114.226-.326.4-.5 4.593-4.53 10.07-6.595 16.527-5.906 2.808.3 3.197.71 4.02 3.436.207.69.83 1.388 1.45 1.793 1.39.906 2.956.864 4.537.443 1.268-.338 2.57-.55 3.837-.885 2.43-.647 4.857-1.312 7.26-2.053.188-.058.852-.3 1.372-.553.474.67 1.232 1.233 2.105 1.49.87.26 1.825.36 2.59.794.84.478 1.488.435 2.2-.093-.39.365-.758.754-1.17 1.09-1.713 1.398-3.56 2.657-5.126 4.2-1.34 1.324-1.325 3.816-.506 5.665-.98.205-1.987.315-3 .41-.244.023-.468.255-.99.556.644.22.984.36 1.336.455.89.244 1.778.49 2.668.732-1.122 2.233-.935 4.044.884 5.717 1.786 1.643 3.8 3.038 5.717 4.538-.42-.003-.93-.18-1.36-.067-1.21.32-2.396.74-3.575 1.164-.8.288-1.42.75-1.81 1.375-.41-.32-1.06-.51-1.557-.633-4.104-1.03-8.192-2.13-12.326-3.016-.937-.2-2.102.213-3.04.622-.617.27-1.35.982-1.452 1.592-.43 2.61-1.884 3.6-4.465 3.754-6.532.39-11.974-1.768-16.78-6.61 1.128.244 1.9.468 2.685.57 4.293.563 8.472 1.41 12.144 3.94.76.524 1.782.69 2.705.945 1.203.333 2.306.075 2.81-1.14.51-1.23.315-2.505-.952-3.175-2.044-1.08-4.09-2.312-6.288-2.912-4.07-1.11-8.195-1.08-12.214.59-.89.37-2.19.057-2.207 1.525-.014 1.042.047 2.118.307 3.12.196.756.682 1.474 1.17 2.11 2.21 2.88 4.727 5.56 8.017 7.097 10.823 5.055 21.8 6.798 32.93.76 1.142-.62 5.05-.837 5.45-2.06.335-.054.688-.18 1.07-.39 1.098-.604 2.01-1.598 2.898-2.52.472-.49.715-1.2 1.06-1.81l.546-1.076.025-.996c3.16.9 6.32 1.84 9.504 2.787-.81 1.296-1.293 2.072-1.552 2.64-2.257 1.603-5.502 4.62-7.722 6-.38.235-.687.47-.907.73-1.655.647-4.298 1.854-5.585 2.098-.402.076-.718.187-.962.33-1.11.17-3.142.625-3.898.667.383 1.518 1.802 2.045 3.356 1.318 2.683.164 4.733-1.394 6.94-2.513.744-.112 1.608-.016 2.143-.39 2.482-1.73 6.106-4.1 8.54-5.927.39-.243.673-.674.85-1.325.28-1.03.724-2.017 1.107-3.055 1.045.208 2.09.402 3.136.586-.4 1.418-1.482 3.393-1.714 4.623-.178.015-.336.05-.435.148-.97.943-1.796 2.035-2.77 2.973-1.484 1.43-2.963 2.89-4.603 4.125-1.313.99-2.914 1.59-4.272 2.528-.188.13-.612.44-1.037.796-1.002.246-2.365.58-3.114.767.91 1.34 2.615 1.053 4.58.51.294-.026.524-.066.624-.126 1.618-.975 3.128-2.128 4.678-3.217 1.768.572 2.11-.585 3.174-2.086.55-.775 1.155-1.522 1.818-2.2 1.08-1.102 3.283-3.685 4.377-4.727.725-.792 1.176-2.063 1.1-3.71 1.016.16 2.03.31 3.044.448v4.033c-.367.213-.88.283-1.078.57-1.515 2.192-3.02 4.396-4.4 6.675-.136.226-.155.524-.137.845-.708.477-1.406 1.066-1.694 1.352-.857.848-1.74 1.75-2.78 2.312-.53.286-.866.59-1.03.93-1.073.64-2.536 1.547-3.183 1.882.457 1.165 1.408.976 2.248.773.484-.117 1.417-.026 1.095-1.05.72-.264 1.55-.33 2.095-.758 1.068-.836 1.916-1.95 2.966-2.813.32-.265.924-.988 1.395-1.706.458-.05.87-.13 1.032-.374 1.558-2.34 3.878-6.244 5.412-8.814.8-.537 1.014-1.794.674-3.533.974.113 1.95.215 2.924.306-1.205 2.71-2.688 6.224-3.778 8.798-.096.226-.33 1-.52 1.758-.218.064-.42.142-.554.285-1.036 1.104-1.988 2.286-2.983 3.428-.24.275-.57.74-.823 1.223-.7.513-1.83 1.372-2.6 1.908.93.605 1.927.3 2.815-.204.68-.184 2.118-1.197 2.387-1.533.972-1.217 1.817-2.534 2.66-3.798.868-.558 1.76-1.702 2.037-2.38 1.08-2.63 2.34-6.55 3.374-9.316 9.888.77 19.79.424 29.718-1.14-9.832.93-19.612 1.218-29.33.39-.377-2.847-.57-6.716-.95-9.535 2.08-.48 2.757-1.745 2.386-3.977l-.3-1.773c.23.59.44 1.187.69 1.767.213.498.474.975.715 1.46l-.352.815c1.455 0 2.808.03 4.16-.007 1.8-.047 2.936-1.01 3.665-2.63.33-.735.91-1.358 1.376-2.03l-1.38 3.644c2.027.358 4.005.263 5.52-1.56l-.135.886c2.055.437 3.815-.06 5.31-1.494.208-.247.396-.495.568-.742-.172.247-.36.495-.57.742.21.247.404.695.627.71 1.752.112 3.522.194 4.923-1.182-.47 1.266-.113 1.956.987 1.774.68.29 1.265.6 1.847.787.963 2.613 2.888 5.644 4.88 6.628.16.077.317.147.475.21.885.64 4.122 1.886 4.99 1.092.76-.694.788-3.2.41-4.413.046-.475.03-.966-.054-1.48.428-1.32.032-4.803-.652-6.432 1.75-1.418 1.82-3.212.223-4.598.265-.584.428-1.388.534-1.907.212-1.035.194-2.008-.125-2.91V27.8c.343-8.095-10.985 1.287-12.336 5.814-.4.006-.98.216-1.424.272l.428 1.274.58.827c.74.92 1.196 1.917 1.374 2.898-.18-.98-.634-1.98-1.375-2.898l-.58-.827c-1.473-.928-3.077-1.336-4.8-1.078-.278.04-.496.474-.742.725-1.628-1.17-3.32-2.098-5.527-1.42.143.305.265.567.386.83-1.676-1.534-3.576-2.166-5.713-1.546l1.384 3.647c-.474-.678-1.07-1.304-1.398-2.047-.597-1.346-1.495-2.383-2.94-2.548-1.595-.182-3.227-.04-5.27-.04.522.383.723.53.923.68l1.46 1.523c.012.138.03.277.048.417-.045-.096-.064-.23-.047-.417l-1.46-1.524c-.293.376-.668.715-.86 1.136-.312.687-.505 1.43-.748 2.147.035-.348.03-.707.112-1.044.673-2.74.272-4.055-2.006-4.615.212-2.535-.012-6.602.09-9.493 8.43-.747 16.85-.727 25.274.07 1.553.145 3.11.27 4.663.407l.05-.428c-1.116-.16-2.23-.358-3.35-.478-8.07-.868-16.16-1.16-24.266-.606-.775.053-1.55.11-2.325.172.025-.356.056-.686.098-.98-1.04-2.697-2.08-5.372-3.1-8.054-.18-.468-.413-.805-.7-1.022-1.064-1.542-2.578-3.7-3.534-4.89-.147-.18-.44-.34-.752-.438-1.443-1.397-3.99-2.767-4.785-1.617.74.483 2.47 2.445 3.17 2.904.252.083.41.335.614.57.84.97 2.537 3.576 3.703 5.105.035.193.083.382.148.565.51 1.418 1.207 2.768 1.8 4.158.487 1.14.942 1.7 1.39 2.8-.28.34.423.563-.007.6l-.03.467c-.936.086-1.87.18-2.8.284l-.032-.477c.21-1.216.25-2.055.072-2.598-.07-.207-.163-.36-.286-.48-1.545-2.52-4.095-6.22-5.553-8.58-.437-.71-1.077-1.05-1.852-.875-.058-.483-.25-1-.645-1.306-.93-.725-1.69-1.67-2.53-2.513-.732-.732-1.45-1.512-2.65-1.152.332-1.107-.683-.906-1.157-1.055-.81-.256-1.685-.34-2.17.79.66.31 2.147 1.078 3.137 1.578zm-3.558 51.015c2.05-1.315-.997-3.002 1.203-4.414-1.252-.21 2.905.162 2.402.078 1.08 0 2.182.012 3.3.022-.84 1.484-1.87 3.854-2.682 5.47-1.41-.356-2.817-.74-4.223-1.157zm6.365 1.678c.895-1.51 2.12-4.243 2.948-5.974.653 0 1.308 0 1.965-.006-.598 1.746-1.364 4.99-1.796 6.65-1.04-.207-2.08-.43-3.117-.67zm5.61 1.14c.634-1.7 1.348-5.21 1.838-7.18.113-.003.226-.005.34-.01.452-.018.906-.05 1.36-.085-.235 2.19-.355 5.796-.487 7.772-1.016-.152-2.034-.318-3.05-.497zm8.193 1.15c-.964-.102-1.927-.215-2.89-.34.15-2.44.344-6.095.482-8.32.545-.07 1.09-.15 1.632-.236.2 2.488.558 6.23.776 8.895zM47.89 42.714c.082.447.008 1.078.276 1.307.88.75 1.865 1.388 2.85 2.005 1.12.703 2.282 1.337 3.427 2l-.21.253c-.51-.294-1.01-.612-1.534-.88-2-1.015-3.375-.48-4.2 1.615l1.132.954c-1.522-.96-3.138-1.798-4.544-2.904-2.47-1.942-2.465-2.896-1.464-5.732.375.096.75.19 1.128.282.324.078.734-.202 1.104-.317.08 1.803.405 2.03 2.033 1.415zm26.507-21.39c.174 2.07.47 5.126.58 6.498.055.7.113 1.153.276 1.433-.587-.045-1.174-.086-1.76-.12l-1.908-6.99-.062-.367c.955-.166 1.914-.314 2.874-.454zm-5.287.898c.192.556.357 1.025.445 1.283l.026-.007c.41 1.527 1.123 4.11 1.456 5.348l.046.168c-.62-.024-1.24-.044-1.86-.06-.493-.968-.96-1.88-1.4-2.796-.63-1.313-1.158-2.41-1.607-3.322.962-.22 1.927-.425 2.895-.615zm-4.874 5.337c-1.765-1.29-3.466-3.117-5.978-2.327 1.19-.45 2.365-.94 3.584-1.285.68-.192 1.364-.372 2.048-.547.838 1.556 2.065 3.84 2.31 4.603.08.252.175.466.28.654-.777-.21-1.503-.554-2.244-1.097zm-11.568 4.51c-1.73 1.09-3.477 2.15-5.202 3.213l.57 1.34c-.498-.19-1.09-.633-1.468-.494-.338.122-.443.887-.65 1.368-.317-.087-.75-.353-.933-.234-.51.327-1.04.588-1.58.8-.88-2.35-.667-4.216 1.304-5.81 1.518-1.23 3.2-2.262 4.807-3.38l-1.05 1.318c.89 1.686 2.68 2.697 4.344 1.386.345-.27.82-.375 1.234-.556-.457.352-.89.742-1.376 1.048zm26.915-11.384c-.115 2.675-.114 6.576-.254 8.968-.652-.078-1.304-.15-1.957-.215-.128-1.998-.333-5.822-.49-8.448.9-.11 1.8-.213 2.7-.306z" fill="#000"/></g></svg>