<svg width="114" height="69" viewBox="0 0 114 69" xmlns="http://www.w3.org/2000/svg"><title>mantis_shrimp</title><g fill="none" fill-rule="evenodd"><path d="M54.81 33.205l.476.24c-.054.575.057 1.233-.188 1.708-1.76 3.407-3.45 6.87-6.172 9.662-2.935 3.008-3.338 6.58-2.13 10.376.785 2.47 1.932 4.826 2.866 7.252.504 1.31 1.652 1.548 2.793 1.9-.392-.796-.813-1.62-1.486-2.028-1.004-.61-1.474-1.423-1.658-2.492-.472-2.75-.993-5.49-1.375-8.253-.208-1.503-.14-3.004.82-4.356 3.348-4.722 6.643-9.483 9.994-14.203.326-.456.904-.734 1.364-1.095-1.522 10.4-3.46 20.46-2.038 30.78.183-1.39.287-2.784.385-4.18.236-3.356.146-6.776.784-10.053.79-4.055 2.176-7.993 3.318-11.978.268-.933.59-1.85.878-2.75.995 0 1.848-.003 2.7.002 1.8.01 2.332.767 1.886 2.488-1.752 6.767-3.943 13.44-4.616 20.446-.235 2.445-.343 4.903-.51 7.354.392-.235.518-.485.578-.75.146-.646.288-1.294.387-1.95 1.214-8.064 2.893-15.988 6.837-23.255.354-.654.596-1.035 1.467-.874 3.57.66 6-.655 6.947-3.583.036-.113.17-.195.364-.408.164 2.04-.846 3.44-1.91 4.822-.254.33-.528.667-.68 1.046-.396.978-.573 2.076-1.11 2.96-3.574 5.893-6.563 12.046-8.596 18.643-.303.983-.55 1.984-.82 2.977.31-.046.405-.15.462-.272.26-.556.52-1.112.76-1.677 2.935-6.92 5.703-13.937 11.144-19.415.303-.305.698-.683 1.077-.716 1.106-.096 2.225-.034 3.666-.034-5.058 7.5-9.55 15.163-11.753 23.924 1.337-2.388 2.54-4.843 3.788-7.276 2.366-4.612 4.333-9.502 8.81-12.776l1.758.802c-3.742 6.838-6.6 13.832-7.88 21.41 3.362-7.184 5.03-15.222 10.695-20.933l2.966 2.167c-3.568 6.087-6.7 12.5-7.87 19.695 2.58-6.98 5.433-13.795 10.484-19.266 2.285 1.78 3.95 3.912 4.015 7.13.034 1.697.795 3.388 1.276 5.07.616 2.146 1.752 3.998 3.48 5.414.53.432 1.3.568 1.96.84.126-.706.487-1.468.333-2.105-.453-1.876-1.03-3.733-1.717-5.536-.432-1.134-1.148-2.158-1.736-3.23 3.008 3.306 6.472 5.716 11.2 6.54-.122-.72-.146-1.184-.28-1.614-1.14-3.63-3.063-6.948-6.186-8.97-2.89-1.874-4.036-4.38-4.778-7.395-.135-.547-.422-1.066-.5-1.618-.06-.42.102-.873.165-1.31l.47-.083-3.296-5.02c.152.01.303.02.455.028.106-.3.396-.713.292-.886-.626-1.035-1.164-2.24-2.07-2.962-1.422-1.135-3.114-1.934-4.78-2.928l3.148-.23c-.005-2.818-5.27-6.912-9.318-7.327-.02-.226.042-.582-.072-.65-1.82-1.12-3.243-2.993-5.646-3.022-2.08-.025-4.115-.38-6.25-.17-1.997.2-4.1-.465-6.13-.886-1.993-.414-1.978-.49-2.9.938-2.268.3-3.72-1.17-5.362-2.224-.597-.383-1.224-.718-1.84-1.072-3.984-2.294-8.494-2.104-12.822-2.848-1.4-.24-2.815-.982-4.3-1.268-.262-.05-.512-.4-.74-.374-1.88.22-3.55-.45-5.223-1.136-.3-.123-.618-.244-.937-.28-1.24-.145-2.55-.052-3.716-.42-2.154-.684-3.965-2.144-6.393-2.368-1.44-.132-2.852-1.19-4.153-2.022C18.395 4.188 16.8 2.89 15.14 1.688c-.81-.588-1.642-1.15-2.464-1.723.633 1.224 1.297 2.46 2.266 3.377 1.6 1.513 3.29 2.988 5.14 4.17 2.324 1.483 4.848 2.654 7.61 4.135-1.056.07-1.997.326-2.857.16-3.34-.65-6.657-1.417-9.975-2.17-3.46-.788-6.883-1.818-10.503-1.302-1.68.24-3.136.826-4.22 2.713 3.88-2.08 7.563-2.375 11.5-1.25 7.294 2.084 15.043 2.53 21.614 5.996.326.66.48 1.144.77 1.522.573.748 1.293 1.392 1.81 2.172.21.318.175.942.002 1.31-.084.178-.77.196-1.134.1-1.414-.38-2.802-.857-4.21-1.258-3.3-.936-6.376-.4-9.216 1.498-.414.276-.77.64-1.15.965 3.545-1.08 6.89-2.022 10.654-.807 3.616 1.166 6.768 2.72 8.933 5.884-1.29 1.15-2.713.903-4.18.7-2.298-.318-4.61-.574-6.922-.716-.613-.038-1.407.28-1.862.71-1.624 1.524-3.047 3.27-4.716 4.738-2.17 1.91-2.82 4.534-3.678 7.07-.283.837-.136 1.684 1.165 1.937.184-.67.41-1.28.517-1.913.34-2.02.797-3.92 2.405-5.433 1.758-1.655 3.308-3.53 5.008-5.25.308-.31.91-.5 1.36-.477 1.797.096 3.586.418 5.38.433 2.338.018 4.632.943 7.02.226.724-.218 1.593.046 2.396.09-1.393 2.088-3.303 2.786-5.332 3.258-3.91.907-7.83 1.77-11.723 2.753-.656.165-1.348.725-1.743 1.296-2.103 3.037-4.19 6.09-6.138 9.23C17 48.52 15.505 51.32 13.985 54.1c-.29.53-.34 1.192-.502 1.793l.544.184 2.723-5.35.494.24-2.288 5.447.362.178c.456-.848.966-1.672 1.357-2.548.902-2.026 1.548-4.194 2.658-6.094 1.983-3.39 4.19-6.65 6.403-9.897.45-.66 1.287-1.28 2.054-1.462 3.38-.807 6.8-1.45 10.207-2.155.324-.067.65-.136.963-.244 2.92-1.013 5.836-2.036 8.773-3.063-.284.74-.36 1.49-.77 1.895-.79.777-1.886 1.25-2.647 2.048-.975 1.02-2.13 1.467-3.442 1.788-2.064.505-4.11 1.088-6.144 1.7-2.82.847-4.326 2.998-5.065 5.65-.914 3.274-1.538 6.63-2.398 9.92-.515 1.973.25 3.572 1.26 5.186.12-1.03.01-2.032-.078-3.037-.03-.32-.046-.65.006-.965.315-1.913.693-3.817.972-5.736.44-3.015 1.86-5.63 3.29-8.237.195-.36.676-.638 1.086-.787 2.89-1.044 5.812-2 8.686-3.085.99-.374 2.08-.847 2.758-1.603 1.64-1.822 3.84-2.666 5.88-3.8.214-.118.535-.043.72-.053-.15.815-.027 1.844-.476 2.273-1.415 1.35-2.887 2.822-4.626 3.602-2.785 1.25-5.802 1.98-8.72 2.935-1.323.432-1.997 1.354-2.072 2.74-.033.615-.115 1.226-.17 1.84-.472 5.412-.74 10.8 1.883 15.843.327.628.717 1.223 1.077 1.833l.564-.258c-.313-.884-.61-1.774-.945-2.65-.183-.48-.598-.926-.623-1.403-.237-4.45-.55-8.903-.552-13.355-.002-2.786.855-3.585 3.523-4.408 1.22-.377 2.445-.744 3.688-1.03 2.4-.55 4.527-1.538 6.32-3.29 1.28-1.248 2.723-2.326 4.093-3.48" fill="#000"/></g></svg>