<svg width="119" height="78" viewBox="0 0 119 78" xmlns="http://www.w3.org/2000/svg"><title>nudibranch</title><g fill="none" fill-rule="evenodd"><path d="M80.62 9.624c-.348-.202-.705-.39-1.04-.61-.824-.535-1.638-1.085-2.455-1.63l-.416.44 3.227 5.21-3.603-.427c.36.577.48 1.027.75 1.157 1.132.54 2.28 1.083 3.474 1.445 1.98.596 4 1.055 6.002 1.572l-.097.55c-.57-.043-1.142-.08-1.712-.128-2.256-.192-4.51-.43-6.77-.565-.935-.056-1.93.315-2.81.115-1.432-.325-2.787-.976-4.185-1.456-.61-.21-1.25-.336-1.877-.5 1.47 2.772 4.456 3.375 6.795 5.097-.578.415-1.08.732-1.53 1.107-.872.723-1.504.525-2.232-.3-.538-.608-1.272-1.154-2.027-1.44-2.468-.93-4.973-1.77-7.498-2.53-.44-.133-1.046.3-1.576.472.355.392.645.9 1.082 1.15.753.427 1.598.694 2.027.872.185.683.174 1.138.394 1.337.365.33.855.596 1.334.71 1.317.316 2.656.537 3.95.79-1.893 1.004-3.463-.018-5.07-.802-.705-.344-1.19-.447-2.143-.16-1.638.488-1.447 1.034-.605 2.395-1.458-.113-2.643-.1-3.783-.32-1.437-.278-2.832-.775-4.26-1.12-.434-.103-.915-.015-1.586-.015 1.433 2.437 4.106 2.835 6.15 4.58-1.04.422-1.863.872-2.743 1.092-2.602.65-5.21 1.31-7.85 1.754-.963.16-1.952 1.11-3.057.134-.385-.34-1.067-.342-1.613-.5.057.55.116 1.1.17 1.65.005.067-.02.136-.028.18l-1.82.227-.065.315c.69.51 1.378 1.022 2.067 1.534-2.538-.052-4.952-.574-7.738-.06 2.605 2.446 5.64 2.944 8.54 3.943-.787.305-1.786.766-2.312.445-2.34-1.426-4.878-1.18-7.394-1.22-.34-.006-.685.233-1.31.462 2.17 1.81 4.704.783 6.824 1.667-1.7.968-3.452 1.135-5.263 1.266-1.946.14-3.916.43-5.184 2.304-.234.346-.877.528-1.35.574-1.28.124-2.576.093-3.857.21-.443.04-.86.33-1.29.508l.038.442c2.01.888 4.112 1.476 6.363 1.67-2.99 1.143-5.432 3.09-8.16 4.968l1.294.574c-.85.65-1.686 1.285-2.52 1.922.07.114.142.228.214.342l1.336.212c-4.392.992-4.392.992-4.98 2.16 2.034.453 4.02.607 6.036.132-.61.34-1.336.49-1.788.928-3.153 3.047-6.256 6.148-9.362 9.244-1.76 1.753-3.447 3.58-5.253 5.282-1.782 1.682-3.665 3.258-5.52 4.863C.11 76.58-.166 77.223.096 78L25.66 57.62c-.717 1.59 1.103 1.913 1.12 3.242.46-.59.736-.886.945-1.224 1.726-2.778 3.446-5.56 5.154-8.35.475-.777.454-.79 1.1-.32-.518 2.236-2.14 4.246-.923 6.773 1.043-1.58 1.892-3.235 2.756-4.883.57-1.088.747-2.57 2.485-2.517.175.005.37-.152.532-.268 1.306-.933 2.607-1.874 3.835-2.76-.55 1.877-1.266 3.757-.355 5.812 1.518-2.946 2.92-5.916 5.128-8.34l-.373 3.413.407.27c.95-.586 2.04-1.026 2.822-1.785 2.044-1.982 3.965-4.092 5.906-6.18.373-.4.834-.916.867-1.405.162-2.415 2.143-2.676 3.667-3.49-.087.528-.16.973-.26 1.568.756-.11 1.292-.186 1.874-.27l-.118 1.096c1.016-.318 1.868-.586 2.737-.86.03 1.622.96.503 1.495.655.255.21.605.44.8.347.525-.252 1.026-.595 1.46-.987 1.13-1.018 2.257-2.043 3.304-3.144.67-.7 1.194-1.542 1.78-2.323.3-.398.505-.96.9-1.17.94-.503 1.968-.84 2.96-1.246l.047.172-5.502 5.44c.12.168.238.336.357.505l3.57-1.673c-.006 1.058-1.09 1.98-.556 3.38.548-.45 1.092-.696 1.31-1.113.964-1.828 2.71-2.685 4.333-3.704 2.234-1.403 4.718-2.452 6.37-4.67.272-.366.79-.548 1.193-.814-.716 1.027-1.97 1.777-2.23 2.785-.36 1.405-1.253 2.052-2.208 2.808-.41.325-.87.605-1.225.984-.528.564-1.438 1.047-.65 2.072.086.11-.14.433-.162.662-.054.613-.075 1.228-.11 1.842l.452.16 3.46-3.812c-.044 2.547-.855 4.74.335 6.9.764-1.784 1.595-3.578 1.78-5.437.22-2.19 1.695-3.1 3.38-4.467.073.796.147 1.33.164 1.863.017.482-.066.97-.03 1.448.02.256.163.68.313.708.258.05.634-.07.835-.256.316-.29.6-.663.773-1.056.722-1.63 1.396-3.28 1.932-4.554.124 1.943-.858 4.36-.137 6.795 2.532-2.607 1.647-5.814 1.607-8.88l.632.278.097-1.454c.322.264.54.582.81.633.48.092.992.023 1.492.022-.184-.393-.3-.845-.57-1.166-.364-.435-.848-.77-1.28-1.146l.14-.49c.79 0 1.59-.075 2.368.015 2.625.3 2.65 2.35 2.567 4.447h.538l1.23-3.14c.782.185 1.567.447 2.37.546 1.727.214 3.166.903 4.218 2.316.36.483.754.962 1.008 1.502 1.143 2.44 3.577 2.29 5.643 2.863.177.05.45-.247.677-.383-.14-.215-.233-.53-.432-.63-.823-.412-1.647-.876-2.526-1.104-1.757-.457-1.786-2.075-2.67-3.343.586 0 .923.067 1.216-.018.325-.095.61-.328.912-.502-.248-.25-.453-.597-.753-.727-.658-.285-1.355-.493-2.05-.674-2.032-.53-3.62-1.738-4.81-3.397-.408-.57-.36-1.468-.522-2.215-.06-.277-.205-.557-.184-.825.056-.727.007-1.53.31-2.154.63-1.298 1.553-2.453 2.185-3.75 1.064-2.184 2.59-4.304 2.128-6.903-.313-1.76-.968-3.466-1.544-5.17-.11-.325-.57-.53-.87-.79-.128.427-.415.878-.353 1.274.122.786.433 1.542.67 2.31.665 2.13.643 2.192-1.082 3.475-.322.24-.624.51-.926.776-2.032 1.794-4.06 3.59-6.104 5.397l-1.6-1.42c-.078.08-.156.162-.233.244.185.343.293.778.57 1.014.88.753.49 1.29-.197 1.84-.408.327-.89.61-1.18 1.024-.55.787-1.204.92-2.22.582.44-1.112 2.26-1.625 1.368-3.212-1.338-.13-1.592 1.14-2.196 1.952-.85-1.187-1.634-2.295-2.433-3.392-.657-.9-1.296-.867-1.926.083-1.423-1.788-5.33-3.395-6.93-2.615l2.672 1.88c-1.896-.82-3.655-1.84-5.454-2.79-.562-.295-1.228-.393-1.847-.582-.07.138-.14.275-.212.413l.814 1.394.027-.023" fill="#000"/></g></svg>