<svg width="81" height="83" viewBox="0 0 81 83" xmlns="http://www.w3.org/2000/svg"><title>octopus</title><g fill="none" fill-rule="evenodd"><path d="M58.685 79.028c-8.034-1.986-10.164-6.438-6.33-14.93 3.187-7.052 6.512-13.882 3.277-22.033 6.042-1.046 8.01 1.9 8.338 6.435.302 4.193-.18 8.47.4 12.606 1.15 8.238 7.723 11.026 14.077 6.277-9.74-.222-11.51-1.964-10.122-11.7 1.016-7.114 1.266-13.79-4.894-20.132 7.41.05 8.104 5.143 9.72 9.243 1.77 4.49 3.146 9.393 7.85 8.203-1.727-3.085-3.545-6.28-5.313-9.503-2.156-3.928-3.382-9.234-6.672-11.418-2.91-1.933-8.097-.406-11.08-.406 2.45-4.89 6.336-10.202 7.643-16.09.9-4.07-.388-10.487-3.215-13.015C59.443-.05 53.243-.447 48.907.4c-5.14 1.005-6.09 6.24-6.293 11.266-.17 4.222-1.083 8.414-1.667 12.62-1.828-9.21-4.16-11.045-13.465-12.147-3.47-.412-6.684-3.005-10.242-4.71-1.052 5.04 3.128 6.853 8.1 8.284 3.037.874 5.952 2.18 8.922 3.295l-.367 1.964c-7.97-2.597-12.703 2.26-17.975 6.73-2.066 1.75-5.796 1.814-8.79 1.906-.55.018-2.268-4.187-1.59-5.29 1.334-2.162 3.97-3.514 6.07-5.203-2.325-.348-5.855-.28-6.653 1.238-1.47 2.797-2.383 6.768-1.51 9.627.624 2.04 4.908 4.668 6.928 4.21 4.553-1.028 8.974-3.402 12.967-5.982 4.553-2.94 7.436-2.502 9.518 2.01-3.66 3.36-6.902 6.332-10.14 9.305-3.418 3.144-6.443 7.018-10.4 9.162-2.42 1.31-7 1.03-9.233-.53-1.72-1.198-1.29-5.505-1.816-8.43-.746 2.758-2.084 6.867-.6 8.98 1.76 2.51 6.486 5.18 8.968 4.454 5.357-1.56 10.17-5.13 15.065-8.11 2.152-1.312 3.96-3.19 6.7-5.456C27.802 51.19 23.386 60.567 14.16 66.73c-.947.633-2.067 1.508-2.376 2.5-.777 2.487-2.233 5.63-1.34 7.518.833 1.76 4.343 2.24 6.675 3.286-1.72-1.827-4.93-3.103-4.882-4.24.09-2.13 1.568-4.905 3.344-6.137 7.766-5.385 14.86-11.114 18.388-20.418.813-2.143 3.385-3.612 5.147-5.392l2.367 1.564c-1.896 4.24-3.516 8.632-5.76 12.677-2.584 4.653-6.262 8.747-8.467 13.545-2.467 5.37-1.082 8.29 4.16 11.365-3.555-7.695-.043-13.08 4.895-17.8 6.187-5.91 11.57-12.135 10.702-22.273 5.772 4.362 5.037 9.01 3.597 13.93-1.238 4.23-2.905 8.506-3.133 12.828-.388 7.37 4.288 10.9 11.208 9.343" fill="#000"/></g></svg>