<svg width="110" height="81" viewBox="0 0 110 81" xmlns="http://www.w3.org/2000/svg"><title>pufferfish</title><g fill="none" fill-rule="evenodd"><path d="M86.16 31.537l-4.884.596 1.26-3.014c-.784-.606-1.42-1.096-2.958-2.28l3.943-2.495c-2.333-1.474-4.61 1.883-6.637-.89-1.708-2.338-1.313-4.236.55-6.073-2.372-1.085-4.168 2.96-6.415-.24-1.89-2.69 1.055-3.583 1.735-6.022-3.805 2.204-7.27 3.736-9.95-.796.77-1.075 1.577-2.196 2.383-3.317-.872-.188-1.39-.038-1.74.292-2.043 1.93-3.8 2.085-5.8-.267-2.118-2.493-4.472-4.678-7.794-5.823C45.628-.246 43.898.07 41.69 3.853c-.467.797-.762 1.743-1.378 2.39-.674.705-1.667 1.625-2.45 1.564-.83-.065-1.63-1.127-2.338-1.854-.376-.387-.532-.99-.787-1.494-.255-.143-.51-.284-.767-.426.084 5.867-3.893 7.324-8.034 8.525l-1.674-4.3c-.47 1.25-.726 1.722-.82 2.225-.547 2.876-1.903 4.896-4.69 6.323-2.216 1.133-4.084 3.11-5.807 4.987-1.074 1.172-1.897 1.614-3.596 1.74-2.178.162-4.68 1.1-6.29 2.545-2.456 2.2-1.992 4.356.74 8.025-3.67 5.642-3.67 5.642.044 10.545L0 47.354c1.848 1.295 3.335 2.336 4.82 3.378-1.273 1.313-2.55 2.626-3.823 3.94l.086.546c2.004-.52 4.008-1.037 6.295-1.63 0 1.482.26 2.913-.072 4.19-.342 1.313-1.263 2.475-1.93 3.703l.3.428 6.007-3.51-.645 3.148 2.826-.468-1.87 5.362c.153.124.307.247.462.37l4.487-3.565-.232 1.952c5.585 1.23 1.066 4.562 1.4 7.307 1.102-1.035 1.787-1.93 2.688-2.457 1.11-.65 2.548-1.55 3.564-1.28.765.203 1.27 2.033 1.554 3.22.256 1.06.054 2.233.054 4.01 1.32-1.628 2.123-2.85 3.165-3.812.657-.607 1.84-1.307 2.477-1.082.636.225 1.095 1.512 1.25 2.4.21 1.187.053 2.438.053 3.972.583-.42.82-.535.987-.718.917-1.01 1.816-2.033 2.72-3.053.99 1.318 2.07 2.578 2.93 3.976.455.742.525 1.724.804 2.725l3.715-4.94c1.04 1.49 2.077 2.98 3.158 4.532.756-1.503-.27-4.625 2.744-4.42 1.86.128 3.647 1.317 5.587 2.076-.116-1.758.38-4.06 3.074-3.48 1.67.36 3.057 2.037 3.986 2.703.784-1.326 1.407-3.73 2.637-4.097 1.367-.41 3.285 1.04 4.94 1.67 0-1.528-.61-3.58.128-4.846 1.433-2.463 3.197.283 4.326.498 0-1.838-.66-4.435.152-5.04 1.32-.98 3.605-.653 5.56-.887-.23-.268-.543-.688-.908-1.06-1.475-1.497-1.4-3.097.375-4.236 2.78-1.785 5.78-2.68 8.834-.787 2.577 1.6 4.98 3.48 7.515 5.275 2.16-1.447 4.834-3.208 7.462-5.035.313-.218.3-.862.574-1.194.506-.613 1.11-1.144 1.68-1.702.946-.927 2.265-1.678 2.785-2.802 2.956-6.387.28-12.413-1.562-18.442-.116-.376-1.614-.82-1.96-.558-3.01 2.275-6.466 2.017-9.856 1.85-3.7-.184-7.384-.648-11.532-1.032.982-1.198 1.526-1.86 2.39-2.917" fill="#000"/></g></svg>