<svg width="80" height="57" viewBox="0 0 80 57" xmlns="http://www.w3.org/2000/svg"><title>ray</title><g fill="none" fill-rule="evenodd"><path d="M50.492 32.922c.45 2.135-1.952 5.856-4.167 5.79-.11-.004-.23-.005-.327-.05-.17-.08-.22.006-.296.14-2.548 4.467-7.06 6.78-10.467 10.354-1.96 2.06-5.523 3.656-8.078 4.834-2.253 1.04-6.385 3.295-8.92 2.98-5.252-.65-7.91-7.508-10.248-11.642-1.567-2.768-2.98-5.83-4.12-8.81-.573-1.498-1.175-2.983-1.768-4.474-.188-.47-2.167-3.884-2.1-4.12.176-.618.84-1.065 1.112-1.695.272-.628.536-1.26.81-1.884.532-1.208 1.092-2.408 1.676-3.586 1.31-2.64 2.524-5.32 3.834-7.954C9.764 8.124 12.98 2.236 17.91.242c2.44-.987 6.848 1.294 8.988 2.403 2.67 1.384 5.325 2.79 7.802 4.53 2.38 1.67 4.43 3.766 6.717 5.545 2.283 1.776 4.21 3.974 5.04 6.822 3.894.53 5.34 4.18 3 7.365 4.88.962 10.172.564 14.835 2.575 2.317 1 7.44 6.193 8.2 7.035 1.072 1.184 8.566 13.86 7.38 14.494-.406.22-1.44.077-1.764-.265-.94-.995-1.164-3.04-1.647-4.317-.56-1.478-1.196-2.957-1.92-4.36-1.58-3.06-3.72-5.53-6.38-7.642-4.95-3.932-12.314-3.434-18.242-2.785.398.493.493.896.574 1.282z" fill="#000"/></g></svg>