<svg width="130" height="59" viewBox="0 0 130 59" xmlns="http://www.w3.org/2000/svg"><title>sailfish</title><g fill="none" fill-rule="evenodd"><path d="M21.725 36.878C14.575 35.16 7.272 35.15 0 34.805v-.48c5.293 0 10.596-.216 15.872.063 4.893.258 9.01-1.256 12.806-4.198 1.547-1.2 3.293-2.133 4.868-3.3.525-.387 1.043-1.08 1.15-1.704.6-3.53 1.07-7.085 1.6-10.628.078-.522.27-1.025.37-1.544.29-1.522.6-2.852 2.728-2.123.64.22 1.547-.194 2.286-.452 1.953-.683 3.88-1.44 5.82-2.167l-.167-.382c.425.12.848.324 1.278.342 1.306.057 1.426-1.738 2.91-1.818.913-.05 1.765-1.264 2.705-2.004 1.45.877 1.588-1.22 2.522-1.713 1.574 1.65 1.812-.556 2.85-1.017 1.24 1.2 1.988-.075 2.883-.693C64.288.87 66.152 2.05 67.42.982h3.544c.118 1.793 1.22 2.257 2.96 1.41-.2 3.52-.2 3.52 2.97 2.213.198 2.123.24 2.155 2.097 1.763.142.706.058 1.675.476 2.02.513.423 1.446.324 2.187.45-.022.513-.174 1.275-.017 1.964.05.222.914.254 1.423.377-.177 1.868.347 2.306 2.622 2.06-.423 2.054-.267 2.226 1.872 2.13 0 .65-.218 1.427.06 1.916.29.512 1.058.748 1.705 1.16-.738 1.2-.446 2.104 1.126 2.37-.26 1.095-.654 2.18.433 2.257.505.936.957 1.482 1.106 2.102.44 1.826 1.856 2.81 3.15 3.864 1.04.846 2.205 1.56 3.382 2.21 2.094 1.153 4.174 1.117 6.16-.668l1.18 2.193c1.963 1.244 4.278 1.205 6.067-.726 2.854-3.082 5.522-6.342 8.23-9.56 1.753-2.08 3.333-4.316 5.192-6.288 1.105-1.172 2.6-1.966 3.92-2.93l.32.29c-.245.425-.48.857-.74 1.274-3.15 5.088-6.303 10.142-8.178 15.937-1.643 5.073-1.105 9.82 1.088 14.505 2.222 4.75 4.407 9.53 8.242 13.267-.08.144-.16.288-.242.432-1.08-.48-2.238-.83-3.22-1.46-3.113-1.998-5.256-4.95-7.336-7.947-1.737-2.503-3.415-5.05-5.262-7.468-.895-1.172-2.02-2.22-3.208-3.092-2.574-1.89-4.102-1.46-5.562 1.356-3.14-1.934-6.065-.69-8.97-.152-1.406.26-2.8.593-4.21.812-1.932.3-3.73.96-4.374 2.95-.636 1.966.432 3.517 1.92 4.758.156.13.28.298.42.45-.05.135-.098.272-.148.41-1.324-.465-2.804-.69-3.938-1.447-1.928-1.287-3.618-2.933-5.45-4.373-.45-.352-1.072-.716-1.6-.693-10.91.477-21.82 1.008-32.73 1.526-.298.014-.598.002-1.013.325 1.25.696 7.79 4.65 11.13 6.086-1.043-.247-2.126-.466-3.1-.923-3.496-1.64-6.95-3.37-10.43-5.035-.502-.24-1.08-.446-1.62-.446-5.35 0-10.313-1.476-15.176-3.64-3.37-1.502-6.916-2.6-10.383-3.88-.235-.087-.46-.2-.69-.3.014-.09.03-.178.043-.267l6.875.353z" fill="#000"/></g></svg>