<svg width="131" height="52" viewBox="0 0 131 52" xmlns="http://www.w3.org/2000/svg"><title>schools</title><g fill="none" fill-rule="evenodd"><path d="M129.79 40.82c-2.598-2.183-4-5.143-6.468-7.47-2.024-1.912-6.71-4.897-7.47-7.622-.877-3.154 4.602-6.56 5.582-9.6.538-1.67.79-3.445 1.35-5.096.638-1.88 2.088-3.706 2.277-5.674-4.628 2.835-9 5.986-13.225 9.417-4.11 3.34-6.17 6.018-11.87 5.365-11.89-1.36-23.384-5.663-35.192-7.658l.015-.2c4.787-1.45-.326-3.99-2.403-5.89-.902-.824-5.468-6.47-5.555-6.39-2.803 2.524-5.015 5.085-7.316 8.066-2.837 3.676-5.28 3.884-9.733 4.58-8.1 1.264-15.97 3.84-23.41 7.26-3.315 1.523-6.572 3.106-9.655 5.08C3.72 26.905.5 27.94 2.122 31.644c-3.773 0-.566 3.078.996 3.952 3.35 1.875 6.63 3.776 10.346 4.786 3.297.896 6.626 1.5 9.883 2.503 2.76.85 24.54 3.47 26.818 4.692 2.912 1.563 5.11 3.56 8.497 4.14 1.428.242.23-4.59-.952-4.95-.245-.54.06-.63.28-.856 2.882-1.08 5.944-1.75 9.02-2.412 4.142-.89 7.88-2.354 11.906-3.623 1.492-.47 3.732.524 5.187.88 1.914.468 3.007-1.536 4.292-2.724 3.27-3.02 7.972-4.174 10.988-7.287l-.65-.554c2.234 0 4.787-.36 6.967.235 2.886.79 5.337 3.412 7.76 5.086 4.884 3.374 10.87 4.823 16.555 6.105l.15-.255c-.124-.182-.214-.405-.375-.54-.505-.424.16.135 0 0" fill="#000"/></g></svg>