<svg width="38" height="80" viewBox="0 0 38 80" xmlns="http://www.w3.org/2000/svg"><title>seahorse</title><g fill="none" fill-rule="evenodd"><path d="M36.543 17.997c-1.81-.448-3.74-.698-5.373-1.514-1.527-.76-2.92-1.994-4.037-3.303-1.53-1.79-2.49-3.992-4.773-5.21-.797-.423-1.26-1.81-1.49-2.84-.238-1.08-.617-1.504-1.71-1.36-.658.09-1.333.098-2 .083-3.3-.075-4.23-.58-5.343-3.484-.157-.412-.52-.492-.834-.18-.307.306-.61.604-.903.902-.31.315-.91.673-1.257.95-.527.42-.808 1.098-.51 1.948.02.053.036.106.052.158.027.088-.224.39-.533.706-.144.146-.28.295-.413.448-.29.333-.744.884-1.065 1.188-.42.4-.855.738-1.346.865-1.565.403-1.672 1.163-1.353 2.137.137.418-.046.864-.466 1.007-.314.107-.595.216-.82.393-.273.214-.5.486-.717.77-.27.348-.136.693.3.77.353.062.705.12 1.06.168.096.015.222-.21.325-.202.224.02.448.05.67.085.37.057.5.366.29.683-.135.2-.28.386-.467.504-1.125.71-2.29 1.358-3.474 2.032-.385.22-.47.674-.195 1.02 1.4 1.76 1.457 2.117.517 3.92-.203.392-.025.8.378.983 1.725.786 1.696 2.07.732 3.49-.248.366-.16.793.23 1.002 1.365.73 1.487 1.124 1.512 3.66.003.44.365.794.803.857 1.753.253 2.34 1.275 1.35 3.316-.106.217.42 1.06.696 1.08 2.274.184 2.28 1.373 1.512 3.015-.048.102-.06.22-.064.333-.004.19.307.532.702.732.756.383 1.54.724 1.674 1.233l.17.648c.092.36-.188.586-.624.506l-1.09-.2c-1.277-.347-2.6-.602-4.08-.912-.433-.09-.71.18-.615.61.85 3.788 2.06 7.27 4.766 10.528.282.34.612.95.745 1.37.033.104.067.21.102.313.14.417.034.978-.3 1.205-.333.227-.484.7-.457 1.14.098 1.63-1.485 2.883-1.39 4.515.028.458.21 1.097-.018 1.348-1.783 1.952-.26 4.05-.177 6.003.087 2.033.83 4.166 1.77 6.013 3.108 6.106 11.958 8.514 17.47 4.817.366-.246.64-.476.634-.48-.006-.003.044-.028.107-.063.04-.02.076-.044.11-.07.18-.132.357-.265.536-.398.068-.05.135-.103.203-.155.112-.085.246-.197.295-.252.05-.056.33-.258.543-.53.122-.156.237-.332.356-.517 3.176-4.95 1.164-11.496-4.076-13.187-2.227-.72-4.35-.294-6.02 1.185-1.53 1.355-2.33 3.19-1.815 5.375.427 1.82 1.777 2.633 3.387 2.98 1.75.377 3.433-.137 4.418-1.648.416-.638.39-1.845.066-2.58-.23-.522-1.274-.895-1.98-.942-.324-.02-.667.237-.95.615-.266.353-.04.723.403.764l.525.05c.442.04.837.236.884.436.047.2-.25.493-.656.67-.507.223-1.014.437-1.513.42-.494-.017-1.406-.82-1.357-1.164.116-.818.498-1.938 1.127-2.263.813-.42 2.365-.612 2.894-.135.982.885 1.947 2.29 2.038 3.543.212 2.9-1.93 4.686-5.056 5.105-4.86.652-8.154-3.178-7.527-8.294.355-2.892 1.885-5.196 3.907-6.978.2-.176.387-.355.564-.536.3-.308.718-.548.96-.576.137-.016.28-.047.428-.095.21-.067.42-.137.625-.21.344-.12.968-.314 1.4-.408 1.137-.248 2.22-.455 3.038-1.03.335-.234.383-.87.39-1.565.004-.44.147-1.125.245-1.554.112-.498.147-1.007.147-1.52 0-.44.19-1.085.43-1.455 1.175-1.82 1.932-3.85 2.09-6.162.162-2.32-.496-4.7-.787-7.052-.105-.845-.185-1.695-.34-2.53-.088-.475-.287-.93-.467-1.384-.33-.834-.64-1.68-1.038-2.482-.333-.674-.644-1.662-1.2-1.862-1.3-.466-1.934-1.093-1.645-2.47.276-1.314-.468-1.66-1.583-1.615-1.398.058-2.084-.52-2.162-1.97-.01-.162-.11-.36-.257-.544-.21-.264-.34-.763-.412-1.183-.043-.244-.13-.483-.242-.732-.038-.084-.082-.16-.13-.233-.085-.122.063-.29.335-.407.168-.073.33-.15.484-.23 1.307-.677 2.394-.683 3.784-.2 2.288.8 4.728 1.167 7.038 1.913 1.215.392 2.36.992 3.295 1.46.397.2.998.125 1.345-.15 1.1-.867 2.18-1.664 3.105-2.612 1.07-1.097.662-1.964-.857-2.34z" fill="#000"/></g></svg>