<svg width="112" height="80" viewBox="0 0 112 80" xmlns="http://www.w3.org/2000/svg"><title>seal</title><g fill="none" fill-rule="evenodd"><path d="M108.333 77c-4.466.634-8.814.02-13.148-.925-2.997-.652-5.994-1.316-8.965-2.08-1.19-.305-2.31-.888-3.51-1.365.695-2.28.285-4.23-.636-6.133-.95-1.96-1.546-4.17-2.817-5.885-6.405-8.65-14.24-15.648-24.247-19.94-2.7-1.158-4.8-2.87-6.2-5.513-1.373-2.588-2.886-5.107-4.45-7.584-1.81-2.863-3.622-5.743-5.663-8.44-1.843-2.435-2.442-5.282-3.33-8.06-.552-1.725-1.198-3.418-1.813-5.12-.858-2.382-2.576-3.79-4.98-4.468-1.597-.45-3.168-.99-4.75-1.488L20.19.12c-3.145 1.337-6.37 1.39-9.687.74-1.81-.353-2.757.75-2.31 2.56.15.613.424 1.272.838 1.735 1.888 2.108 3.89 4.116 5.747 6.248.486.557.894 1.454.84 2.157-.133 1.8-.55 3.577-.85 5.364-.32 1.92-1.003 3.864-.874 5.753.238 3.47.86 6.926 1.5 10.354.64 3.425 1.588 6.79 2.23 10.215.347 1.853.75 3.852.403 5.644-.838 4.326-2.168 8.554-3.162 12.854-.376 1.624-1.115 2.86-2.532 3.643-2.368 1.31-4.745 2.604-7.123 3.896-.367.067-.692.24-.92.498L0 74.113l.02.56c7.69-.716 15.383-1.434 23.075-2.144 1.31-.12 2.06-.796 2.526-2.038.728-1.94 1.616-3.817 2.493-5.854 2.046 2.043 4.437 3.2 7.06 4.002 6.53 1.995 13.222 3.064 20.007 3.63 1.513.124 3.027.233 4.54.34l1.147.555c-.5.326-1.014.553-1.552.644-4.943.833-9.713 2.577-14.79 2.724-2.37.07-4.738.304-7.098.552-.952.1-1.88.436-2.82.664l.077.416c.85.052 1.722.01 2.55.178 1.253.256 2.488.868 3.723 1 .166.1.37.16.62.145l2.744-.156c7.006-.094 14.01-.273 21.012-.5 1.787-.06 3.663-.226 4.964-1.812.123-.15.392-.22.604-.247 1.42-.178 2.843-.334 4.048-.473.653.653 1.137 1.58 1.794 1.723 4.94 1.086 9.884 2.468 15.016 1.226 1.07-.26 2.125-.382 3.168-.38 1.024.14 2.05.263 3.077.372.782.188 1.557.44 2.328.762l5.588-.187c1.078-.377 2.156-.75 3.232-1.13.95-.34 1.9-.688 2.85-1.03l-.01-.28c-1.22-.138-2.478-.54-3.657-.373z" fill="#000"/></g></svg>