<svg width="130" height="59" viewBox="0 0 130 59" xmlns="http://www.w3.org/2000/svg"><title>shark</title><g fill="none" fill-rule="evenodd"><path d="M34.84 43.485c-6.6 2.1-12.49 5.393-17.432 10.77.22-2.97.66-5.635 1.83-8.07 1.16-2.41 2.578-4.693 3.888-7.04l-12.038-3.72c.884-.783 1.57-1.39 2.255-2l-.173-.317c-.704.148-1.418.257-2.107.456-.602.174-1.072.075-1.654-.206-2.7-1.305-5.014-3.153-7.244-5.115-.77-.678-1.384-1.54-2.166-2.428 1.69-.77 3.313-1.544 4.962-2.254 5.13-2.207 10.5-3.657 15.9-4.974 2.94-.718 5.944-1.18 8.927-1.72 2.498-.45 5-.882 7.514-1.247 1.424-.207 2.87-.252 4.304-.39 1.78-.17 3.592-.22 5.325-.61.72-.165 1.3-1.055 1.902-1.656 1.665-1.657 3.266-3.384 4.977-4.99 1.243-1.168 2.585-2.238 3.946-3.265 2.594-1.96 5.47-3.382 8.583-4.266C67.25.186 68.226.16 69.38 0c3.103-.433-1.778 2.642-2.6 3.882-1.596 2.41-3.012 4.93-3.92 7.684-.508 1.545-.808 3.252.514 4.564.65.646 1.564 1.203 2.445 1.397 3.503.77 7.04 1.38 10.566 2.05 2.58.49 5.16.975 7.737 1.47 2.747.528 5.492 1.066 8.238 1.6 2.746.532 5.486 1.103 8.244 1.56.448.074 1.133-.215 1.444-.572 3.112-3.583 6.64-6.64 10.742-9.008 3.994-2.308 8.265-3.79 12.812-4.46 1.433-.213 2.87-.396 4.305-.593L130 9.8c-.33.298-.675.58-.983.9-1.886 1.958-3.834 3.86-5.626 5.902-2.468 2.814-4.675 5.84-6.537 9.11-.612 1.076-1.244 2.14-1.86 3.212-.298.522-.355 1.032-.222 1.67.607 2.917 1.667 5.64 3.25 8.14 1.42 2.242 3.084 4.287 5.185 5.93.077.06.108.18.27.47-1.478-.086-2.81-.037-4.09-.27-2.03-.368-4.067-.79-6.024-1.432-3.31-1.086-6.306-2.803-8.85-5.248-1.11-1.067-2.204-2.156-3.24-3.296-.432-.476-.898-.542-1.433-.465-2.402.346-4.802.703-7.2 1.073-2.07.32-4.135.66-6.488 1.037.724.504 0-.237 0 2.202 0 2.438-4.647 2.73-7.758 4.424-.458.248-.824.315-1.29.034-1.532-.917-3.073-1.818-4.634-2.682-.29-.16-.693-.188-1.034-.157-1.78.167-3.556.425-5.34.552-2.766.195-5.537.367-8.31.44-2.244.06-4.494-.048-6.742-.063-2.25-.014-3.284 1.16-3.577 3.12-.63 4.205-.086 8.282 1.79 12.12.412.84.99 1.596 1.547 2.476-6.623-.975-12.585-5.556-15.96-15.515z" fill="#000"/></g></svg>