<svg width="58" height="60" viewBox="0 0 58 60" xmlns="http://www.w3.org/2000/svg"><title>starfish</title><g fill="none" fill-rule="evenodd"><path d="M48.14 58.054c-.113-1.256-.904-3.66-1.622-5.383l-5.183-12.454c-1.723-3.372-.136-4.273-.136-4.273l10.66-6.855c1.572-1.01 3.904-2.26 5.15-2.907 1.248-.647 1.368-2.358.06-2.915-1.3-.554-2.5-.554-2.5-.554H39.13c-.72 0-1.208-.324-1.54-.73-.612-.758-1.092-3.065-1.62-4.857l-2.64-8.95c-.528-1.792-1.38-4.34-2.13-5.567C30.092.793 29.417.793 29.417.793h-.143s-.71 0-1.833 1.8c-.768 1.23-1.624 3.788-2.153 5.58l-2.638 8.95c-.53 1.792-1.01 4.1-1.624 4.856-.33.406-.82.73-1.54.73H4.05s-1.2 0-2.5.555c-1.308.557-1.237 2.34.02 2.984 1.255.64 3.626 1.816 5.207 2.813l8.06 5.077c1.58.997 3.905 2.524 3.644 3.793-.26 1.268-1.51 3.54-2.242 5.26l-3.973 9.35c-.73 1.72-1.5 4.153-1.57 5.45-.072 1.294 1.79 1.66 3.31.574 3.343-2.387 8.58-6.828 11.685-9.507 1.414-1.222 2.95-2.89 3.723-2.91.773-.02 2.252 1.737 3.684 2.937 3.083 2.58 8.27 6.84 11.846 9.343 1.532 1.07 3.307.88 3.196-.376z" fill="#000"/></g></svg>