<svg width="130" height="79" viewBox="0 0 130 79" xmlns="http://www.w3.org/2000/svg"><title>triggerfish</title><g fill="none" fill-rule="evenodd"><path d="M130 40.74l-3.825 1.763c.383.2.672.353 1.33.7-1.57.744-2.804 1.265-3.976 1.9-2.337 1.267-4.688 2.518-6.946 3.915-5.622 3.477-10.936 7.517-17.332 9.57-3.268 1.05-6.615 1.857-9.878 2.922-1.82.594-3.587 1.406-5.29 2.29-.804.417-1.403 1.232-2.202 1.966-3.454-1.3-5.89-4.346-9.15-7.107-.535 7.92-4.486 14.107-8.55 20.34-1.878-.967-2.682-2.96-3.758-4.814-1.516-2.61-3.18-5.153-4.99-7.568-1.163-1.552-2.23-3.066-3.04-4.866-1.373-3.04-3.094-5.93-4.754-8.833-1.415-2.48-1.47-4.925-.127-7.5-3.13-.45-5.706.572-7.915 2.674-2.338 2.226-4.77 4.37-6.964 6.73-2.917 3.14-6.793 4.62-10.435 6.545-2.42 1.277-4.813 2.62-7.128 4.077-1.75 1.1-3.324 2.477-5.043 3.63-.667.448-1.516.62-2.28.918l-.44-.552c.496-.69.878-1.52 1.51-2.05 2.78-2.345 5.762-4.466 8.43-6.93 2.732-2.525 5.23-5.312 7.71-8.095.39-.44.303-1.5.138-2.202-.397-1.693-.93-3.36-1.483-5.01-1.04-3.097-.88-6.28-.77-9.46.13-3.9-1.096-7.008-4.535-9.27-4.524-2.977-9.445-5.083-14.37-7.217-1.476-.64-2.89-1.387-3.94-3.363 1.305-.038 2.388-.345 3.27-.05 4.598 1.537 9.14 3.248 13.713 4.86 5.977 2.11 10.97 5.864 16.015 9.527 1.9 1.378 3.686 2.91 5.576 4.3 1.342.988 2.786 1.812 4.67 1.396-1.058-1.075-1.045-2.232-.28-3.388.725-1.096 1.472-2.183 2.286-3.212 1.823-2.305 3.717-4.555 5.538-6.863 1.04-1.318 2.016-2.688 2.977-4.066 1.015-1.453 1.94-2.972 2.98-4.405.482-.662 1.19-1.153 1.724-1.782 1.05-1.242 2.02-2.556 3.088-3.784 1.077-1.24 1.17-2.692.165-4.4-1.2-2.04-2.17-2.292-4.258-1.105-.88.5-1.724 1.074-2.645 1.475-.373.163-.907-.048-1.368-.09.11-.407.163-.844.35-1.214.137-.27.414-.552.692-.652C56.684 1.6 58.87.78 61.1.106c1.193-.362 2.217.255 3.134 1.032 3.02 2.554 5.46 5.614 7.69 8.845 1.86 2.69 3.625 5.444 5.462 8.15.235.346.628.772.99.817 2.46.302 4.93.512 7.45.757l.35-1.587 4.146 1.892c-.496-1.45-1-2.917-1.593-4.655.743.08 1.132.02 1.415.167 2.273 1.173 4.53 2.38 6.785 3.587 7.03 3.768 13.816 7.906 20.1 12.86 1.71 1.348 3.8 2.2 5.616 3.43 2.412 1.636 4.723 3.42 7.354 5.34z" fill="#000"/></g></svg>