<svg width="126" height="51" viewBox="0 0 126 51" xmlns="http://www.w3.org/2000/svg"><title>tubeworm</title><g fill="none" fill-rule="evenodd"><path d="M115.638 49.362c-.44-.165-.903-.3-1.093-.8-.173-.452-.335-.91-.5-1.364.28.522.563 1.045.845 1.567l.143-.03c0-.183.036-.377-.01-.55-.04-.15-.19-.27-.26-.42-.352-.723-.697-1.45-1.035-2.18-.08-.172-.124-.363-.185-.545.036-.02.072-.042.108-.064l-.368-.098.372-.34c.077.127.152.256.232.382.092.146.156.35.29.42.17.087.395.066.59.09-.003.012-.018.053-.046.13.337-.17.375-.34.2-.58-.138-.192-.246-.406-.372-.607-.088-.14-.183-.276-.275-.413l-.132.057.104.5c-.207-.05-.41-.148-.606-.135-.192.013-.375.14-.562.216.004-.333-.285-.772-.426-.83-.195-.315-.38-.636-.586-.943-.45-.67-.917-1.332-1.368-2.002-.29-.43-.546-.884-.85-1.304-.206-.287-.46-.542-.706-.798-.838-.875-1.682-1.744-2.525-2.615-.268-.276-.525-.567-.815-.82-.415-.36-.868-.676-1.278-1.04-.128-.113-.17-.32-.253-.486-.04-.075-.06-.184-.123-.22-.89-.516-1.76-1.07-2.78-1.312-.128-.03-.252-.083-.412-.05l1.744.74-.02.085c-.067.01-.143.05-.2.03-.697-.232-1.4-.45-2.084-.718-.48-.186-.96-.396-1.386-.678-.438-.29-.82-.674-1.207-1.034-.567-.527-1.248-.76-2.003-.79-.4-.015-.703-.18-.965-.467-.075-.082-.205-.148-.314-.156-.304-.02-.612-.007-.947-.007l-.212.51c-.803.23-1.44-.26-2.145-.42-.226-.05-.376-.12-.544.14-.225.35-.988.426-1.397.336-.484-.108-.934-.44-1.467-.284-.127.038-.245.104-.367.157l-.092.008c-.33.403-.938.38-1.297.14-.387-.26-.775-.267-1.19-.027-.133.077-.338.03-.57.04-.133.24-.568.378-.905.257-.33-.118-.675-.188-1.01-.288-.122-.035-.236-.094-.352-.143h.013c-.055.026-.11.052-.164.08l.023.003-.086-.142-.03.008-.33.146c.018.14.038.293.05.4-.346.032-.666.1-.977.074-.214-.02-.452-.132-.613-.276-.268-.238-.575-.135-.863-.182-.34-.057-.595.063-.716.404l-.013.107-.004.004-.19-.068c-.292.323-.814.377-1.154.072-.262-.234-.456-.37-.81-.12-.245.17-.637.133-.87.31-.23.175-.423.235-.7.232-.37-.005-.636-.158-.824-.4-.24.014-.458.073-.656.033-.627-.126-.772-.068-.985.47-.535.092-1.04.096-1.398-.39-.007-.01-.02-.024-.03-.022-.475.093-1.025.07-1.407.31-.502.315-.96.436-1.46.055-.315-.237-.378-.214-.462.218-.22-.024-.45-.09-.667-.06-.224.03-.446.13-.653.233-.348.17-.66.13-1.008-.03-.227-.1-.502-.108-.757-.127-.17-.013-.348.017-.518.05-.16.033-.226.054-.205.31.025.32-.407.413-.69.488-.407.108-.814-.15-1.005-.544-.132-.272-.403-.348-.648-.267-.174.057-.46.054-.46.396 0 .584-.332.954-.868 1.033-.272.04-.866-.394-1.01-.737-.04-.093-.06-.202-.126-.268-.067-.067-.215-.15-.263-.12-.09.057-.138.188-.25.36-.03-.018-.133-.087-.25-.165-.022.24-.06.53-.068.822-.017.533-.627.938-1.13.773-.475-.155-.796-.42-.87-.932-.013-.09-.042-.08-.24-.127-.066-.015-.108-.128-.173-.214.087-.052.17-.1.265-.154-.24-.275-.426-.174-.518.09-.098.285-.18.592-.184.89-.01.952-.56 1.403-1.373 1.072-.248-.1-.45-.39-.598-.638-.124-.208-.12-.488-.21-.722-.042-.108-.175-.18-.266-.27-.054.092-.11.183-.158.278-.016.03 0 .1-.013.104-.485.167-.276.57-.27.87.02.71-.56 1.25-1.248 1.112-.282-.056-.666-.508-.728-.863-.062-.35-.104-.705-.183-1.05-.047-.208-.122-.398-.42-.4-.254-.003-.31.037-.308.312 0 .452-.093.905-.146 1.357-.006.047-.018.097-.01.143.116.59-.436 1.215-1.013 1.078-.396-.093-.677-.412-.768-.828-.105-.48-.182-.966-.256-1.45-.038-.248-.138-.368-.492-.278l.344.26-.67.176c.05-.182.084-.31.12-.436-.034-.01-.066-.02-.098-.032-.032.124-.077.246-.092.372-.067.552-.125 1.105-.183 1.658-.006.057.02.117.028.176.016.127.07.267.036.38-.12.398-.5.52-.824.524-.23.002-.58-.208-.673-.415-.18-.403-.23-.867-.312-1.31-.038-.212.003-.438-.04-.648-.08-.394-.837-.614-1.155-.34-.052.043-.076.166-.058.24.167.666.025 1.313-.1 1.963-.004.023.01.05.015.075-.127.048-.25.118-.38.14-.204.032-.418.066-.618.035-.123-.02-.227-.157-.402-.29.296.643.95.654 1.394.107.362-.052.172.23.153.317-.062.28-.582.614-.87.597-.374-.02-.784-.358-.832-.724-.072-.558-.13-1.118-.168-1.68-.035-.508-.104-.584-.628-.565-.14.005-.282 0-.427 0-.156.422-.23.818-.105 1.26.073.26.068.574-.006.835-.124.44-.682.64-1.14.462l-.304-.12c.283.51.852.495 1.403.007.073.35-.026.623-.353.774-.408.19-.735.087-1.034-.212-.267-.267-.335-.57-.37-.928-.045-.49-.17-.973-.275-1.528l-.443.245c-.022-.05-.088-.18-.08-.184.124-.075.257-.132.42-.21-.195 0-.376-.023-.547.006-.337.056-.41.274-.355.594.09.527.16 1.06.22 1.592.048.435-.348.98-.73 1.037-.546.08-1.074-.24-1.185-.74-.128-.582-.236-1.168-.355-1.762l-.52.22.15-.48-.113-.06c-.057.065-.16.128-.165.197-.033.47-.11.952-.045 1.41.065.464-.236.616-.505.797-.294.197-.62.187-.92-.035-.067-.05-.138-.093-.265-.18.41.664.9.66 1.67.026.02.1.076.215.043.25-.216.24-.414.572-.688.663-.364.123-.768.054-1.052-.343-.41-.576-.537-1.25-.745-1.896-.026-.08-.037-.168-.112-.255l-.048.287-.296-.184c-.05.24-.064.47-.145.676-.17.434-.08.88-.122 1.32-.042.447-.42.684-.815.735-.235.03-.588-.1-.734-.28-.283-.35-.46-.785-.672-1.19-.15-.28-.284-.57-.426-.855-.04.013-.082.025-.124.037-.085.513-.133 1.036-.27 1.536-.084.314-.234.685-.478.858-.2.14-.632.127-.87.005-.517-.26-.826-.735-.95-1.316-.048-.223-.12-.445-.212-.653-.03-.065-.17-.123-.25-.112-.07.01-.167.11-.18.186-.083.45-.138.903-.22 1.352-.032.184-.106.36-.17.568l.145-.015c.015.328-1.27.27-1.613-.09-.157-.166-.276-.37-.394-.568-.113-.188-.203-.39-.302-.587-.032.01-.063.018-.095.026v.235l-.1.025-.172-.69c-.066.088-.16.163-.18.252-.06.297-.057.61-.144.897-.16.53-.478.728-1.06.733-.375.003-.8-.31-.965-.693-.11-.25-.24-.488-.36-.732l-.093.037.076.18-.27-.027.06.184-.076.06-.313-.353c-.03.132-.086.29-.095.448-.035.61-.848 1.105-1.39.81-.217-.118-.43-.3-.565-.505-.35-.53-.61-.536-.976-.013-.178.254-.385.523-.644.678-.468.28-.857.178-1.266-.262-.212-.227-.406-.338-.74-.222-.23.08-.513.006-.766.04-.17.025-.332.12-.592.218-.16-.107-.442-.245-.6.225-.017.046-.164.1-.198.077-.444-.31-.652.1-.888.31-.256.232-.54.29-.857.315-.214.016-.45.027-.628.128-.225.128-.438.242-.69.18-.662-.16-1.226.24-1.845.288-.3.023-.61-.08-.915-.124-.037-.006-.085-.022-.11-.006-.57.335-1.13 0-1.694-.016-.112-.003-.22-.06-.333-.065-1.036-.05-1.804-.548-2.274-1.443-.344-.66-.46-1.426-.29-2.126.158-.66.608-1.23 1.15-1.684.027-.022.075-.032.11-.027.5.076.76-.243 1.04-.58.277-.33.662-.488 1.11-.48.107 0 .25-.065.316-.147.29-.356.635-.563 1.1-.42.373.115.594-.16.852-.307.302-.17.596-.2.896-.067.412.183.722-.164 1.093-.177.196-.007.41-.087.585-.034.86.265 1.666.168 2.454-.244.165-.086.37-.143.553-.137.594.022.84-.33 1.012-.825.177-.51.788-.677 1.205-.35.2.155.37.367.59.47.164.075.417.074.582 0 .217-.098.444-.234.42-.573-.03-.423.336-.872.737-.99.352-.102.93.217 1.125.556.09.156.304.35.45.34.28-.015.566-.115.55-.532-.018-.574.05-1.123.66-1.44.36-.185.688-.203.94.107.253.313.448.674.688 1 .077.106.277.26.31.237.15-.104.33-.25.364-.408.098-.445.14-.903.183-1.358.045-.457.406-.597.744-.724.284-.106.83.142.98.422.225.423.413.868.632 1.296.042.082.163.185.232.175.08-.012.2-.13.208-.213.027-.24-.01-.488.008-.73.03-.376.06-.754.134-1.122.074-.367.368-.584.7-.67.352-.092.696-.04.982.262.41.434.544.99.752 1.516.064.163.168.31.288.525.307-.412.27-.788.21-1.144-.11-.662.084-1.23.486-1.732.354-.443 1.035-.374 1.374.125.436.645.68 1.362.774 2.195.14-.012.34.028.406-.048.087-.1.124-.303.088-.437-.204-.77.002-1.508.21-2.22.062-.21.504-.38.794-.43.325-.052.687.067.82.438.238.658.47 1.32.657 1.993.082.298.296.323.49.302.182-.02.32-.17.286-.415-.043-.328-.093-.663-.068-.99.04-.518.076-1.053.245-1.535.072-.203.466-.356.737-.408.24-.046.563.01.642.355.087.378.17.76.228 1.143.053.353.017.727.122 1.06.05.153.33.276.53.327.17.044.373-.03.56-.06.215-.033.356-.127.334-.38-.035-.393-.085-.79-.07-1.182.017-.47.064-.943.156-1.403.07-.344.844-.526 1.052-.23.25.353.45.768.56 1.186.14.54.172 1.107.255 1.692.31 0 .603.02.893-.006.253-.023.427-.156.396-.457-.052-.494-.066-.992-.144-1.48-.12-.736.26-1.335.898-1.37.284-.015.493.087.566.355.2.732.398 1.465.553 2.208.06.29.078.512.457.376.068-.025.154 0 .23.003.404.02.554-.14.535-.542-.03-.637-.044-1.277-.067-1.916-.015-.404.315-.508.585-.612.288-.11.594-.14.793.223.32.58.51 1.194.578 1.85.012.113.052.224.065.337.03.237.125.488.38.418.232-.065.623-.043.585-.503-.027-.33 0-.666.033-.998.035-.366.032-.762.182-1.08.095-.2.435-.367.68-.39.204-.017.555.146.625.317.273.665.47 1.362.672 2.054.045.157-.02.36.244.317.23-.037.523.004.536-.356.005-.153-.016-.31.002-.462.054-.45.088-.908.19-1.35.104-.446.826-.634 1.2-.38.337.226.495.518.567.905.07.385.19.765.318 1.136.037.105.206.262.272.243.14-.04.284-.158.363-.283.06-.094.052-.256.023-.376-.128-.545.21-.947.438-1.367.147-.274.66-.397.98-.182.47.32.588.81.77 1.278.07.174.086.37.173.533.053.096.228.22.29.194.126-.052.266-.182.305-.31.1-.32.07-.71.242-.976.167-.26.5-.44.797-.58.216-.1.71.264.832.538.128.29.27.576.385.872.072.185.158.367.372.272.147-.065.258-.23.363-.37.216-.284.37-.638.636-.86.376-.31.97-.146 1.14.326.166.47.56.525.916.656.076.028.244-.117.333-.216.203-.224.344-.527.584-.693.43-.298.915-.086 1.234.506.13.242.243.28.53.236.366-.055.646-.107.922-.403.343-.37.832-.318 1.228.006.318.26 1.29.28 1.61.034.03-.023.078-.047.082-.075.07-.437.4-.447.73-.44.325.006.627.06.83.37.058.086.204.154.314.16.455.03.863-.02 1.193-.434.353-.442.766-.42 1.167-.032.31.3 1.288.36 1.632.1.03-.022.09-.04.09-.06.03-.45.403-.38.683-.457.343-.092.557.1.754.33.135.16.27.262.496.138.09-.05.227-.016.343-.017.33-.004.608-.017.88-.317.45-.495.96-.423 1.403.08.04.047.076.11.128.13.36.145 1.134-.043 1.41-.334.502-.526 1.01-.52 1.566-.015.123.112.324.192.49.195.263.004.53-.052.79-.116.104-.027.223-.122.275-.218.19-.35.93-.566 1.135-.25.342.523.82.405 1.28.43.25.013.445-.047.606-.3.263-.412.876-.497 1.224-.166.3.286.62.335 1 .33.364-.005.646-.03.942-.343.378-.4.87-.457 1.373.083.08.087.235.182.336.163.37-.067.754.203 1.11-.048.068-.05.143-.105.18-.175.252-.462.713-.547 1.144-.254.235.16.305.562.714.48.237-.047.487-.033.725-.076.096-.018.2-.1.262-.18.254-.33.546-.517.997-.53.424-.01.872-.1 1.255-.273.294-.134.5-.457.75-.687.497-.45.995-.9 1.5-1.342.41-.36.83-.707 1.246-1.058.2-.168.425-.31.593-.506.514-.598 1.018-1.207 1.506-1.827.805-1.025 1.242-2.252 1.84-3.39.46-.877.912-1.76 1.425-2.606.37-.61.837-1.165 1.255-1.75.375-.522.73-1.06 1.117-1.574.376-.504.793-.977 1.17-1.48.384-.51.747-1.037 1.108-1.564.512-.748 1.006-1.51 1.522-2.254.32-.46.666-.904 1.012-1.37.422.266.385.704.308 1.005-.172.675-.447 1.33-.736 1.966-.118.26-.4.44-.575.682-.16.22-.26.48-.412.705-.357.523-.73 1.035-1.098 1.55-.123.173-.255.338-.372.513-.514.77-1.015 1.55-1.54 2.313-.36.523-.766 1.016-1.127 1.54-.19.276-.33.59-.497.884-.328.588-.664 1.17-.984 1.764-.08.148-.11.322-.16.484l.112.072c.22-.23.435-.464.658-.69.376-.385.765-.757 1.133-1.15.444-.47.86-.97 1.31-1.436.605-.625 1.227-1.235 1.853-1.838.252-.242.536-.45.803-.675.585-.497 1.173-.99 1.754-1.494.335-.29.642-.613.99-.886.32-.252.66-.487 1.02-.677.523-.275 1.07-.505 1.608-.75.057-.026.153-.053.187-.026.057.048.128.156.11.206-.172.438-.068.976-.484 1.326-.034.03-.054.09-.058.14-.06.78-.764 1.13-1.15 1.693-.368.53-.966.805-1.44 1.217-.293.254-.556.54-.833.813-.03.03-.54.283-.588.306-.04.02-.086.053-.1.092-.166.448-.574.665-.91.952l-.057.055c-.207.28-.383.592-.634.825-.172.16-.38.258-.546.466-.338.42-.79.75-1.177 1.134-.584.578-1.16 1.166-1.73 1.756-.296.306-.575.627-.863.94-.207.225-.417.45-.627.673l.008-.002c-.214.098-.47.138-.495.46-.005.075-.122.18-.207.205-.527.147-.648.703-1.028.995-.017.013-.033.048-.028.068.135.64-.447.737-.83 1.102.217 0 .397.038.555-.006.948-.26 1.895-.525 2.833-.818.38-.118.73-.317 1.102-.465.67-.27 1.344-.532 2.02-.79.77-.293 1.545-.58 2.32-.864.748-.273 1.51-.506 2.24-.816.654-.277 1.268-.644 1.908-.953.53-.256 1.07-.49 1.61-.725.64-.276 1.283-.543 1.928-.807.116-.047.247-.056.37-.09.593-.17 1.185-.35 1.78-.513.168-.046.347-.054.58.004-.182.205-.338.44-.55.607-.843.664-1.774 1.154-2.793 1.524-.806.293-1.54.777-2.318 1.152-.714.343-1.436.67-2.17.973-.524.217-1.077.364-1.607.568-.39.15-.757.354-1.143.516-.755.318-1.518.618-2.274.935-.255.11-.49.26-.746.37-1.094.47-2.19.936-3.29 1.387-.443.18-.903.316-1.377.566.123.038.246.108.37.11 1.042.022 2.07-.094 3.048-.468.788-.3 1.558-.648 2.347-.948.398-.152.82-.246 1.23-.368.784-.234 1.566-.473 2.35-.7.51-.146 1.035-.245 1.533-.42.926-.327 1.843-.68 2.754-1.047.96-.385 1.897-.827 2.865-1.187.607-.226 1.25-.374 1.886-.504.32-.065.662-.01 1.025-.01-.12.352-.282.65-.666.815-.18.078-.314.27-.468.41l.078.14c.31-.043.617-.087.926-.128.164-.023.33-.06.494-.053.098.004.193.078.29.12-.05.096-.073.225-.15.282-.474.353-.96.69-1.444 1.034-.042.03-.1.04-.13.08-.315.393-.713.62-1.224.674-.177.02-.343.143-.517.22.03.064-.012.082-.515.17l.168.2c-.72.044-1.37.176-1.817.82-.2-.41-.377-.196-.615-.06-.156.092-.278.448-.607.165-.068-.06-.438.228-.638.338l-2 .428.056.28c-1.175-.104-2.27.085-2.49.437-.288-.045-.545-.107-.735.278-.067.135-.53.077-.838.11.015.216.088.342.403.365.75.054 1.494.215 2.245.254.648.033 1.303-.04 1.954-.074.243-.013.487-.032.726-.075.583-.105 1.178-.18 1.74-.354.504-.157.965-.444 1.454-.65.78-.33 1.557-.663 2.35-.953.653-.238 1.324-.425 1.992-.616.203-.058.424-.057.637-.084l.075.11c-.167.158-.322.332-.504.472-.394.302-.793.6-1.208.873-.402.266-.815.52-1.244.736-.524.263-1.052.544-1.61.706-1.048.305-1.975.975-3.112 1.006-.172.004-.34.12-.51.185l-.01.107c.262.09.526.172.784.27.398.15.784.335 1.19.458.543.163 1.102.274 1.65.42.46.122.915.268 1.374.394.146.04.3.042.45.073 1.31.268 2.52.82 3.753 1.313.06.024.1.09.194.18l-.582-.067.024.373h.698l.01.098c-.185.035-.37.094-.554.1-.625.023-1.254.108-1.862-.146-.087-.036-.23.094-.347.09-.312-.008-.634-.007-.934-.08-.9-.223-1.796-.47-2.687-.728-.48-.14-.94-.338-1.417-.484-.876-.268-1.75-.547-2.64-.762-.525-.127-1.08-.132-1.617-.206-.416-.057-.826-.156-1.243-.2-.8-.086-1.602-.153-2.405-.216-.59-.046-1.18-.092-1.77-.105-.795-.018-1.592-.005-2.39-.005l-.046.108c.096.062.185.14.29.182.467.18.938.35 1.408.524.432.16.87.31 1.295.485.535.22 1.063.46 1.59.7.488.222.97.456 1.455.687.555.265 1.105.538 1.663.797.138.065.29.104.44.128.84.137 1.68.27 2.52.395.56.084 1.124.14 1.682.236.507.088 1.005.228 1.51.323.318.06.646.055.963.115.482.092.96.216 1.438.325.23.053.462.102.686.192-.63.077-1.238-.402-1.88-.06.253.37.298.37.5-.006.214.056.535-.024.397.47.273-.12.46-.204.71-.315l-.094.314c.543-.174.97.012 1.392.346.477-.193 1.586.222 1.686.663l-.445-.168-.052.096.19.217-.485.044c-.147-.126.08-.516-.35-.372l.154.293c-.058.03-.102.073-.14.07-.562-.06-1.12-.13-1.683-.186-.106-.01-.22.063-.323.045-.257-.046-.51-.114-.76-.186-.7-.2-1.394-.412-2.095-.603-.088-.023-.203.052-.28-.02l-1.648-.4-.054.157c.204.068.41.132.613.205.096.035.184.098.28.127.54.16 1.08.313 1.616.48.068.022.104.13.172.174.14.092.287.182.442.248.38.16.818.148 1.137.5.132.143.447.108.663.192.208.082.427.18.59.33.38.346.86.175 1.282.293.277.077.56.127.842.19l-.033.152c-.148-.025-.295-.057-.444-.07-.373-.034-.746-.058-1.12-.09-.087-.007-.175-.022-.26-.047-1.473-.442-2.944-.897-4.42-1.327-.87-.252-1.76-.426-2.616-.713-.562-.188-1.07-.535-1.617-.774-.4-.176-.817-.316-1.24-.425-.42-.11-.887-.295-1.273-.2-.392.096-.74-.118-1.103-.013.1-.02.2-.042.298-.063l.005-.038c-.742-.024-1.493-.197-2.28.15.287.202.54.384.797.56.948.646 1.992 1.08 3.084 1.416.122.037.203.208.322.338.067-.082.14-.174.175-.215l1.565.36c.115.098.233.23.257.215.348-.22.622.02.922.117.134.043.284.037.44.054v.333c.087-.065.166-.15.264-.187.07-.027.17-.004.247.023.245.088.484.19.776.304.015.11-.107.43.315.333l.036-.352.103-.01.062.266c.203.02.4.015.582.07.067.018.1.17.135.268.023.064.02.137.03.206.076-.016.152-.034.23-.047.138-.024.294-.096.413-.056.266.087.513.23.764.35l-.29.346.074.125.512-.215c.063.103.178.278.278.46.058.108.092.228.136.342l.176-.164-.192-.244c.03-.034.062-.067.093-.1.098.09.28.184.28.277 0 .368.3.422.522.49.29.087.528.21.708.453.025.034.113.022.227.04.287.316.536.754 1.056.99.258.118.41.555.515.878.064.197-.183.202-.325.14-.57-.25-1.13-.515-1.7-.77-.49-.22-.99-.425-1.48-.652-.455-.21-.894-.455-1.35-.663-.674-.31-1.356-.602-2.04-.888-.068-.028-.177.04-.26.062-.142-.353-.45-.397-.87-.398.208.19.276.497.62.235.078.598.64.74 1.026 1.012.546.386 1.19.63 1.775.965.674.388 1.32.825 1.993 1.215.59.342 1.03.842 1.488 1.327.083.085.144.19.215.286l-.103.083c-.145-.183-.255-.416-.44-.538-.372-.245-.592-.782-1.186-.64-.118.03-.26-.043-.477-.085l.187.547c-.396-.19-.728-.35-1.09-.522l.31.833c.08-.01.203-.023.358-.04-.018.103-.06.192-.04.264.018.065.103.112.158.168.194-.314.453-.033.507.043.354.49.93.633 1.39 1.045-.107-.01-.23.013-.316-.032-.74-.38-1.49-.74-2.2-1.168-.584-.354-1.113-.8-1.674-1.194-.74-.52-1.477-1.045-2.237-1.535-.256-.164-.578-.225-.87-.336-1.14-.436-2.29-.853-3.42-1.314-.875-.358-1.744-.74-2.585-1.17-.75-.386-1.45-.862-2.182-1.285-.427-.246-.86-.49-1.312-.687-.175-.075-.41-.012-.74-.012 2.054 1.687 3.836 3.508 5.213 5.622.138.165.264.273.335.41.122.234.208.485.31.728.02.046.043.115.078.125.604.178.66.835 1.06 1.198.374.34.686.75 1.026 1.13.24.27.485.54.724.812.78.89 1.542 1.798 2.343 2.668.402.436.79.85 1.05 1.405.188.396.578.696.875 1.04.028.034.043.08.07.133-.376-.03-.675-.116-.66-.643l-.21.285c-.03-.242-.005-.54-.436-.354l-.05-.3c-.262-.176-.48-.316-.69-.465-.186-.13-.355-.25-.37.12-.13-.698-.657-1.127-1.092-1.624-.022.08-.02.15.01.207.18.344.526.582.526 1.054 0 .227.116.583.48.643v-.016c-.21.445.17.72.315 1.06.038.086.12.154.162.207-.264.146-.5.283-.744.41-.082.042-.178.078-.27.083-.284.016-.4.17-.22.388.175.212.446.348.68.51.067.046.215.06.22.1.08.725.8.933 1.134 1.45-.2.156-.205.143-.418-.067-.353-.345-.72-.674-1.08-1.01l.01.01c-.026-.25-.085-.427-.402-.485-.164-.03-.287-.284-.496-.51l.102.54.01-.01z" fill="#000"/></g></svg>