<svg width="100" height="64" viewBox="0 0 100 64" xmlns="http://www.w3.org/2000/svg"><title>turtle</title><g fill="none" fill-rule="evenodd"><path d="M1.375 39.495c2.278-.115 4.436-.797 6.59-1.472 1.88-.59 3.573-1.557 5.195-2.657 1.442-.978 2.77-2.062 3.658-3.615.64-1.113 1.355-2.184 2.058-3.26.1-.154.368-.36.47-.32.355.14.754.313.984.597.314.392.68.614 1.14.72 1.186.27 2.38.51 3.558.81.29.074.668.278.767.52.33.806.96.942 1.702.97 1.625.06 3.25.125 4.876.205.19.01.424.066.556.19.587.54 1.3.816 2.062.8 1.946-.042 3.89-.17 5.836-.245.187-.007.42.06.558.18.394.345.78.51 1.344.445 1.792-.21 3.48-.8 5.18-1.333.398-.126.696-.148.88.297.13.31.353.355.67.238 2.065-.765 4.14-1.508 6.202-2.275.298-.11.49-.07.645.197.248.43.5.857.747 1.288.17.297.34.593.496.898.34.667.947.953 1.796 1.153-.457.634-.847 1.146-1.207 1.678-.45.663-.98 1.298-1.295 2.024-.703 1.618-1.25 3.303-1.942 4.926-1.358 3.184-2.785 6.34-4.162 9.516-1.083 2.5-2.1 5.027-2.787 7.67-.315 1.208-.558 2.437-.782 3.666-.095.527.08.687.622.694.807.008 1.586-.185 2.228-.668 1.93-1.45 3.877-2.88 5.724-4.433 1.61-1.353 3.21-2.752 4.6-4.32 2.33-2.62 4.502-5.385 6.72-8.104 2.307-2.827 4.046-5.94 4.74-9.573.18-.952.34-1.896-.093-2.823-.282-.604-.577-1.203-.87-1.803-.6-1.237-1.16-2.49-1.244-3.888-.056-.914.288-1.692 1.14-2.074.602-.27 1.117-.632 1.593-1.043 1.614 1.193 3.394 2.122 5.307 2.77 2.9 1.513 5.657 3.265 8.252 5.284 1.954 1.522 3.855 3.115 5.803 4.648.237.186.686.36.892.255.217-.11.353-.562.354-.865 0-.432-.094-.887-.25-1.293-.58-1.534-1.155-3.074-1.824-4.57-.856-1.916-2.102-3.566-3.707-4.925-1.595-1.35-3.206-2.68-4.817-4.008-.007-.007-.018-.01-.025-.015-.122-.146-.256-.286-.408-.412.723-.004 1.447-.006 2.17-.015.873-.01 1.76-.113 2.616.002 2.047.276 4.075.147 6.095-.145 1.42-.205 2.855-.42 4.213-.852.8-.254 1.402-.372 2.006.258.018.02.063.016.144.03.615-1.164 1.09-2.284.71-3.73-.605-2.286-1.786-3.998-3.937-5.03-1.62-.778-3.324-1.155-5.11-1.22-1.984-.07-3.977-.086-5.894-.715-2.898-.95-5.484-2.486-7.956-4.235-2.13-1.505-4.252-3.022-6.75-3.876C66.622 1.386 62.95.44 59.15.23 55.63.036 52.1-.006 48.572 0c-2.726.006-5.45.256-8.09.987-1.45.4-2.854.958-4.27 1.467-2.11.757-4.222 1.51-6.317 2.308-2.913 1.11-5.722 2.448-8.487 3.886-2.35 1.222-4.72 2.406-7.094 3.58-1.21.598-2.432 1.178-3.682 1.688-.824.337-1 .572-.7 1.42.03.08.066.158.097.238.385.982.284 1.308-.58 1.9-.14.098-.273.205-.41.31-.296.225-.337.51-.15.815.124.2.278.388.446.556.836.835 1.685 1.655 2.52 2.492.547.55 1.077 1.115 1.614 1.673-.248.13-.492.222-.7.368-1.183.84-2.42 1.616-3.524 2.552-2.787 2.37-5.31 5.007-7.493 7.952C.9 35.342.16 36.542.02 38.03c-.108 1.15.19 1.524 1.355 1.465z" fill="#000"/></g></svg>