<svg width="131" height="60" viewBox="0 0 131 60" xmlns="http://www.w3.org/2000/svg"><title>whales</title><g fill="none" fill-rule="evenodd"><path d="M102.286 34.202c-2.7-.11-3.32-2.393-15.266-6.046-6.102-1.865-17.98-3.7-24.833-6.136C54.48 19.28 60.053.89 57.6.088c-5.005-1.635-7.676 20.03-15.196 21.36-16.696 2.95-25.49 8.082-28.332 9.215-5.833 2.323-8.958 6.43-10.737 8.16-1.487 1.444-3.687 3.547-2.192 5.476 1.496 1.93 5.95-.613 8.525-.646-3.298 1.713-5.89 1.46-6.177 2.393-.218.715-.014 1.85 5.806 2.33 4.52.374 23.306 4.415 30.304 4.118 3.305 4.11 8.604 8.407 15.928 7.34 2.027-.296 1.075-1.02-.37-1.98-4.667-3.1-4.762-7.8-5.785-7.42-1.022.378 30.47-3.428 37.818-6.834 3.458-1.6 12.52-3.784 14.312-4.533 1.865-.237 3.54.544 10.144 6.056 8.468 7.07 12.982 2.37 12.97 1.884-.013-.485-8.985 3.577-3.725-7.992.956-2.102-2.33-.834-2.387-1.828-.057-.994 3.653.368 2.645-1.62-.305-.6-.73-1.038-.216-2.202 3.503-7.936 10.234-6.637 9.68-7.23-4.864-5.216-19.886 8.408-28.326 8.067z" fill="#000"/></g></svg>