<svg xmlns="http://www.w3.org/2000/svg" width="33" height="36" viewBox="0 0 33 36"><title>google_plus_icon</title><g fill="#fff" fill-rule="evenodd"><g><g><g><g><path d="M17.337 20.553L15.75 19.24c-.482-.425-1.143-.988-1.143-2.018 0-1.035.66-1.692 1.234-2.302 1.848-1.548 3.693-3.195 3.693-6.667 0-3.57-2.11-5.448-3.12-6.34h2.726L22 0h-8.668c-2.38 0-5.807.6-8.317 2.805C3.125 4.543 2.2 6.94 2.2 9.095c0 3.662 2.64 7.374 7.304 7.374.44 0 .922-.047 1.406-.095-.218.564-.438 1.034-.438 1.83 0 1.455.702 2.347 1.32 3.192-1.98.145-5.678.38-8.405 2.163C.79 25.204 0 27.597 0 29.286 0 32.762 3.078 36 9.46 36c7.566 0 11.572-4.458 11.572-8.872 0-3.243-1.76-4.838-3.695-6.575zM11.735 16C7.788 16 6 10.548 6 7.258c0-1.28.227-2.603 1.008-3.636C7.744 2.638 9.025 2 10.222 2 14.026 2 16 7.5 16 11.04c0 .884-.092 2.452-1.146 3.586-.738.788-1.973 1.374-3.12 1.374zm-.108 19C6.99 35 4 32.458 4 28.923c0-3.533 2.773-4.728 3.726-5.124 1.82-.702 4.16-.8 4.55-.8.435 0 .652 0 .997.05C16.57 25.738 18 27.078 18 29.623 18 32.705 15.79 35 11.627 35z"/><path d="M28.577 14.79V10H26.4v4.79H22v2.39h4.4V22h2.177v-4.82H33v-2.39h-4.423z"/></g></g></g></g></g></svg>