<svg xmlns="http://www.w3.org/2000/svg" width="29" height="36" viewBox="0 0 29 36"><title>pinterrest_icon</title><g fill="#fff" fill-rule="evenodd"><g><g><g><g><path d="M28.828 10.01C27.812 2.896 20.468-.727 12.636.122 6.443.792.27 5.627.013 12.542c-.156 4.22 1.083 7.39 5.242 8.277 1.8-3.08-.58-3.75-.953-5.98C2.776 5.725 15.187-.498 21.687 5.87c4.5 4.41 1.536 17.97-5.715 16.558-6.945-1.345 3.402-12.14-2.14-14.256-4.507-1.723-6.9 5.265-4.763 8.74C7.814 22.884 5.116 28.51 6.21 36c3.54-2.482 4.737-7.234 5.715-12.19 1.78 1.046 2.733 2.13 5.002 2.3 8.37.625 13.05-8.072 11.9-16.1z"/></g></g></g></g></g></svg>