<svg xmlns="http://www.w3.org/2000/svg" width="43" height="36" viewBox="0 0 43 36"><title>twitter_icon</title><g fill="#fff" fill-rule="evenodd"><g><g><g><g><path d="M43 4.26c-1.583.722-3.28 1.212-5.065 1.43 1.822-1.124 3.216-2.907 3.877-5.025-1.706 1.04-3.595 1.797-5.605 2.207C34.6 1.102 32.307 0 29.77 0c-4.87 0-8.82 4.07-8.82 9.09 0 .71.077 1.405.228 2.07-7.33-.38-13.83-4-18.182-9.498-.76 1.34-1.193 2.902-1.193 4.57 0 3.153 1.56 5.936 3.923 7.564-1.445-.05-2.805-.46-3.995-1.14v.113c0 4.402 3.042 8.077 7.076 8.913-.74.205-1.518.32-2.325.32-.568 0-1.12-.06-1.66-.168 1.124 3.61 4.38 6.24 8.24 6.314-3.018 2.436-6.823 3.887-10.956 3.887-.712 0-1.413-.044-2.104-.124C3.904 34.493 8.54 36 13.522 36 29.747 36 38.62 22.148 38.62 10.135l-.03-1.177c1.73-1.276 3.23-2.877 4.41-4.7z"/></g></g></g></g></g></svg>