<svg width="644" height="120" xmlns="http://www.w3.org/2000/svg" fill-rule="evenodd" clip-rule="evenodd" stroke-linejoin="round" stroke-miterlimit="1.414"><path d="M26.45 78.656h-9.066L14.98 93.08H0L11.097 27.8H33.29L43.83 93.08h-14.98zm-.927-13.686l-3.33-27.185h-.187L18.124 64.97zM105.794 99.18H89.148l-3.328-5.36C73.61 91.417 72.502 76.99 72.502 65.15c0-13.126.367-29.026 17.569-29.026 17.388 0 17.758 15.9 17.758 29.026 0 11.1-.926 24.414-10.542 27.93h4.807zM90.07 81.613c4.998 0 5.185-6.288 5.185-16.462 0-10.165-.188-16.45-5.184-16.45-4.808 0-4.99 6.285-4.99 16.45-.003 10.174.182 16.462 4.99 16.462zM169.233 75.143c0 14.61-6.66 19.048-16.28 19.048-9.803 0-16.458-4.438-16.458-19.047V37.23h12.76v37.167c0 4.443 0 7.215 3.698 7.215 3.517 0 3.517-2.772 3.517-7.215V37.23h12.765v37.913h-.002zM216.95 80.69h-7.765l-2.042 12.39h-12.757l9.244-55.847h19.234l9.064 55.848H218.98zm-.74-11.65l-2.966-23.3h-.183l-3.145 23.3zM412.808 27.613h14.796v51.043h14.61v14.24h-29.406V27.612zM504.173 74.95c0 14.614-6.655 19.056-16.28 19.056-9.8 0-16.46-4.443-16.46-19.055V37.045H484.2v37.17c0 4.442 0 7.217 3.694 7.217 3.7 0 3.7-2.774 3.7-7.217v-37.17h12.578v37.908zM534.507 37.044h15.347l8.14 38.1h.183v-38.1h11.283v55.85h-14.425l-9.063-39.947h-.185v39.948h-11.28v-55.85zM631.97 87.903c-4.063 4.066-9.433 6.103-15.166 6.103-17.2 0-18.302-17.196-18.302-30.15 0-17.747 4.81-27.923 18.68-27.923 5.172 0 9.61 1.663 12.942 4.993V55.54c-1.85-3.517-6.476-7.03-10.538-7.03-8.148 0-8.514 10.17-8.514 17.938 0 8.136.557 16.274 5.732 16.274.927 0 1.855-.37 2.402-.738V64.416h12.763zM628.614 28.103c0-4.355 3.543-7.573 7.712-7.573 4.136 0 7.674 3.217 7.674 7.573 0 4.4-3.538 7.61-7.674 7.61-4.17.002-7.712-3.21-7.712-7.61zm7.712 6.343c3.437 0 6.15-2.694 6.15-6.343 0-3.597-2.713-6.305-6.15-6.305-3.472 0-6.19 2.708-6.19 6.305 0 3.65 2.718 6.343 6.19 6.343zm-1.6-1.942h-1.33v-8.756h3.336c2.062 0 3.085.76 3.085 2.49 0 1.566-.982 2.248-2.264 2.405l2.488 3.86h-1.49l-2.307-3.798h-1.52v3.8h.002zm1.58-4.923c1.12 0 2.13-.08 2.13-1.426 0-1.087-.98-1.286-1.907-1.286h-1.805v2.713h1.58zM381.784 46.464c.996 4.314 1.53 8.86 1.53 13.538 0 33.07-26.93 59.998-60.007 59.998-28.582 0-52.355-19.886-58.683-47.425l-.008-.006c-.19-.182-.19-.494-.128-.64-.81-4.167-1.187-8.004-1.187-11.928C263.3 26.746 290.05 0 323.308 0c28.423 0 52.31 19.753 58.462 46.4l.01.033.004.03zm-117.16 26.11c1.93-.038 3.45-.997 3.45-.997s19.597-11.65 30.765-17.902c3.353-1.877 10.262-4.777 14.116-1.19 3.426 3.2.922 10.376-1.14 15.356-1.97 4.753-8.268 20.151-3.104 25.19 6.79 6.623 25.02-1.838 45.552-20.096 13.755-12.227 18.896-16.498 24.846-22.468.866-.875 2.266-2.414 2.674-4.002l-.01-.05-.005-.015c.062.262.058-.03-.122-.224-.938-1-3.49.874-3.49.874s-14.257 8.834-25.643 15.044c-5.38 2.932-14.394 8.803-19.506 3.95-4.853-4.6 3.093-19.138 3.093-19.138 5.382-11.1 6.628-17.554 2.09-20.997-7.758-5.885-24.83 2.668-42.948 16.616-13.72 10.564-23.098 20.488-28.302 25.688-.603.606-2.04 2.346-2.455 3.717l.027.145.11.5z" fill="#fff"/></svg>