<svg width="144" height="120" xmlns="http://www.w3.org/2000/svg" fill-rule="evenodd" clip-rule="evenodd" stroke-linejoin="round" stroke-miterlimit="1.414"><path d="M55.233 76.317c-3.743-4.22-8.41-7.624-13.61-9.925.194 4.41 1.02 8.774 2.38 12.946 3.793 9.542 12.98 15.92 23.383 16.16V67.062c-4.618 2.254-8.75 5.418-12.153 9.254zM90.11 47.51L66.986 25.763c-3.543-3.674-5.216-8.652-4.527-13.68C63.1 7.106 66.05 2.66 70.38 0h-2.263c-10.824 0-20.566 6.477-24.6 16.337-3.543 8.7-2.018 18.463 3.74 25.713L62.31 56.598l10.873 10.247c4.084 4.01 6.69 9.183 7.528 14.79.836 5.848-2.46 11.55-8.07 13.774 12.3.966 23.814-6.187 28.144-17.545 3.1-8.17 1.525-17.255-4.035-23.877L90.11 47.51zM104.97 20.334c-.1-.442-.493-.736-.887-.736h-3.247C97.392 8.84 87.896 1.177 76.63.148v19.45h-3.445c-.394 0-.738.294-.836.687-.1.393.146.786.49.933 6.25 2.505 11.76 6.582 15.99 11.788 4.134-5.108 9.497-9.086 15.55-11.59.44-.247.638-.69.59-1.082zM14.688 114.197c.448.525.674 1.11.674 1.753 0 .754-.3 1.45-.9 2.094-.6.64-1.44 1.13-2.517 1.456-1.08.336-2.44.5-4.08.5-2.88 0-4.87-.388-5.982-1.154-1.11-.776-1.735-1.76-1.883-2.953l4.952-.205c.108.545.33.968.665 1.266.546.468 1.326.702 2.34.702.757 0 1.34-.122 1.75-.37.408-.25.61-.528.61-.845 0-.307-.196-.583-.592-.82-.398-.237-1.295-.468-2.696-.69-2.293-.35-3.928-.826-4.905-1.426-.986-.59-1.476-1.343-1.476-2.27 0-.6.247-1.164.754-1.703.5-.534 1.26-.96 2.275-1.265 1.007-.31 2.397-.462 4.16-.462 2.16 0 3.807.28 4.943.843 1.133.558 1.81 1.45 2.025 2.67l-4.905.216c-.133-.548-.412-.94-.832-1.186-.425-.237-1.01-.362-1.757-.362-.612 0-1.075.09-1.387.266-.31.176-.465.397-.465.663 0 .183.13.35.394.5.25.148.84.295 1.763.44 2.286.34 3.924.686 4.913 1.04.988.348 1.707.78 2.158 1.304zm13.396 2.5c-.51.392-1.265.59-2.262.59-1.027 0-1.824-.246-2.392-.737-.568-.484-.855-1.382-.855-2.696 0-1.065.242-1.84.72-2.34.636-.665 1.55-.995 2.742-.995.53 0 1.002.073 1.428.223.424.15.786.36 1.08.635.176.167.346.433.51.792l4.582-.712c-.593-1.24-1.498-2.16-2.718-2.757-1.218-.602-2.892-.897-5.025-.897-2.72 0-4.827.523-6.314 1.568-1.486 1.05-2.23 2.547-2.23 4.5 0 1.465.42 2.667 1.265 3.607.844.942 1.85 1.6 3.013 1.968 1.164.37 2.663.555 4.498.555 1.515 0 2.76-.154 3.737-.452.98-.308 1.8-.757 2.462-1.356.66-.6 1.142-1.34 1.45-2.235l-4.58-.965c-.23.74-.6 1.31-1.11 1.706zm19.216-1.465c0 .65-.256 1.158-.77 1.514-.508.36-1.213.54-2.118.54-.908 0-1.615-.185-2.13-.544-.51-.365-.766-.87-.766-1.51v-7.217h-5.183v7.025c0 .587.164 1.254.484 1.997.198.46.57.908 1.11 1.35.54.44 1.135.78 1.787 1.02.65.237 1.46.397 2.43.47.967.085 1.864.123 2.683.123 1.418 0 2.632-.128 3.643-.385.73-.192 1.426-.52 2.09-.984.658-.46 1.15-1.003 1.458-1.62.31-.617.465-1.274.465-1.97v-7.025H47.3v7.217zm24.218 1.215c0 .61-.203 1.155-.607 1.645-.406.488-.96.872-1.662 1.155-.437.176-1.094.304-1.974.38-1.173.107-1.947.16-2.33.16H55.97v-11.772h9.728c1.62 0 2.865.282 3.732.846.868.57 1.303 1.268 1.303 2.098 0 .7-.312 1.296-.93 1.793-.412.337-1.017.603-1.81.796 1.208.205 2.1.548 2.67 1.042.57.494.855 1.112.855 1.86zm-10.27-3.802h2.24c.81 0 1.366-.093 1.68-.286.315-.196.474-.478.474-.85 0-.343-.16-.613-.474-.808-.314-.193-.863-.292-1.646-.292h-2.275v2.235zm5.04 3.402c0-.347-.178-.626-.537-.844-.36-.21-.99-.317-1.89-.317h-2.613v2.4h2.62c.89 0 1.516-.114 1.878-.332.362-.22.543-.526.543-.907zm17.935-8.032l6.29 11.773h-5.45l-.837-1.917h-5.91l-.835 1.918H72.15l6.335-11.773h5.74zm-1.105 7.297l-1.83-4.235-1.852 4.235h3.682zm23.377-3.69c0 1.193-.513 2.123-1.538 2.793-1.022.67-2.58 1.006-4.68 1.006h-2.853v4.368h-5.227v-11.773h8.655c1.883 0 3.295.31 4.234.94.938.625 1.41 1.516 1.41 2.667zm-5.09.1c0-.366-.177-.677-.528-.93-.348-.25-1.008-.382-1.98-.382h-1.473v2.613h1.27c1 0 1.7-.122 2.103-.37.406-.242.607-.553.607-.932zm22.006 4.677l2.513 3.388h-5.896l-2.782-3.575c-.357-.455-.674-.753-.95-.89-.38-.184-.81-.28-1.29-.28h-.464v4.745h-5.227v-11.773h8.69c1.61 0 2.843.1 3.692.295.852.192 1.54.55 2.058 1.074.52.523.783 1.16.783 1.914 0 .654-.195 1.222-.593 1.703-.4.482-.947.863-1.638 1.155-.443.192-1.053.353-1.82.48.62.14 1.074.283 1.358.42.192.097.47.302.835.62.365.317.61.558.733.724zm-4.102-4.807c0-.378-.172-.676-.52-.878-.343-.202-.997-.305-1.947-.305h-2.3v2.4h2.206c.237 0 .702-.053 1.387-.162.345-.05.627-.176.847-.375.217-.196.328-.423.328-.68zM144 113.815c0 1.376-.334 2.507-.997 3.39-.666.884-1.624 1.57-2.877 2.06-1.256.495-2.82.735-4.693.735-1.905 0-3.48-.212-4.726-.635-1.247-.426-2.26-1.096-3.035-2.017-.777-.913-1.162-2.064-1.162-3.44 0-1.924.77-3.424 2.3-4.498 1.535-1.075 3.674-1.607 6.417-1.607 2.808 0 4.972.526 6.492 1.58 1.52 1.056 2.28 2.534 2.28 4.432zm-5.227-.038c0-1.113-.326-1.924-.958-2.437-.64-.51-1.507-.77-2.604-.77-1.044 0-1.885.26-2.52.783-.635.522-.952 1.378-.952 2.58 0 1.193.317 2.05.947 2.57.632.522 1.487.784 2.57.784 1.123 0 1.986-.256 2.6-.772.608-.51.918-1.427.918-2.738z" fill="#fff"/></svg>