<svg width="378" height="120" xmlns="http://www.w3.org/2000/svg" fill-rule="evenodd" clip-rule="evenodd" stroke-linecap="round" stroke-linejoin="round" stroke-miterlimit="1.414"><path d="M54.74 67.785l-9.58 6.42c-2.75-2.897-5.342-4.854-7.54-5.95-2.435-1.174-5.498-1.878-9.032-1.878-3.22 0-6.126.704-8.56 1.878-3.3 1.487-4.87 3.523-4.87 6.34 0 3.68 3.377 5.95 10.21 6.89l8.09 1.173c5.34.782 8.795 1.487 10.444 2.113 4.713 2.036 7.933 3.915 9.582 5.324 2.435 2.035 3.613 5.166 3.613 9.236 0 6.34-2.828 11.27-8.482 15.342-5.184 3.444-11.23 5.166-17.828 5.166-7.304 0-13.666-1.096-19.4-3.21-5.732-2.035-9.424-4.774-11.387-8.14l9.582-6.81c2.748 3.13 5.34 5.088 7.775 6.106 2.434 1.174 6.047 1.878 10.445 1.956 4.87.157 8.796-.47 11.78-1.956 2.828-1.488 4.32-3.444 4.32-5.636 0-2.114-.392-3.68-1.178-4.853-.706-.783-1.727-1.644-3.22-2.114-1.963-.546-8.482-1.955-19.477-3.912-6.047-1.096-10.21-2.505-12.644-4.384-3.456-2.426-5.105-6.34-5.105-11.27 0-5.715 2.748-10.255 8.09-13.543 5.104-3.05 11.622-4.46 19.398-4.382 5.968.157 11.23 1.174 15.393 3.13 3.14 1.41 6.36 3.68 9.58 6.968zM80.58 59.02l-.08 34.518c0 5.322.472 8.845 1.572 10.723 1.963 3.21 6.204 4.854 12.565 4.854 5.89 0 9.74-1.643 11.78-4.853 1.493-2.112 2.357-5.713 2.357-10.722v-34.52h12.173l.08 38.042c0 6.966-2.436 12.367-7.305 16.046-4.712 3.757-11.31 5.714-19.634 5.714-17.436 0-26.075-7.044-26.075-20.9l.236-38.9zM143.88 59.02l-.157 34.518c0 5.322.47 8.845 1.65 10.723 1.963 3.21 6.125 4.854 12.487 4.854 5.89 0 9.74-1.643 11.938-4.853 1.492-2.112 2.277-5.713 2.277-10.722v-34.52h12.173l.158 38.042c0 6.966-2.435 12.367-7.304 16.046-4.79 3.757-11.388 5.714-19.713 5.714-17.358 0-26.076-7.044-26.076-20.9l.157-38.9zM257.602 59.175h52.856l-.157 9.393h-20.105v49.94h-12.723V68.802h-19.87v-9.628zM330.72 73.734c-3.22 4.07-4.87 9.158-4.87 15.107 0 6.028 1.65 11.116 4.87 15.108 3.77 4.384 8.483 6.732 14.53 6.732 6.44 0 11.702-2.348 15.393-6.81 3.613-4.07 5.34-9.236 5.34-15.264 0-6.027-1.963-10.88-5.654-14.872-3.928-4.305-8.954-6.34-15.002-6.34-6.125-.313-10.995 1.957-14.607 6.34zm38.484-6.81C375.094 72.953 378 80.23 378 88.84c0 8.768-2.906 16.047-8.796 22.075-6.205 6.105-14.137 9.236-23.876 9.08-9.66 0-17.592-2.897-23.64-8.846-5.89-5.715-8.795-13.072-8.795-21.604 0-8.767 2.905-16.28 8.796-22.152 6.046-6.34 13.978-9.628 23.717-9.628 9.66-.078 17.514 3.053 23.797 9.158zM248.256 59.488v58.393h-11.152l-29.216-40.075-.314 40.39h-11.388V59.487h11.702l27.96 38.98.47-.704V59.488h11.938zM190.53 0l-20.497 27.866h39.505L190.53 0zM190.53 0l-20.497 27.866h39.505L190.53 0" fill="#fff"/></svg>