<svg xmlns="http://www.w3.org/2000/svg" viewBox="0 0 29.000007 24.693742"><path class="fill" d="M11.27 22.036c0 .594-.21 1.102-.63 1.522-.42.42-.928.63-1.523.63-.594 0-1.102-.21-1.522-.63-.42-.42-.63-.928-.63-1.522s.21-1.102.63-1.522c.42-.42.928-.63 1.522-.63.595 0 1.102.21 1.523.63.42.42.63.928.63 1.522zm15.072 0c0 .594-.21 1.102-.63 1.522-.42.42-.93.63-1.523.63-.595 0-1.103-.21-1.523-.63-.42-.42-.63-.928-.63-1.522s.21-1.102.63-1.522c.42-.42.928-.63 1.522-.63.593 0 1.1.21 1.52.63.422.42.632.928.632 1.522zm-16.367-6.56c.01.078.037.2.076.36.04.164.074.312.102.447.028.135.042.258.042.37 0 .18-.135.538-.404 1.077h15.476c.29 0 .544.106.757.32.213.212.32.465.32.756 0 .292-.107.544-.32.757-.213.213-.466.32-.757.32H8.04c-.29 0-.543-.107-.756-.32-.213-.213-.32-.465-.32-.757 0-.157.062-.378.185-.664.122-.286.288-.62.495-1 .208-.382.323-.595.345-.64L5.013 2.658H1.58c-.29 0-.543-.107-.756-.32-.213-.213-.32-.465-.32-.757 0-.29.107-.543.32-.756.213-.213.466-.32.757-.32h3.74c.18 0 .34.037.48.11.14.073.253.16.337.26.084.102.157.24.22.413.06.174.102.322.125.446l.092.496c.04.206.065.35.076.428 1.667 8.742 1.435 9.4 3.325 12.818z" fill="#fff"/><path d="M27.62 4.352v8.613c0 .27-.09.507-.27.715-.18.207-.408.328-.69.36L9.1 16.095C8.51 13.06 7.053 6.87 6.34 3.276h20.203c.292 0 .544.106.757.32.213.212.32.465.32.756z" class="stroke" fill="none" stroke="#fff" stroke-width="1.009"/></svg>